<svg width="236" height="654" viewBox="0 0 236 654" fill="none" xmlns="http://www.w3.org/2000/svg">
<g clip-path="url(#clip0_232_11)">
<path fill-rule="evenodd" clip-rule="evenodd" d="M382.543 1.05774C372.252 3.26392 368.157 4.47857 363.068 6.83483C341.652 16.7481 327.542 33.8382 319.976 59.0317C319.14 61.8192 318.624 68.4878 318.624 76.5411C318.624 84.5944 319.14 91.263 319.976 94.0505C323.906 107.138 330.205 119.221 336.666 126.067C340.834 130.484 340.517 130.958 328.358 138.529C323.279 141.692 319.124 144.897 319.124 145.654C319.124 146.41 321.159 147.958 323.648 149.094L328.172 151.158L320.452 165.878C316.206 173.973 310.646 184.649 308.096 189.601C304.8 196.002 302.862 198.695 301.397 198.913C299.922 199.133 298.963 200.486 298.025 203.666C297.248 206.303 296.121 208.111 295.254 208.111C294.041 208.111 282.751 204.513 277.177 202.351C276.353 202.031 271.634 200.381 266.69 198.683C261.746 196.986 256.853 195.096 255.818 194.484C254.103 193.471 256.299 190.207 280.215 158.219C294.67 138.884 307.056 123.066 307.739 123.066C308.423 123.066 310.319 124.191 311.951 125.567C313.583 126.943 315.356 128.068 315.892 128.068C317.816 128.068 320.678 104.279 318.961 102.559C318.608 102.205 317.489 102.36 316.474 102.902C315.459 103.444 313.056 104.562 311.134 105.387C299.457 110.397 296.153 112.052 296.153 112.886C296.153 113.402 297.839 115.08 299.898 116.615C301.958 118.151 303.798 119.523 303.987 119.663C304.566 120.094 251.094 191.209 249.823 191.697C248.502 192.206 242.327 190.297 225.243 184.098C218.926 181.806 211.285 179.097 208.264 178.076C193.791 173.188 180.115 168.239 179.571 167.694C179.24 167.361 178.009 167.089 176.837 167.089C175.665 167.089 174.279 166.731 173.758 166.294C173.235 165.857 170.112 164.654 166.817 163.621C161.254 161.878 157.353 159.63 158.387 158.765C159.484 157.846 295.237 90.0483 295.978 90.0483C296.438 90.0483 297.432 91.287 298.188 92.7998C300.769 97.9686 304.143 100.856 304.143 97.8965C304.143 97.2612 305.266 95.2651 306.639 93.4611C308.013 91.6572 309.136 89.9072 309.136 89.5721C309.136 89.2369 310.953 86.4984 313.174 83.4868C315.927 79.7538 316.8 77.8708 315.921 77.5676C311.251 75.9628 290.16 74.3419 290.16 75.5886C290.16 75.8907 291.059 78.0009 292.158 80.2791C293.256 82.5573 294.155 84.9006 294.155 85.4869C294.155 86.5134 154.365 157.084 152.333 157.084C151.785 157.084 151.32 155.396 151.3 153.332C151.24 146.948 147.87 134.907 143.962 127.111C134.913 109.064 119.431 94.8219 102.398 88.8747C91.2803 84.9936 88.5927 84.5454 76.4311 84.5454C61.3722 84.5454 54.8615 85.9181 42.9735 91.6011C25.3139 100.044 13.0594 113.396 4.45437 133.571C-1.58298 147.727 -1.46613 173.08 4.70106 187.1C8.03983 194.69 9.44804 197.259 13.9174 203.911C23.6211 218.354 38.2935 228.727 56.3656 233.921C60.1987 235.023 66.1771 235.542 75.4324 235.576C88.7026 235.625 91.0796 235.248 102.398 231.297C125.828 223.116 145.451 199.633 150.405 173.843C151.118 170.128 152.007 167.089 152.381 167.089C152.753 167.089 157.221 175.306 162.308 185.349C167.396 195.391 175.939 212.163 181.294 222.619C198.549 256.309 199.424 258.129 199.098 259.661C198.648 261.769 153.389 322.172 152.258 322.172C151.751 322.172 151.32 320.934 151.3 319.421C151.252 315.68 149.043 306.922 146.316 299.66C141.873 287.832 130.696 273.182 120.414 265.71C98.9096 250.084 68.5371 246.897 44.7583 257.773C24.1853 267.182 8.54519 285.638 2.05242 308.166C-0.534309 317.139 -0.561276 337.041 1.99948 346.185C8.95067 370.999 26.4465 390.301 49.9647 399.099C62.4878 403.784 82.027 404.719 94.5811 401.234C107.755 397.577 119.019 391.205 128.473 382.061C132.169 378.486 138.138 371.01 139.941 367.697C140.539 366.596 142.146 363.669 143.51 361.193C147.117 354.647 151.336 340.996 151.336 335.873C151.336 331.303 153.044 332.03 158.488 338.913C161.42 342.622 172.476 356.393 183.055 369.515L202.291 393.372L197.411 402.546C194.726 407.592 189.264 418.024 185.271 425.728C181.278 433.432 175.311 444.913 172.01 451.241C168.709 457.57 163.071 468.493 159.481 475.514C155.891 482.535 152.662 487.938 152.306 487.521C151.949 487.103 151.088 484.059 150.391 480.757C141.944 440.714 105.773 414.061 66.6935 419.085C57.3343 420.288 53.9676 421.218 45.6931 424.89C42.7938 426.176 40.1541 427.228 39.8275 427.228C39.4999 427.228 36.4788 429.205 33.113 431.62C18.0341 442.441 8.85679 455.089 2.90533 473.253C0.380531 480.959 0.127851 483.026 0.218735 495.265C0.310619 507.539 0.596256 509.581 3.34578 517.632C12.5241 544.501 32.9422 563.01 60.4514 569.399C67.5494 571.047 84.3811 571.034 91.4121 569.376C109.148 565.19 126.045 554.296 136.528 540.289C143.988 530.322 151.336 511.3 151.336 501.961C151.336 497.485 152.445 496.776 156.569 498.612C158.36 499.41 165.668 502.399 172.809 505.253C179.95 508.109 186.691 510.822 187.79 511.283C188.889 511.745 194.506 513.98 200.274 516.251C206.042 518.521 211.884 520.868 213.258 521.463C217.817 523.442 219.67 524.186 230.236 528.283C236.004 530.519 241.622 532.745 242.72 533.231C243.819 533.716 250.56 536.443 257.701 539.288C264.842 542.134 271.584 544.836 272.682 545.294C273.781 545.751 278.884 547.822 284.02 549.895C293.686 553.797 295.282 555.261 293.314 558.418C292.678 559.438 292.158 561.455 292.158 562.901C292.158 565.329 292.405 565.481 295.404 564.898C297.189 564.55 302.158 563.889 306.447 563.426C315.566 562.445 317.237 561.366 315.099 557.838C312.257 553.152 302.012 541.29 300.806 541.29C300.135 541.29 298.988 543.316 298.258 545.792C296.813 550.696 296.58 550.831 292.454 549.169C287.218 547.061 285.663 546.443 275.179 542.315C269.412 540.045 263.569 537.699 262.196 537.103C259.426 535.901 259.865 536.077 245.217 530.309C239.45 528.038 233.832 525.791 232.733 525.316C231.634 524.841 224.893 522.123 217.752 519.278C210.611 516.432 203.87 513.731 202.771 513.275C201.672 512.818 194.931 510.117 187.79 507.271C161.813 496.919 158.967 495.686 158.618 494.639C158.442 494.109 159.99 493.082 162.058 492.354C164.126 491.627 167.391 490.363 169.313 489.545C171.236 488.726 173.708 487.676 174.806 487.21C175.905 486.743 181.523 484.503 187.291 482.233C193.058 479.962 198.676 477.727 199.775 477.265C200.873 476.804 207.615 474.098 214.756 471.252C221.897 468.407 228.638 465.689 229.737 465.214C234.777 463.033 251.899 456.244 252.358 456.244C252.64 456.244 258 462.66 264.269 470.502C270.538 478.343 276.119 485.248 276.671 485.845C281.817 491.409 303.144 518.843 303.144 519.897C303.144 520.53 302.036 521.776 300.682 522.665C299.329 523.553 297.736 525.188 297.143 526.297C296.268 527.934 296.402 528.424 297.857 528.905C298.842 529.231 300.997 530.073 302.644 530.776C304.292 531.479 307.438 532.648 309.636 533.374C311.833 534.101 314.057 535.052 314.579 535.49C315.101 535.929 316.834 536.287 318.431 536.287C320.802 536.287 321.204 535.966 320.623 534.536C320.23 533.573 319.564 529.858 319.143 526.281C318.303 519.165 316.378 511.273 315.483 511.273C315.172 511.273 313.233 512.609 311.175 514.243C306.855 517.67 306.675 517.595 300.562 509.773C298.412 507.021 296.419 504.545 296.135 504.27C295.85 503.995 289.333 495.895 281.653 486.27C273.973 476.646 266.94 467.866 266.025 466.76C258.636 457.826 257.202 455.958 257.202 455.263C257.202 454.557 260.92 452.615 266.69 450.307C267.789 449.868 269.811 449.038 271.184 448.464C287.731 441.544 290.838 440.531 292.215 441.609C294.193 443.157 319.124 492.67 319.124 495.049C319.124 496.313 317.768 497.574 315.129 498.767C312.931 499.759 311.134 500.931 311.134 501.369C311.134 502.213 317.383 507.271 318.424 507.271C318.76 507.271 321.601 509.072 324.737 511.273C331.769 516.208 333.106 516.312 333.106 511.928C333.106 510.086 333.397 504.458 333.755 499.421C334.334 491.243 334.223 490.262 332.721 490.262C331.795 490.262 329.952 490.975 328.625 491.846C327.298 492.718 325.404 493.171 324.416 492.855C323.305 492.498 318.473 484.084 311.767 470.83L300.916 449.381L304.023 445.558C313.185 434.284 317.047 428.91 316.557 428.115C316.256 427.628 314.755 427.228 313.221 427.228C311.688 427.228 309.13 426.816 307.537 426.312C305.945 425.808 301.833 425.138 298.4 424.826L292.158 424.258V427.244C292.158 428.886 291.708 430.23 291.159 430.23C290.61 430.23 290.16 429.42 290.16 428.429C290.16 427.439 289.745 426.201 289.237 425.678C288.729 425.155 284.414 417.073 279.647 407.718C274.88 398.363 268.97 386.779 266.514 381.974C261.686 372.532 261.375 368.543 265.539 369.491C268.732 370.218 293.327 379.041 293.977 379.692C294.286 380.001 294.002 381.737 293.348 383.551C291.964 387.385 291.789 391.209 292.998 391.209C293.46 391.209 296.044 390.539 298.74 389.719C301.437 388.9 305.049 388.225 306.767 388.219C308.485 388.213 311.565 387.506 313.613 386.65C316.946 385.254 317.187 384.917 315.931 383.398C310.839 377.251 307.393 373.201 304.348 369.785C301.01 366.04 300.797 365.954 299.441 367.784C298.663 368.836 297.772 370.945 297.46 372.47C297.148 373.995 296.602 375.423 296.246 375.643C295.52 376.093 285.488 372.854 284.481 371.846C284.126 371.49 282.862 371.199 281.671 371.199C280.481 371.199 279.203 370.893 278.832 370.521C278.459 370.149 276.025 369.135 273.421 368.27C270.394 367.263 268.687 366.117 268.687 365.09C268.687 363.711 275.421 355.729 293.794 335.333C298.566 330.035 298.098 329.882 306.386 339.466L311.574 345.465L307.858 348.682C305.814 350.452 304.143 352.354 304.143 352.909C304.143 353.886 308.384 355.705 316.627 358.261C318.824 358.942 322.139 360.154 323.992 360.953C328.498 362.895 329.215 361.551 327.521 354.343C326.79 351.232 325.648 346.077 324.984 342.886C324.319 339.697 323.364 336.832 322.862 336.521C322.358 336.21 320.504 337.356 318.74 339.069C316.976 340.781 315.047 342.183 314.453 342.183C313.859 342.183 311.186 339.595 308.51 336.43C305.835 333.265 303.31 330.527 302.896 330.344C302.483 330.16 302.145 329.034 302.145 327.84C302.145 325.382 311.914 313.329 313.986 313.232C314.73 313.196 316.697 314.312 318.357 315.71C320.015 317.109 321.853 318.092 322.44 317.896C323.733 317.465 325.06 313.397 326.104 306.664C326.53 303.913 327.333 300.259 327.887 298.544C329.839 292.504 327.171 292.239 314.629 297.226C313.531 297.662 310.953 298.535 308.9 299.163C306.848 299.792 304.87 300.792 304.503 301.385C304.138 301.979 305.532 303.976 307.603 305.822C311.859 309.615 312.197 308.51 303.729 318.446C301.02 321.625 298.475 324.101 298.071 323.949C297.669 323.797 294.765 320.747 291.62 317.17C288.475 313.593 284.276 308.854 282.288 306.638C279.022 302.998 268.033 290.293 264.351 285.901C261.893 282.969 265.43 277.717 271.644 275.07C276.745 272.896 284.389 269.473 291.658 266.107C295.633 264.266 295.661 264.267 297.356 266.451C298.293 267.657 299.192 269.539 299.354 270.635C300.009 275.064 302.827 273.153 309.453 263.79C313.124 258.601 316.127 253.902 316.127 253.346C316.127 252.298 312.061 251.633 298.899 250.527C290.358 249.81 289.893 250.18 292.663 255.501C295.392 260.742 295.281 260.844 279.174 267.831C277.252 268.666 274.668 269.828 273.433 270.415C272.198 271.002 270.937 271.231 270.631 270.925C270.325 270.618 272.063 266.603 274.492 262.001C276.922 257.401 282.162 247.332 286.137 239.628C290.113 231.924 293.749 225.148 294.216 224.57C295.161 223.403 302.188 221.566 309.251 220.64C311.786 220.308 314.707 219.378 315.743 218.576C317.399 217.292 317.445 216.965 316.127 215.865C315.303 215.178 312.516 212 309.932 208.804L305.235 202.994L312.343 189.293C316.252 181.759 321.656 171.317 324.353 166.089C331.521 152.189 331.136 152.57 335.525 155.039C341.803 158.572 341.843 158.499 341.307 144.577C341.043 137.699 341.17 132.071 341.589 132.071C342.009 132.071 344.031 133.59 346.083 135.448C353.896 142.519 367.313 148.745 380.734 151.525C393.415 154.152 406.578 152.993 420.042 148.062C434.396 142.806 449.259 130.876 457.413 118.063C462.874 109.484 468.845 94.5017 469.004 88.9767C469.23 81.1546 470.292 82.2962 485.914 107.151C494.355 120.582 501.75 132.471 502.346 133.571C502.943 134.672 504.734 137.599 506.326 140.075C507.919 142.551 510.342 146.378 511.71 148.579C513.08 150.781 515.475 154.457 517.034 156.747C518.594 159.038 519.869 161.247 519.869 161.655C519.869 162.064 520.993 163.874 522.366 165.678C523.739 167.482 524.863 169.197 524.863 169.491C524.863 170.406 535.261 186.582 536.076 186.933C536.5 187.117 536.848 187.658 536.848 188.137C536.848 188.614 544.038 200.446 552.827 214.43C561.616 228.413 568.807 240.371 568.807 241.001C568.807 241.851 556.089 242.081 519.633 241.888L470.459 241.629L469.712 236.126C464.937 200.994 441.369 175.618 407.012 168.617C397.538 166.687 390.519 166.687 381.045 168.617C350.294 174.883 329.477 194.484 319.976 226.121C318.151 232.2 318.168 255.144 320.002 261.14C326.191 281.364 335.117 294.921 349.086 305.311C365.326 317.393 388.543 322.673 407.757 318.657C429.426 314.128 446.162 302.894 457.287 285.409C464.26 274.452 467.147 266.718 469.271 253.318L470.432 245.998L479.42 253.709C484.364 257.95 491.33 264.004 494.901 267.162C506.145 277.105 520.218 289.45 526.818 295.158C530.319 298.184 533.676 301.111 534.279 301.661C534.882 302.212 538.961 305.814 543.343 309.666C560.845 325.05 560.817 325.024 560.817 326.056C560.817 326.463 557.783 329.406 554.076 332.596C550.368 335.787 544.862 340.712 541.841 343.542C538.82 346.371 532.303 352.282 527.36 356.678C522.416 361.073 515.899 366.979 512.878 369.803C509.857 372.626 504.913 377.081 501.892 379.703C498.871 382.325 493.927 386.785 490.906 389.614C482.676 397.322 471.331 407.218 470.724 407.218C470.43 407.218 469.881 404.89 469.505 402.045C468.276 392.771 466.071 385.871 461.242 376.201C457.236 368.18 455.01 365.212 446.984 357.191C439.186 349.398 435.944 346.937 428.984 343.525C415.226 336.78 408.521 335.179 394.029 335.179C379.536 335.179 372.831 336.78 359.073 343.525C352.124 346.931 348.854 349.411 341.053 357.191C332.589 365.631 330.951 367.874 326.436 377.202C320.04 390.416 318.623 396.68 318.628 411.72C318.632 422.469 319.587 429.158 322.058 435.733C326.1 446.488 335.496 460.733 343.235 467.837C358.509 481.859 382.121 489.192 403.267 486.481C425.768 483.597 444.442 472.087 456.35 453.764C465.1 440.298 466.919 435.577 469.175 420.475L470.259 413.221H519.033C545.859 413.221 567.808 413.432 567.808 413.69C567.808 413.948 565.786 417.291 563.314 421.119C560.842 424.947 558.82 428.368 558.82 428.721C558.82 429.074 557.696 430.838 556.323 432.642C554.95 434.446 553.826 436.19 553.826 436.517C553.826 436.845 551.129 441.445 547.834 446.739C544.538 452.033 541.841 456.575 541.841 456.833C541.841 457.09 539.145 461.59 535.849 466.831C532.553 472.071 529.856 476.591 529.856 476.874C529.856 477.157 528.733 478.864 527.36 480.668C525.986 482.472 524.863 484.256 524.863 484.632C524.863 485.008 522.166 489.605 518.87 494.846C515.575 500.086 512.878 504.579 512.878 504.83C512.878 505.08 509.507 510.681 505.387 517.277C501.268 523.872 497.897 529.473 497.897 529.723C497.897 529.974 495.2 534.467 491.905 539.708C488.609 544.948 485.912 549.545 485.912 549.921C485.912 550.297 484.789 552.081 483.415 553.885C482.042 555.689 480.918 557.405 480.918 557.698C480.918 557.992 478.568 561.94 475.697 566.471L470.476 574.71L469.712 570.256C467.423 556.915 466.846 555.089 461.448 544.082C456.872 534.752 455.344 532.655 446.979 524.218C424.701 501.748 391.843 495.87 362.11 509.035C352.969 513.083 339.398 524.323 332.48 533.576C330.53 536.185 323.772 549.307 322.067 553.796C317.298 566.349 317.283 589.775 322.035 602.822C325.963 613.603 334.296 626.39 342.401 634.068C357.928 648.78 376.114 655.153 399.159 653.96C405.003 653.657 410.845 653.002 412.143 652.505C413.441 652.008 416.975 650.789 419.996 649.798C445.634 641.382 466.389 614.992 469.53 586.814C470.33 579.637 468.425 581.686 497.398 556.832C522.905 534.95 530.765 528.174 532.268 526.772C532.865 526.215 539.644 520.377 547.334 513.798C555.025 507.218 561.541 501.592 561.816 501.295C562.091 500.998 565.232 498.281 568.797 495.259C574.495 490.426 579.613 485.978 583.179 482.758C583.789 482.208 587.204 479.281 590.769 476.255C594.334 473.228 598.603 469.573 600.257 468.133C612.089 457.83 620.023 451.244 620.583 451.262C620.945 451.274 622.522 453.097 624.088 455.315C625.653 457.532 627.425 459.182 628.023 458.981C628.622 458.781 630.487 454.742 632.168 450.006C633.848 445.269 635.559 441.058 635.972 440.648C636.384 440.237 636.721 438.385 636.721 436.532V433.163L631.478 433.723C618.155 435.147 612.751 436.494 612.751 438.394C612.751 439.407 613.099 440.235 613.523 440.235C614.747 440.235 618.034 446.962 617.352 448.069C617.012 448.618 605.838 458.437 592.521 469.889C579.204 481.34 568.083 490.957 567.808 491.258C567.142 491.988 540.779 514.746 534.952 519.621C532.424 521.735 529.003 524.662 527.35 526.124C525.696 527.586 521.431 531.259 517.872 534.286C512.163 539.14 506.967 543.662 503.5 546.792C502.89 547.343 499.47 550.268 495.899 553.293C492.329 556.318 487.835 560.252 485.912 562.036C481.116 566.484 480.848 564.015 485.36 556.949C487.311 553.892 488.908 551.183 488.908 550.93C488.908 550.676 492.729 544.324 497.398 536.816C502.067 529.307 505.887 522.993 505.887 522.783C505.887 522.571 508.583 518.068 511.879 512.774C515.175 507.48 517.872 502.977 517.872 502.766C517.872 502.556 521.692 496.241 526.361 488.732C531.03 481.224 534.85 474.882 534.85 474.639C534.85 474.396 537.458 470.044 540.646 464.97C543.833 459.896 546.752 455.068 547.132 454.243C547.511 453.418 553.155 443.962 559.674 433.232L571.525 413.721L592.138 413.451L612.751 413.18V418.145C612.751 420.874 613.214 423.394 613.78 423.745C614.345 424.095 619.09 421.871 624.323 418.801C629.556 415.732 634.425 413.221 635.142 413.221C636.008 413.221 636.668 415.328 637.102 419.474C638.094 428.976 638.906 433.68 639.647 434.232C640.017 434.507 641.149 436.984 642.165 439.735C646.185 450.632 657.084 464.74 667.409 472.407C673.395 476.852 684.431 482.205 693.149 484.891C701.559 487.483 722.471 487.447 731.601 484.824C758.475 477.107 777.872 457.501 786.108 429.73C788.555 421.48 788.595 401.118 786.181 392.71C784.488 386.814 783.87 385.196 780.649 378.224C772.429 360.436 754.804 344.552 737.094 338.972C724.783 335.094 706.908 333.917 696.909 336.326C678.36 340.794 663.315 350.268 652.653 364.195C643.406 376.272 636.721 393.148 636.721 404.415C636.721 406.874 636.462 409.144 636.147 409.46C635.831 409.776 631.041 407.355 625.501 404.078C619.962 400.801 614.853 398.343 614.148 398.614C613.417 398.895 612.733 401.173 612.559 403.913L612.252 408.719L594.025 408.992C576.484 409.254 575.798 409.19 575.798 407.3C575.798 406.219 576.22 405.075 576.734 404.755C577.248 404.437 578.308 402.948 579.089 401.445C580.474 398.779 595.698 373.451 600.447 365.913C602.549 362.575 603.044 362.279 604.628 363.411C608.751 366.358 618.744 375.765 618.738 376.695C618.734 377.249 617.385 378.469 615.742 379.406C614.097 380.343 612.751 381.511 612.751 381.999C612.751 382.489 615.561 383.664 618.993 384.612C622.427 385.56 626.616 386.757 628.303 387.272C631.993 388.398 635.735 388.492 635.686 387.457C635.637 386.411 633.073 376.077 632.335 373.95C632.001 372.987 631.512 371.511 631.249 370.67C630.851 369.404 630.094 369.59 626.823 371.759C624.238 373.473 622.385 374.086 621.456 373.538C617.277 371.066 605.884 360.45 605.827 358.972C605.755 357.119 607.079 354.565 613.749 343.684C616.11 339.832 619.017 334.946 620.21 332.826C621.401 330.707 622.796 328.906 623.307 328.824C624.64 328.612 634.797 344.389 634.485 346.185C634.34 347.011 632.762 348.33 630.977 349.117C629.193 349.904 627.764 351.255 627.802 352.118C627.869 353.617 647.177 364.128 648.042 363.136C649.062 361.967 649.564 343.215 648.591 342.612C648.012 342.253 646.061 342.756 644.256 343.729C642.453 344.702 640.315 345.245 639.506 344.933C637.38 344.116 626.731 326.564 626.752 323.911C626.762 322.68 629.003 318.182 631.732 313.918C635.709 307.703 637.181 306.164 639.146 306.164C640.494 306.164 641.874 306.614 642.214 307.164C642.554 307.715 643.703 308.165 644.77 308.165C646.554 308.165 646.708 307.401 646.708 298.629C646.708 291.319 646.378 288.965 645.292 288.547C644.513 288.248 641.254 289.471 638.051 291.266C634.847 293.061 631.034 295.132 629.578 295.868C625.522 297.919 624.905 301.161 628.569 301.161C629.395 301.161 630.844 301.861 631.789 302.718C633.399 304.178 633.257 304.706 629.508 311.193C627.31 314.998 624.936 318.589 624.233 319.174C623.25 319.991 621.26 317.516 615.606 308.447C603.998 289.831 604.465 291.746 610.289 286.605C613.017 284.198 615.77 282.211 616.408 282.189C617.046 282.168 618.702 283.502 620.089 285.152C623.242 288.907 625.516 288.999 626.284 285.403C626.608 283.89 627.333 281.526 627.896 280.15C629.727 275.678 631.568 269.701 631.901 267.143C632.323 263.908 629.389 263.388 623.008 265.566C620.468 266.433 617.141 267.143 615.617 267.143C612.465 267.143 607.758 269.042 607.758 270.315C607.758 270.781 609.117 272.589 610.779 274.331C612.441 276.073 613.648 277.956 613.461 278.515C613.276 279.075 610.98 281.353 608.359 283.579L603.595 287.624L600.734 284.137C599.16 282.219 597.297 279.524 596.593 278.149C595.89 276.773 594.294 274.255 593.046 272.552C591.8 270.849 590.779 269.09 590.779 268.644C590.779 268.197 589.656 266.356 588.282 264.552C586.909 262.749 585.786 260.948 585.786 260.55C585.786 260.153 584.662 258.352 583.289 256.548C581.915 254.744 580.792 252.97 580.792 252.606C580.792 252.242 579.861 250.634 578.723 249.033C577.101 246.749 576.947 246.012 578.012 245.601C578.759 245.314 586.769 245.204 595.811 245.355L612.252 245.631L612.562 250.634C612.731 253.385 613.242 256.013 613.695 256.472C614.149 256.931 616.36 256.144 618.609 254.721C620.858 253.298 623.157 252.135 623.717 252.135C624.278 252.135 624.736 251.685 624.736 251.134C624.736 250.584 625.195 250.134 625.755 250.134C626.315 250.134 628.579 248.992 630.786 247.596C632.993 246.201 635.231 245.327 635.759 245.654C636.289 245.982 636.721 248.085 636.721 250.327C636.721 260.278 643.198 277.472 651.148 288.625C662.663 304.781 678.658 314.661 700.466 319.091C714.773 321.996 736.759 318.094 748.809 310.51C750.858 309.22 752.832 308.165 753.195 308.165C754.055 308.165 764.378 299.448 767.384 296.183C794.897 266.309 795.054 221.288 767.751 191.949C759.04 182.589 748.911 175.954 736.095 171.216C731.339 169.457 717.586 167.089 712.125 167.09C698.681 167.092 678.895 173.712 667.682 181.959C663.133 185.305 654.745 193.666 651.481 198.106C643.569 208.872 636.721 227.146 636.721 237.493C636.721 240.043 636.288 242.129 635.757 242.129C634.829 242.129 626.283 237.656 624.237 236.099C621.743 234.201 615.547 231.124 614.22 231.124C613.106 231.124 612.751 232.452 612.751 236.627V242.129L593.526 242.121L574.3 242.113L539.344 186.365C520.119 155.703 498.204 120.745 490.643 108.678C483.083 96.6118 477.113 86.5234 477.378 86.2583C477.792 85.8431 488.827 94.7198 498.396 103.164C500.044 104.618 506.561 110.204 512.878 115.577C519.195 120.95 526.835 127.471 529.856 130.07C532.878 132.668 540.518 139.189 546.835 144.562C553.152 149.935 559.669 155.52 561.317 156.974C562.964 158.429 569.931 164.32 576.797 170.066C583.663 175.812 589.506 180.771 589.781 181.085C590.055 181.399 594.549 185.227 599.768 189.591C604.986 193.956 610.295 198.611 611.566 199.937L613.875 202.346L611.566 204.976C610.295 206.421 608.919 207.756 608.507 207.941C606.479 208.853 608.173 211.138 611.503 211.981C617.577 213.521 627.041 215.339 629.73 215.482C631.924 215.599 632.193 215.251 631.95 212.614C631.673 209.618 631.456 208.962 628.371 201.824C627.47 199.742 626.734 197.222 626.734 196.226C626.734 195.229 625.88 193.64 624.836 192.694C623.02 191.047 622.822 191.127 620.223 194.54C617.044 198.716 616.149 198.87 612.607 195.854C611.153 194.616 607.615 191.602 604.745 189.157C601.873 186.712 599.017 184.234 598.398 183.65C597.778 183.066 594.799 180.571 591.778 178.104C588.757 175.638 586.06 173.387 585.786 173.101C585.511 172.814 582.365 170.109 578.794 167.089C575.224 164.07 572.078 161.357 571.803 161.063C571.529 160.768 567.034 156.942 561.816 152.56C556.598 148.177 550.98 143.407 549.332 141.957C547.684 140.508 541.167 134.927 534.85 129.554C528.533 124.181 520.893 117.66 517.872 115.061C514.85 112.463 507.21 105.942 500.893 100.569C494.576 95.1961 488.059 89.6031 486.412 88.1403C484.764 86.6775 480.44 83.0976 476.804 80.185L470.193 74.8902L469.523 68.2116C468.791 60.9097 467.966 57.8171 464.142 48.0258C457.231 30.3314 442.877 15.1172 425.489 7.05295C412.7 1.12277 394.252 -1.4526 382.543 1.05774ZM385.539 5.14092C369.162 6.44862 354.472 13.7045 341.943 26.6744C328.882 40.1936 322.12 57.2057 322.12 76.5411C322.12 108.766 342.579 136.101 374.054 145.927C375.976 146.527 381.258 147.432 385.789 147.938C394.321 148.891 407.528 147.949 414.003 145.927C455.442 132.99 476.226 90.2694 460.906 49.5266C453.338 29.4029 434.093 12.3678 412.471 6.65473C405.356 4.77473 396.414 4.27246 385.539 5.14092ZM61.9495 89.1949C41.2547 94.0665 27.5541 103.132 16.0527 119.564C-0.389494 143.055 -0.389494 177.116 16.0527 200.607C25.6435 214.31 36.279 222.313 53.9596 229.132C64.5742 233.226 87.1605 232.953 98.9026 228.588C114.737 222.704 126.856 213.199 135.911 199.568C138.902 195.064 141.349 190.717 141.349 189.907C141.349 189.097 141.678 188.104 142.081 187.7C143.438 186.342 145.418 178.653 146.743 169.591C148.517 157.464 146.735 142.985 142.125 132.071C135.521 116.434 122.843 102.963 107.891 95.6943C99.1164 91.4291 98.3264 91.1459 90.4134 89.444C83.1726 87.8862 68.0697 87.7541 61.9495 89.1949ZM159.326 165.573C159.326 166.139 177.055 187.067 179.258 189.101C179.556 189.376 182.946 193.201 186.791 197.602C190.636 202.002 194.612 206.504 195.626 207.607C196.641 208.71 202.009 214.919 207.555 221.404C213.102 227.89 218.182 233.068 218.845 232.911C219.507 232.753 224.924 226.096 230.882 218.117C236.84 210.137 242.498 202.741 243.454 201.682C245.65 199.25 246.671 196.116 245.566 195.204C245.099 194.82 240.898 193.258 236.229 191.733C231.56 190.208 226.84 188.553 225.742 188.056C224.643 187.558 219.7 185.813 214.756 184.178C206.425 181.424 198.987 178.818 172.809 169.483C159.956 164.899 159.326 164.717 159.326 165.573ZM380.546 172.495C379.996 172.69 377.525 173.412 375.053 174.099C372.581 174.787 368.186 176.417 365.288 177.723C362.389 179.029 359.773 180.096 359.474 180.096C359.176 180.096 356.068 182.143 352.568 184.646C326.225 203.478 315.833 235.848 325.924 267.643C332.624 288.753 352.129 306.84 375.502 313.618C383.727 316.002 404.331 316.002 412.555 313.618C444.731 304.287 465.941 276.678 465.936 244.131C465.933 225.551 459.584 208.75 447.531 195.433C442.783 190.187 430.317 180.096 428.583 180.096C428.284 180.096 425.668 179.044 422.769 177.758C412.473 173.19 410.61 172.822 396.026 172.48C388.061 172.294 381.095 172.301 380.546 172.495ZM693.534 173.946C658.601 183.671 636.221 217.636 641.202 253.365C644.131 274.369 654.533 291.529 671.177 302.813C679.009 308.122 681.602 309.408 691.035 312.664C698.131 315.113 700.25 315.377 712.508 315.34C724.278 315.304 727.131 314.96 733.719 312.784C755.982 305.431 772.495 289.526 780.589 267.643C784.087 258.183 785.201 236.969 782.69 227.622C775.776 201.882 760.529 184.842 736.032 175.476C729.94 173.147 727.356 172.783 714.622 172.466C702.825 172.173 698.916 172.447 693.534 173.946ZM163.321 178.697C163.321 179.353 168.26 189.233 182.029 216.119C186.961 225.747 193.343 238.24 196.212 243.88C199.083 249.52 202.039 254.136 202.782 254.136C203.925 254.136 216.178 238.633 216.235 237.116C216.245 236.835 214.793 234.948 213.008 232.922C211.223 230.896 199.66 217.731 187.313 203.667C167.086 180.628 163.321 176.708 163.321 178.697ZM246.524 203.353C232.375 221.758 222.3 235.797 222.286 237.127C222.277 237.952 224.189 240.654 226.535 243.13C228.88 245.606 235.496 253.035 241.236 259.639C257.386 278.217 256.477 277.368 259.44 276.624C260.874 276.263 262.706 275.22 263.51 274.307C265.611 271.918 287.868 228.882 293.424 216.465C295.269 212.341 295.451 212.448 274.181 205.162C271.159 204.126 264.867 201.893 260.198 200.197C255.529 198.502 251.623 197.113 251.517 197.11C251.412 197.107 249.165 199.917 246.524 203.353ZM212.259 249.133C209.238 253.492 206.428 257.075 206.017 257.097C203.88 257.212 206.043 263.305 213.149 277.187C217.484 285.656 221.474 292.733 222.016 292.913C222.557 293.094 225.64 292.036 228.865 290.563C232.091 289.09 237.652 286.544 241.222 284.906C244.793 283.267 248.758 281.527 250.034 281.035C251.328 280.538 252.211 279.479 252.032 278.64C251.568 276.481 220.326 241.121 218.924 241.169C218.279 241.191 215.28 244.775 212.259 249.133ZM476.54 245.944C476.258 246.401 477.015 247.61 478.223 248.631C479.431 249.653 484.033 253.672 488.45 257.565C492.866 261.457 499.345 267.118 502.847 270.144C506.348 273.171 509.706 276.098 510.309 276.648C510.912 277.198 514.995 280.796 519.383 284.643C523.77 288.49 527.584 291.87 527.859 292.153C528.134 292.437 531.28 295.14 534.85 298.159C538.421 301.179 541.567 303.882 541.841 304.166C542.116 304.449 545.93 307.829 550.318 311.676C554.705 315.523 558.898 319.236 559.634 319.928C560.371 320.619 561.742 321.597 562.682 322.101C564.517 323.085 564.585 323.035 578.695 310.322C582.758 306.659 587.028 302.839 588.182 301.833C594.653 296.192 599.759 290.873 599.696 289.837C599.656 289.187 593.473 278.974 585.955 267.143L572.287 245.631L524.67 245.371C498.481 245.229 476.823 245.486 476.54 245.944ZM60.6292 256.656C43.0544 260.95 27.5461 271.037 17.4309 284.753C7.76018 297.868 2.84541 314.564 3.80919 331.025C4.12079 336.337 4.80493 342.033 5.33126 343.684C5.85659 345.335 6.89128 348.711 7.63035 351.188C11.3786 363.751 21.9682 377.872 33.9849 386.334C44.2869 393.588 54.2642 397.367 67.9419 399.194C82.3217 401.118 97.3796 397.855 112.135 389.621C118.6 386.013 136.355 369.565 136.355 367.183C136.355 366.618 137.462 364.4 138.815 362.253C142.483 356.432 145.515 346.792 146.859 336.68C149.679 315.453 143.128 294.362 128.659 278.095C123.278 272.044 107.914 261.717 101.355 259.741C85.0922 254.842 72.0876 253.857 60.6292 256.656ZM197.029 269.407C194.969 272.289 192.235 275.998 190.953 277.648C182.491 288.543 159.326 319.992 159.326 320.585C159.326 321.509 162.413 320.528 169.313 317.41C172.335 316.045 176.155 314.346 177.803 313.634C182.518 311.598 192.029 307.266 201.273 302.947C205.942 300.766 211.448 298.297 213.507 297.461C215.766 296.545 217.228 295.289 217.19 294.298C217.107 292.112 203.014 264.886 201.756 264.482C201.216 264.309 199.089 266.525 197.029 269.407ZM244.718 287.27C239.774 289.509 233.146 292.518 229.987 293.958C226.515 295.54 224.266 297.185 224.3 298.117C224.38 300.332 236.614 323.402 237.7 323.385C238.198 323.377 241.132 318.485 244.22 312.516C247.308 306.546 251.755 297.967 254.104 293.453C260.259 281.626 259.004 280.798 244.718 287.27ZM255.768 297.909C253.271 302.725 248.64 311.741 245.476 317.947L239.724 329.229L248.011 345.573C254.083 357.548 256.965 362.22 258.794 363.055C262.35 364.679 263.503 364.491 265.622 361.944C266.653 360.705 270.461 356.32 274.085 352.197C277.708 348.075 281.85 343.348 283.289 341.692C284.728 340.036 288.01 336.276 290.582 333.336C293.154 330.396 295.108 327.537 294.923 326.983C294.259 324.985 262.666 289.294 261.502 289.225C260.844 289.187 258.265 293.095 255.768 297.909ZM597.271 298.29C595.074 300.416 587.805 306.996 581.117 312.914C574.43 318.832 568.671 324.347 568.32 325.172C567.911 326.13 568.884 327.751 571.022 329.674C578.476 336.376 589.516 346.118 593.267 349.304C595.459 351.166 598.128 353.477 599.198 354.44C600.268 355.402 601.396 356.189 601.704 356.188C602.272 356.187 610.844 342.758 614.595 335.995C615.719 333.968 617.778 330.501 619.169 328.293L621.7 324.276L612.666 309.799C607.696 301.835 603.099 295.119 602.448 294.873C601.798 294.626 599.468 296.163 597.271 298.29ZM213.757 301.154C208.371 303.741 185.999 313.946 179.55 316.755C177.765 317.534 174.843 318.806 173.059 319.585C159.483 325.5 158.064 326.34 159.449 327.631C160.205 328.337 165.094 330.352 170.312 332.111C175.531 333.87 180.58 335.73 181.534 336.245C182.488 336.759 183.955 337.18 184.794 337.18C185.633 337.18 187.1 337.591 188.054 338.092C189.007 338.594 192.035 339.755 194.781 340.671C197.528 341.588 200.674 342.729 201.772 343.208C202.871 343.685 208.173 345.526 213.555 347.298C221.976 350.069 223.533 350.321 224.71 349.103C225.463 348.323 228.193 343.494 230.776 338.371L235.472 329.055L228.034 314.358C223.943 306.274 219.956 299.564 219.174 299.447C218.392 299.33 215.954 300.098 213.757 301.154ZM560.318 331.826C558.67 333.249 553.277 338.112 548.333 342.633C543.389 347.154 536.873 353.013 533.851 355.654C530.83 358.297 525.886 362.767 522.865 365.591C519.844 368.414 513.334 374.32 508.399 378.716C503.463 383.111 498.933 387.157 498.33 387.707C484.062 400.762 479.461 404.856 478.313 405.517C477.549 405.957 476.924 406.97 476.924 407.768C476.924 409.015 483.437 409.219 523.21 409.219C566.045 409.219 569.61 409.088 571.024 407.468C572.599 405.663 581.856 390.862 583.072 388.203C583.634 386.973 589.046 378.113 598.835 362.395C600.551 359.638 601.684 360.802 571.021 333.82C568.119 331.265 565.198 329.19 564.529 329.208C563.86 329.225 561.966 330.404 560.318 331.826ZM159.326 333.26C159.326 334.33 161.727 337.504 172.127 350.187C175.06 353.764 177.986 357.366 178.631 358.192C192.068 375.409 203.718 389.155 204.334 388.52C205.101 387.727 206.876 384.431 216.721 365.503C219.353 360.445 221.248 355.633 220.933 354.81C220.617 353.987 218.874 352.879 217.058 352.347C215.242 351.817 208.589 349.501 202.272 347.201C195.955 344.9 188.314 342.194 185.293 341.185C182.272 340.178 175.336 337.739 169.881 335.766C158.533 331.661 159.326 331.849 159.326 333.26ZM236.949 334.842C236.011 336.399 230.883 345.668 229.636 348.06C228.954 349.367 228.612 350.998 228.875 351.684C229.138 352.371 232.81 354.167 237.036 355.676C246.017 358.884 250.211 359.783 250.211 358.5C250.211 357.481 239.396 336.172 238.203 334.842C237.791 334.381 237.226 334.381 236.949 334.842ZM384.041 339.664C379.372 340.373 373.961 341.451 372.017 342.058C362.099 345.154 348.248 353.872 342.043 360.922C335.125 368.784 333.799 370.61 330.653 376.6C321.226 394.549 319.596 414.536 325.91 434.733C331.271 451.882 346.11 468.254 363.567 476.283C374.307 481.221 381.534 482.758 394.029 482.758C406.523 482.758 413.751 481.221 424.49 476.283C449.907 464.594 465.937 439.362 465.937 411.047C465.937 395.66 459.958 377.355 451.735 367.573C450.483 366.083 448.184 363.372 446.626 361.548C437.603 350.985 418.896 341.291 404.515 339.727C401.219 339.369 397.175 338.917 395.527 338.724C393.879 338.531 388.71 338.953 384.041 339.664ZM703.137 339.609C685.331 342.028 671.05 349.538 658.68 362.986C654.842 367.159 651.702 370.947 651.702 371.406C651.702 371.864 650.595 373.995 649.242 376.142C642.523 386.807 639.12 405.672 641.243 420.496C641.97 425.575 643.092 431.306 643.735 433.232C651.812 457.415 669.012 473.376 695.646 481.403C701.552 483.183 721.378 483.161 729.104 481.365C736.742 479.592 748.648 474.013 755.071 469.199C774.876 454.355 785.734 431.3 784.19 407.37C783.002 388.94 776.739 374.266 764.435 361.082C753.925 349.819 737.281 341.333 722.612 339.757C719.042 339.373 715.222 338.908 714.123 338.723C713.024 338.538 708.081 338.937 703.137 339.609ZM220.268 366.365C217.354 372.05 213.235 379.967 211.116 383.958C208.998 387.949 207.267 391.777 207.271 392.463C207.279 394.34 220.22 410.219 221.742 410.219C222.469 410.219 225.753 407.18 229.041 403.466C252.315 377.166 256.203 372.519 256.203 371.008C256.203 367.689 251.759 364.38 243.719 361.712C239.325 360.256 234.998 358.673 234.104 358.196C233.21 357.718 230.924 357.036 229.024 356.679L225.568 356.028L220.268 366.365ZM255.773 378.452C253.659 380.991 241.016 395.441 240.233 396.212C239.254 397.175 226.699 411.736 225.464 413.339C224.245 414.923 229.612 422.23 250.361 447.234L254.005 451.627L260.847 448.818C264.61 447.273 269.594 445.16 271.922 444.123C274.251 443.085 276.431 442.237 276.765 442.237C277.1 442.237 278.791 441.624 280.521 440.877C282.252 440.128 284.905 439.012 286.415 438.396C287.925 437.78 289.162 436.616 289.162 435.808C289.162 435.001 283.013 422.272 275.499 407.522C267.984 392.772 261.356 379.694 260.767 378.46C259.413 375.618 258.133 375.616 255.773 378.452ZM200.135 404.967C198.147 408.681 192.924 418.699 188.529 427.228C184.134 435.758 177.712 448.14 174.256 454.743C165.304 471.853 163.47 475.691 163.983 476.23C164.622 476.9 173.277 467.505 191.176 446.712C196.793 440.184 207.944 427.528 211.426 423.727C213.442 421.525 216.052 418.496 217.227 416.995L219.361 414.266L212.654 406.239C208.966 401.825 205.454 398.213 204.848 398.213C204.244 398.213 202.123 401.253 200.135 404.967ZM215.755 424.094C209.681 431.17 190.059 453.548 189.318 454.243C189.025 454.518 187.255 456.544 185.385 458.745C183.514 460.947 178.747 466.349 174.792 470.752C163.352 483.485 161.324 485.953 161.324 487.143C161.324 487.758 161.63 488.261 162.005 488.261C162.602 488.261 179.375 481.653 184.794 479.281C185.892 478.801 191.51 476.55 197.278 474.279C203.046 472.008 208.775 469.723 210.012 469.2C212.665 468.078 213.562 467.717 227.24 462.247C233.008 459.941 238.626 457.693 239.724 457.251C245.819 454.801 249.212 453.062 249.212 452.388C249.212 451.97 248.131 450.302 246.808 448.683C245.486 447.063 239.524 439.695 233.561 432.31C227.598 424.924 222.275 418.745 221.733 418.579C221.192 418.413 218.501 420.894 215.755 424.094ZM66.9432 422.838C50.9884 425.093 36.319 432.345 25.1212 443.515C17.6496 450.967 14.8562 454.782 11.039 462.747C5.6149 474.068 4.02292 481.447 4.02292 495.265C4.02292 512.677 9.26827 527.53 20.0346 540.607C35.538 559.436 61.2274 569.715 84.2962 566.319C102.702 563.608 113.413 558.259 126.397 545.292C139.448 532.256 144.193 522.602 146.806 503.769C150.414 477.76 139.541 452.161 118.249 436.542C111.828 431.832 98.5301 425.227 95.468 425.227C94.2635 425.227 92.5207 424.821 91.5949 424.325C89.6763 423.296 71.4704 422.199 66.9432 422.838ZM380.879 507.225C374.533 508.392 364.512 512.002 359.073 515.082C354.721 517.545 342.636 526.994 340.587 529.534C333.295 538.578 326.126 550.73 326.118 554.06C326.116 554.756 325.713 556.106 325.224 557.062C323.648 560.134 322.12 570.708 322.12 578.543C322.12 603.41 334.229 625.611 354.947 638.726C368.346 647.208 378.904 650.348 394.029 650.348C416.819 650.348 437.673 639.997 451.753 621.698C470.236 597.678 470.579 561.045 452.553 536.287C447.032 528.703 447.24 528.924 439.97 522.956C426.278 511.714 414.53 507.275 397.025 506.728C390.708 506.531 383.442 506.755 380.879 507.225Z" fill="url(#paint0_linear_232_11)"/>
</g>
<defs>
<linearGradient id="paint0_linear_232_11" x1="26.4937" y1="607.325" x2="695.9" y2="156.201" gradientUnits="userSpaceOnUse">
<stop stop-color="#97FF58"/>
<stop offset="1" stop-color="#7EFFF0"/>
</linearGradient>
<clipPath id="clip0_232_11">
<rect width="236" height="654" fill="white"/>
</clipPath>
</defs>
</svg>
