<svg width="263" height="654" viewBox="0 0 263 654" fill="none" xmlns="http://www.w3.org/2000/svg">
<g clip-path="url(#clip0_232_13)">
<path fill-rule="evenodd" clip-rule="evenodd" d="M145.879 1.05774C135.704 3.26392 131.656 4.47857 126.623 6.83483C105.449 16.7481 91.4982 33.8382 84.0181 59.0317C83.1906 61.8192 82.6811 68.4878 82.6811 76.5411C82.6811 84.5944 83.1906 91.263 84.0181 94.0505C87.9038 107.138 94.1317 119.221 100.52 126.067C104.64 130.484 104.327 130.958 92.3049 138.529C87.2836 141.692 83.1748 144.897 83.1748 145.654C83.1748 146.41 85.1873 147.958 87.648 149.094L92.1213 151.158L84.4881 165.878C80.2904 173.973 74.7931 184.649 72.2711 189.601C69.0125 196.002 67.0968 198.695 65.6482 198.913C64.1897 199.133 63.2417 200.486 62.3145 203.666C61.5462 206.303 60.4314 208.111 59.5742 208.111C58.3755 208.111 47.2121 204.513 41.7011 202.351C40.8864 202.031 36.2206 200.381 31.3326 198.683C26.4446 196.986 21.607 195.096 20.583 194.484C18.8875 193.471 21.059 190.207 44.7049 158.219C58.9966 138.884 71.2432 123.066 71.9186 123.066C72.595 123.066 74.4693 124.191 76.0828 125.567C77.6963 126.943 79.45 128.068 79.9793 128.068C81.8822 128.068 84.7113 104.279 83.0138 102.559C82.6652 102.205 81.5583 102.36 80.555 102.902C79.5518 103.444 77.1759 104.562 75.275 105.387C63.7305 110.397 60.463 112.052 60.463 112.886C60.463 113.402 62.1298 115.08 64.166 116.615C66.2032 118.151 68.0221 119.523 68.2087 119.663C68.7814 120.094 15.9123 191.209 14.6562 191.697C13.3498 192.206 7.24425 190.297 -9.64741 184.098C-15.8932 181.806 -23.4473 179.097 -26.4344 178.076C-40.7438 173.188 -54.2663 168.239 -54.8034 167.694C-55.1313 167.361 -56.3478 167.089 -57.5071 167.089C-58.6654 167.089 -60.0361 166.731 -60.5515 166.294C-61.068 165.857 -64.1558 164.654 -67.4144 163.621C-72.9146 161.878 -76.7717 159.63 -75.7487 158.765C-74.6644 157.846 59.5575 90.0483 60.2902 90.0483C60.7454 90.0483 61.7279 91.287 62.4754 92.7998C65.0271 97.9686 68.3628 100.856 68.3628 97.8965C68.3628 97.2612 69.4737 95.2651 70.8314 93.4611C72.1892 91.6572 73.3001 89.9072 73.3001 89.5721C73.3001 89.2369 75.0963 86.4984 77.2924 83.4868C80.0139 79.7538 80.8779 77.8708 80.008 77.5676C75.3906 75.9628 54.5382 74.3419 54.5382 75.5886C54.5382 75.8907 55.4269 78.0009 56.5131 80.2791C57.5993 82.5573 58.488 84.9006 58.488 85.4869C58.488 86.5134 -79.7252 157.084 -81.7347 157.084C-82.2768 157.084 -82.736 155.396 -82.7558 153.332C-82.815 146.948 -86.1477 134.907 -90.0117 127.111C-98.9582 109.064 -114.266 94.8219 -131.106 88.8747C-142.099 84.9936 -144.756 84.5454 -156.78 84.5454C-171.67 84.5454 -178.107 85.9181 -189.861 91.6011C-207.321 100.044 -219.437 113.396 -227.945 133.571C-233.915 147.727 -233.799 173.08 -227.702 187.1C-224.4 194.69 -223.008 197.259 -218.589 203.911C-208.995 218.354 -194.488 228.727 -176.62 233.921C-172.83 235.023 -166.919 235.542 -157.768 235.576C-144.647 235.625 -142.297 235.248 -131.106 231.297C-107.941 223.116 -88.5394 199.633 -83.6405 173.843C-82.9355 170.128 -82.0566 167.089 -81.6873 167.089C-81.319 167.089 -76.902 175.306 -71.8719 185.349C-66.8417 195.391 -58.3949 212.163 -53.1001 222.619C-36.0395 256.309 -35.1745 258.129 -35.4974 259.661C-35.9418 261.769 -80.691 322.172 -81.8088 322.172C-82.3104 322.172 -82.736 320.934 -82.7558 319.421C-82.8032 315.68 -84.9874 306.922 -87.6842 299.66C-92.0765 287.832 -103.127 273.182 -113.293 265.71C-134.555 250.084 -164.585 246.897 -188.096 257.773C-208.437 267.182 -223.901 285.638 -230.32 308.166C-232.878 317.139 -232.905 337.041 -230.373 346.185C-223.5 370.999 -206.201 390.301 -182.948 399.099C-170.567 403.784 -151.248 404.719 -138.835 401.234C-125.809 397.577 -114.673 391.205 -105.325 382.061C-101.671 378.486 -95.7696 371.01 -93.9873 367.697C-93.3958 366.596 -91.8069 363.669 -90.458 361.193C-86.8923 354.647 -82.7202 340.996 -82.7202 335.873C-82.7202 331.303 -81.0316 332.03 -75.6489 338.913C-72.7497 342.622 -61.8184 356.393 -51.3591 369.515L-32.3405 393.372L-37.1653 402.546C-39.8196 407.592 -45.22 418.024 -49.168 425.728C-53.1159 433.432 -59.016 444.913 -62.2796 451.241C-65.5432 457.57 -71.1174 468.493 -74.6674 475.514C-78.2164 482.535 -81.4098 487.938 -81.7614 487.521C-82.1139 487.103 -82.9661 484.059 -83.6544 480.757C-92.0064 440.714 -127.77 414.061 -166.408 419.085C-175.662 420.288 -178.991 421.218 -187.172 424.89C-190.038 426.176 -192.648 427.228 -192.971 427.228C-193.295 427.228 -196.282 429.205 -199.61 431.62C-214.519 442.441 -223.593 455.089 -229.477 473.253C-231.973 480.959 -232.223 483.026 -232.133 495.265C-232.042 507.539 -231.76 509.581 -229.042 517.632C-219.967 544.501 -199.779 563.01 -172.58 569.399C-165.562 571.047 -148.92 571.034 -141.968 569.376C-124.433 565.19 -107.726 554.296 -97.3614 540.289C-89.986 530.322 -82.7202 511.3 -82.7202 501.961C-82.7202 497.485 -81.6241 496.776 -77.5469 498.612C-75.7753 499.41 -68.55 502.399 -61.4896 505.253C-54.4292 508.109 -47.7638 510.822 -46.6775 511.283C-45.5913 511.745 -40.0368 513.98 -34.3342 516.251C-28.6315 518.521 -22.8548 520.868 -21.4971 521.463C-16.9893 523.442 -15.1575 524.186 -4.71006 528.283C0.992578 530.519 6.5471 532.745 7.63332 533.231C8.71953 533.716 15.385 536.443 22.4454 539.288C29.5058 542.134 36.1712 544.836 37.2574 545.294C38.3437 545.751 43.3886 547.822 48.4672 549.895C58.0239 553.797 59.6019 555.261 57.6566 558.418C57.0276 559.438 56.5131 561.455 56.5131 562.901C56.5131 565.329 56.758 565.481 59.7224 564.898C61.488 564.55 66.4006 563.889 70.6408 563.426C79.6574 562.445 81.3094 561.366 79.1953 557.838C76.3859 553.152 66.2565 541.29 65.0636 541.29C64.4 541.29 63.2664 543.316 62.5445 545.792C61.1157 550.696 60.8856 550.831 56.8064 549.169C51.6291 547.061 50.0916 546.443 39.7261 542.315C34.0235 540.045 28.2468 537.699 26.889 537.103C24.1507 535.901 24.5842 536.077 10.102 530.309C4.39935 528.038 -1.15517 525.791 -2.24139 525.316C-3.3276 524.841 -9.99303 522.123 -17.0534 519.278C-24.1139 516.432 -30.7793 513.731 -31.8655 513.275C-32.9517 512.818 -39.6171 510.117 -46.6775 507.271C-72.3617 496.919 -75.1759 495.686 -75.5206 494.639C-75.6944 494.109 -74.1638 493.082 -72.1197 492.354C-70.0747 491.627 -66.8466 490.363 -64.9457 489.545C-63.0449 488.726 -60.6009 487.676 -59.5147 487.21C-58.4284 486.743 -52.8739 484.503 -47.1713 482.233C-41.4686 479.962 -35.9141 477.727 -34.8279 477.265C-33.7417 476.804 -27.0763 474.098 -20.0159 471.252C-12.9554 468.407 -6.29002 465.689 -5.2038 465.214C-0.220036 463.033 16.7082 456.244 17.1624 456.244C17.4409 456.244 22.7406 462.66 28.939 470.502C35.1373 478.343 40.6553 485.248 41.2014 485.845C46.2888 491.409 67.3753 518.843 67.3753 519.897C67.3753 520.53 66.2802 521.776 64.9411 522.665C63.6031 523.553 62.0281 525.188 61.4425 526.297C60.5775 527.934 60.7098 528.424 62.1486 528.905C63.1222 529.231 65.2522 530.073 66.8815 530.776C68.5109 531.479 71.6214 532.648 73.7938 533.374C75.9663 534.101 78.1654 535.052 78.6818 535.49C79.1973 535.929 80.9115 536.287 82.4905 536.287C84.8347 536.287 85.2317 535.966 84.657 534.536C84.2689 533.573 83.6103 529.858 83.1935 526.281C82.3631 519.165 80.4602 511.273 79.5755 511.273C79.2674 511.273 77.3507 512.609 75.3155 514.243C71.0447 517.67 70.867 517.595 64.8226 509.773C62.6966 507.021 60.7266 504.545 60.4452 504.27C60.1638 503.995 53.7205 495.895 46.1269 486.27C38.5332 476.646 31.5795 467.866 30.6749 466.76C23.3696 457.826 21.9516 455.958 21.9516 455.263C21.9516 454.557 25.628 452.615 31.3326 450.307C32.4188 449.868 34.4185 449.038 35.7762 448.464C52.1366 441.544 55.2086 440.531 56.5694 441.609C58.5255 443.157 83.1748 492.67 83.1748 495.049C83.1748 496.313 81.8348 497.574 79.2249 498.767C77.0525 499.759 75.275 500.931 75.275 501.369C75.275 502.213 81.4536 507.271 82.4836 507.271C82.8154 507.271 85.6247 509.072 88.7253 511.273C95.6781 516.208 96.9994 516.312 96.9994 511.928C96.9994 510.086 97.2877 504.458 97.6412 499.421C98.214 491.243 98.1044 490.262 96.6192 490.262C95.7038 490.262 93.8809 490.975 92.5696 491.846C91.2572 492.718 89.384 493.171 88.4074 492.855C87.3093 492.498 82.5319 484.084 75.9011 470.83L65.1722 449.381L68.2442 445.558C77.3033 434.284 81.1218 428.91 80.637 428.115C80.3398 427.628 78.8556 427.228 77.3389 427.228C75.8231 427.228 73.2942 426.816 71.7192 426.312C70.1451 425.808 66.0797 425.138 62.6848 424.826L56.5131 424.258V427.244C56.5131 428.886 56.0687 430.23 55.5256 430.23C54.9825 430.23 54.5382 429.42 54.5382 428.429C54.5382 427.439 54.1274 426.201 53.6257 425.678C53.1231 425.155 48.8563 417.073 44.1431 407.718C39.4299 398.363 33.587 386.779 31.1588 381.974C26.3854 372.532 26.0773 368.543 30.195 369.491C33.352 370.218 57.6694 379.041 58.3123 379.692C58.6174 380.001 58.337 381.737 57.6902 383.551C56.3215 387.385 56.1487 391.209 57.3435 391.209C57.8007 391.209 60.3553 390.539 63.0215 389.719C65.6877 388.9 69.2594 388.225 70.9578 388.219C72.6563 388.213 75.7016 387.506 77.7259 386.65C81.0221 385.254 81.2601 384.917 80.0178 383.398C74.9837 377.251 71.577 373.201 68.5662 369.785C65.2651 366.04 65.0547 365.954 63.7147 367.784C62.9455 368.836 62.0637 370.945 61.7556 372.47C61.4475 373.995 60.9073 375.423 60.5548 375.643C59.8379 376.093 49.9188 372.854 48.9234 371.846C48.5719 371.49 47.3217 371.199 46.1447 371.199C44.9676 371.199 43.7046 370.893 43.3373 370.521C42.9689 370.149 40.5625 369.135 37.9882 368.27C34.9951 367.263 33.3076 366.117 33.3076 365.09C33.3076 363.711 39.9651 355.729 58.1306 335.333C62.8487 330.035 62.3866 329.882 70.5806 339.466L75.7105 345.465L72.0361 348.682C70.0157 350.452 68.3628 352.354 68.3628 352.909C68.3628 353.886 72.5565 355.705 80.7061 358.261C82.8786 358.942 86.156 360.154 87.9887 360.953C92.4432 362.895 93.1522 361.551 91.4774 354.343C90.7546 351.232 89.6259 346.077 88.9693 342.886C88.3116 339.697 87.3676 336.832 86.8709 336.521C86.3732 336.21 84.5395 337.356 82.7956 339.069C81.0517 340.781 79.1439 342.183 78.5574 342.183C77.9698 342.183 75.3264 339.595 72.6809 336.43C70.0365 333.265 67.5392 330.527 67.1304 330.344C66.7216 330.16 66.3878 329.034 66.3878 327.84C66.3878 325.382 76.0462 313.329 78.0952 313.232C78.8309 313.196 80.7752 314.312 82.4164 315.71C84.0566 317.109 85.8735 318.092 86.4542 317.896C87.732 317.465 89.0443 313.397 90.0762 306.664C90.4979 303.913 91.2918 300.259 91.8399 298.544C93.7694 292.504 91.1318 292.239 78.7312 297.226C77.645 297.662 75.0963 298.535 73.067 299.163C71.0378 299.792 69.0816 300.792 68.7192 301.385C68.3578 301.979 69.7363 303.976 71.7843 305.822C75.9919 309.615 76.3267 308.51 67.9539 318.446C65.2759 321.625 62.7588 324.101 62.3599 323.949C61.962 323.797 59.0914 320.747 55.9818 317.17C52.8723 313.593 48.72 308.854 46.7549 306.638C43.5259 302.998 32.6608 290.293 29.02 285.901C26.5898 282.969 30.0864 277.717 36.2305 275.07C41.2745 272.896 48.8316 269.473 56.0194 266.107C59.9495 264.266 59.9771 264.267 61.6529 266.451C62.5791 267.657 63.4678 269.539 63.6278 270.635C64.2756 275.064 67.0622 273.153 73.6131 263.79C77.2431 258.601 80.2124 253.902 80.2124 253.346C80.2124 252.298 76.1924 251.633 63.1785 250.527C54.7337 249.81 54.2735 250.18 57.0128 255.501C59.7105 260.742 59.6009 260.844 43.676 267.831C41.7751 268.666 39.2205 269.828 38 270.415C36.7785 271.002 35.5313 271.231 35.2292 270.925C34.927 270.618 36.6452 266.603 39.0467 262.001C41.4492 257.401 46.6305 247.332 50.5606 239.628C54.4917 231.924 58.0861 225.148 58.5483 224.57C59.4824 223.403 66.4303 221.566 73.4137 220.64C75.9199 220.308 78.8082 219.378 79.8322 218.576C81.4694 217.292 81.5149 216.965 80.2124 215.865C79.3977 215.178 76.6417 212 74.0871 208.804L69.443 202.994L76.4709 189.293C80.3358 181.759 85.679 171.317 88.3452 166.089C95.4323 152.189 95.0521 152.57 99.391 155.039C105.598 158.572 105.638 158.499 105.108 144.577C104.847 137.699 104.972 132.071 105.387 132.071C105.802 132.071 107.801 133.59 109.831 135.448C117.556 142.519 130.821 148.745 144.091 151.525C156.629 154.152 169.643 152.993 182.955 148.062C197.148 142.806 211.842 130.876 219.905 118.063C225.304 109.484 231.207 94.5017 231.364 88.9767C231.589 81.1546 232.638 82.2962 248.084 107.151C256.43 120.582 263.742 132.471 264.331 133.571C264.921 134.672 266.692 137.599 268.266 140.075C269.841 142.551 272.237 146.378 273.59 148.579C274.944 150.781 277.311 154.457 278.853 156.747C280.395 159.038 281.656 161.247 281.656 161.655C281.656 162.064 282.767 163.874 284.125 165.678C285.483 167.482 286.594 169.197 286.594 169.491C286.594 170.406 296.874 186.582 297.68 186.933C298.1 187.117 298.443 187.658 298.443 188.137C298.443 188.614 305.553 200.446 314.243 214.43C322.933 228.413 330.042 240.371 330.042 241.001C330.042 241.851 317.468 242.081 281.423 241.888L232.803 241.629L232.065 236.126C227.343 200.994 204.041 175.618 170.072 168.617C160.705 166.687 153.765 166.687 144.398 168.617C113.994 174.883 93.4119 194.484 84.0181 226.121C82.213 232.2 82.2298 255.144 84.0438 261.14C90.1621 281.364 98.9882 294.921 112.799 305.311C128.856 317.393 151.811 322.673 170.809 318.657C192.233 314.128 208.78 302.894 219.78 285.409C226.674 274.452 229.529 266.718 231.629 253.318L232.777 245.998L241.664 253.709C246.552 257.95 253.439 264.004 256.97 267.162C268.087 277.105 282.001 289.45 288.527 295.158C291.988 298.184 295.307 301.111 295.904 301.661C296.5 302.212 300.533 305.814 304.866 309.666C322.17 325.05 322.143 325.024 322.143 326.056C322.143 326.463 319.143 329.406 315.477 332.596C311.812 335.787 306.368 340.712 303.381 343.542C300.394 346.371 293.95 352.282 289.062 356.678C284.174 361.073 277.731 366.979 274.744 369.803C271.757 372.626 266.869 377.081 263.882 379.703C260.895 382.325 256.007 386.785 253.02 389.614C244.883 397.322 233.665 407.218 233.066 407.218C232.775 407.218 232.232 404.89 231.86 402.045C230.646 392.771 228.465 385.871 223.691 376.201C219.73 368.18 217.529 365.212 209.594 357.191C201.884 349.398 198.678 346.937 191.797 343.525C178.193 336.78 171.564 335.179 157.235 335.179C142.906 335.179 136.277 336.78 122.674 343.525C115.803 346.931 112.57 349.411 104.857 357.191C96.4888 365.631 94.8684 367.874 90.4051 377.202C84.0813 390.416 82.6801 396.68 82.685 411.72C82.689 422.469 83.633 429.158 86.076 435.733C90.0723 446.488 99.3624 460.733 107.014 467.837C122.116 481.859 145.461 489.192 166.369 486.481C188.617 483.597 207.08 472.087 218.853 453.764C227.504 440.298 229.304 435.577 231.534 420.475L232.606 413.221H280.83C307.353 413.221 329.055 413.432 329.055 413.69C329.055 413.948 327.055 417.291 324.611 421.119C322.167 424.947 320.168 428.368 320.168 428.721C320.168 429.074 319.057 430.838 317.699 432.642C316.341 434.446 315.23 436.19 315.23 436.517C315.23 436.845 312.564 441.445 309.305 446.739C306.047 452.033 303.381 456.575 303.381 456.833C303.381 457.09 300.715 461.59 297.456 466.831C294.197 472.071 291.531 476.591 291.531 476.874C291.531 477.157 290.42 478.864 289.062 480.668C287.705 482.472 286.594 484.256 286.594 484.632C286.594 485.008 283.928 489.605 280.669 494.846C277.41 500.086 274.744 504.579 274.744 504.83C274.744 505.08 271.411 510.681 267.338 517.277C263.265 523.872 259.932 529.473 259.932 529.723C259.932 529.974 257.266 534.467 254.007 539.708C250.749 544.948 248.082 549.545 248.082 549.921C248.082 550.297 246.971 552.081 245.614 553.885C244.256 555.689 243.145 557.405 243.145 557.698C243.145 557.992 240.821 561.94 237.982 566.471L232.82 574.71L232.065 570.256C229.801 556.915 229.232 555.089 223.894 544.082C219.37 534.752 217.859 532.655 209.589 524.218C187.561 501.748 155.074 495.87 125.676 509.035C116.638 513.083 103.22 524.323 96.3802 533.576C94.4527 536.185 87.7705 549.307 86.0849 553.796C81.3697 566.349 81.3549 589.775 86.0533 602.822C89.937 613.603 98.1764 626.39 106.19 634.068C121.542 648.78 139.523 655.153 162.308 653.96C168.085 653.657 173.862 653.002 175.145 652.505C176.429 652.008 179.922 650.789 182.909 649.798C208.259 641.382 228.779 614.992 231.885 586.814C232.676 579.637 230.793 581.686 259.438 556.832C284.658 534.95 292.43 528.174 293.916 526.772C294.505 526.215 301.208 520.377 308.812 513.798C316.415 507.218 322.859 501.592 323.13 501.295C323.402 500.998 326.507 498.281 330.032 495.259C335.666 490.426 340.727 485.978 344.252 482.758C344.855 482.208 348.232 479.281 351.757 476.255C355.281 473.228 359.503 469.573 361.138 468.133C372.836 457.83 380.681 451.244 381.235 451.262C381.592 451.274 383.151 453.097 384.7 455.315C386.247 457.532 387.999 459.182 388.59 458.981C389.183 458.781 391.027 454.742 392.688 450.006C394.349 445.269 396.042 441.058 396.45 440.648C396.858 440.237 397.19 438.385 397.19 436.532V433.163L392.006 433.723C378.833 435.147 373.491 436.494 373.491 438.394C373.491 439.407 373.835 440.235 374.254 440.235C375.464 440.235 378.714 446.962 378.039 448.069C377.704 448.618 366.656 458.437 353.489 469.889C340.322 481.34 329.326 490.957 329.055 491.258C328.396 491.988 302.33 514.746 296.569 519.621C294.07 521.735 290.687 524.662 289.052 526.124C287.417 527.586 283.201 531.259 279.681 534.286C274.037 539.14 268.9 543.662 265.472 546.792C264.868 547.343 261.487 550.268 257.957 553.293C254.427 556.318 249.983 560.252 248.082 562.036C243.341 566.484 243.075 564.015 247.536 556.949C249.466 553.892 251.045 551.183 251.045 550.93C251.045 550.676 254.822 544.324 259.438 536.816C264.055 529.307 267.832 522.993 267.832 522.783C267.832 522.571 270.498 518.068 273.757 512.774C277.015 507.48 279.681 502.977 279.681 502.766C279.681 502.556 283.458 496.241 288.075 488.732C292.691 481.224 296.468 474.882 296.468 474.639C296.468 474.396 299.047 470.044 302.199 464.97C305.35 459.896 308.236 455.068 308.611 454.243C308.987 453.418 314.567 443.962 321.012 433.232L332.729 413.721L353.11 413.451L373.491 413.18V418.145C373.491 420.874 373.948 423.394 374.508 423.745C375.067 424.095 379.759 421.871 384.932 418.801C390.106 415.732 394.92 413.221 395.629 413.221C396.485 413.221 397.138 415.328 397.567 419.474C398.548 428.976 399.351 433.68 400.084 434.232C400.449 434.507 401.569 436.984 402.573 439.735C406.548 450.632 417.324 464.74 427.532 472.407C433.45 476.852 444.362 482.205 452.982 484.891C461.297 487.483 481.974 487.447 491 484.824C517.571 477.107 536.75 457.501 544.892 429.73C547.311 421.48 547.351 401.118 544.964 392.71C543.291 386.814 542.679 385.196 539.495 378.224C531.368 360.436 513.942 344.552 496.431 338.972C484.26 335.094 466.586 333.917 456.699 336.326C438.36 340.794 423.485 350.268 412.942 364.195C403.799 376.272 397.19 393.148 397.19 404.415C397.19 406.874 396.935 409.144 396.623 409.46C396.311 409.776 391.575 407.355 386.097 404.078C380.621 400.801 375.569 398.343 374.872 398.614C374.149 398.895 373.473 401.173 373.3 403.913L372.997 408.719L354.976 408.992C337.633 409.254 336.955 409.19 336.955 407.3C336.955 406.219 337.371 405.075 337.88 404.755C338.388 404.437 339.436 402.948 340.208 401.445C341.578 398.779 356.63 373.451 361.325 365.913C363.404 362.575 363.893 362.279 365.459 363.411C369.536 366.358 379.416 375.765 379.41 376.695C379.406 377.249 378.073 378.469 376.448 379.406C374.821 380.343 373.491 381.511 373.491 381.999C373.491 382.489 376.269 383.664 379.663 384.612C383.058 385.56 387.199 386.757 388.867 387.272C392.516 388.398 396.216 388.492 396.167 387.457C396.119 386.411 393.583 376.077 392.853 373.95C392.524 372.987 392.04 371.511 391.78 370.67C391.387 369.404 390.638 369.59 387.404 371.759C384.848 373.473 383.016 374.086 382.098 373.538C377.965 371.066 366.701 360.45 366.645 358.972C366.574 357.119 367.882 354.565 374.478 343.684C376.812 339.832 379.686 334.946 380.865 332.826C382.044 330.707 383.422 328.906 383.928 328.824C385.246 328.612 395.288 344.389 394.979 346.185C394.836 347.011 393.276 348.33 391.511 349.117C389.747 349.904 388.335 351.255 388.372 352.118C388.438 353.617 407.528 364.128 408.383 363.136C409.392 361.967 409.888 343.215 408.926 342.612C408.354 342.253 406.425 342.756 404.641 343.729C402.857 344.702 400.744 345.245 399.944 344.933C397.842 344.116 387.313 326.564 387.333 323.911C387.343 322.68 389.559 318.182 392.258 313.918C396.19 307.703 397.646 306.164 399.588 306.164C400.921 306.164 402.286 306.614 402.621 307.164C402.957 307.715 404.094 308.165 405.148 308.165C406.912 308.165 407.065 307.401 407.065 298.629C407.065 291.319 406.738 288.965 405.665 288.547C404.895 288.248 401.672 289.471 398.506 291.266C395.338 293.061 391.568 295.132 390.128 295.868C386.118 297.919 385.508 301.161 389.131 301.161C389.947 301.161 391.38 301.861 392.314 302.718C393.906 304.178 393.766 304.706 390.059 311.193C387.885 314.998 385.538 318.589 384.843 319.174C383.871 319.991 381.903 317.516 376.313 308.447C364.837 289.831 365.298 291.746 371.057 286.605C373.754 284.198 376.475 282.211 377.106 282.189C377.737 282.168 379.374 283.502 380.746 285.152C383.863 288.907 386.112 288.999 386.871 285.403C387.191 283.89 387.908 281.526 388.465 280.15C390.275 275.678 392.095 269.701 392.425 267.143C392.842 263.908 389.941 263.388 383.632 265.566C381.12 266.433 377.831 267.143 376.324 267.143C373.208 267.143 368.554 269.042 368.554 270.315C368.554 270.781 369.898 272.589 371.541 274.331C373.184 276.073 374.378 277.956 374.193 278.515C374.009 279.075 371.739 281.353 369.148 283.579L364.438 287.624L361.609 284.137C360.053 282.219 358.211 279.524 357.515 278.149C356.82 276.773 355.242 274.255 354.008 272.552C352.776 270.849 351.767 269.09 351.767 268.644C351.767 268.197 350.656 266.356 349.298 264.552C347.94 262.749 346.829 260.948 346.829 260.55C346.829 260.153 345.718 258.352 344.361 256.548C343.003 254.744 341.892 252.97 341.892 252.606C341.892 252.242 340.972 250.634 339.847 249.033C338.242 246.749 338.09 246.012 339.144 245.601C339.882 245.314 347.802 245.204 356.742 245.355L372.997 245.631L373.303 250.634C373.471 253.385 373.976 256.013 374.424 256.472C374.873 256.931 377.059 256.144 379.283 254.721C381.506 253.298 383.779 252.135 384.333 252.135C384.887 252.135 385.341 251.685 385.341 251.134C385.341 250.584 385.794 250.134 386.348 250.134C386.902 250.134 389.141 248.992 391.322 247.596C393.504 246.201 395.717 245.327 396.239 245.654C396.763 245.982 397.19 248.085 397.19 250.327C397.19 260.278 403.594 277.472 411.454 288.625C422.84 304.781 438.654 314.661 460.217 319.091C474.362 321.996 496.1 318.094 508.014 310.51C510.04 309.22 511.992 308.165 512.351 308.165C513.201 308.165 523.408 299.448 526.38 296.183C553.582 266.309 553.738 221.288 526.742 191.949C518.13 182.589 508.115 175.954 495.444 171.216C490.741 169.457 477.143 167.089 471.744 167.09C458.452 167.092 438.888 173.712 427.802 181.959C423.304 185.305 415.011 193.666 411.784 198.106C403.961 208.872 397.19 227.146 397.19 237.493C397.19 240.043 396.762 242.129 396.237 242.129C395.32 242.129 386.87 237.656 384.847 236.099C382.381 234.201 376.255 231.124 374.943 231.124C373.842 231.124 373.491 232.452 373.491 236.627V242.129L354.482 242.121L335.473 242.113L300.912 186.365C281.903 155.703 260.235 120.745 252.76 108.678C245.285 96.6118 239.383 86.5234 239.644 86.2583C240.054 85.8431 250.965 94.7198 260.426 103.164C262.055 104.618 268.498 110.204 274.744 115.577C280.99 120.95 288.544 127.471 291.531 130.07C294.518 132.668 302.072 139.189 308.318 144.562C314.564 149.935 321.007 155.52 322.636 156.974C324.266 158.429 331.153 164.32 337.942 170.066C344.731 175.812 350.508 180.771 350.779 181.085C351.051 181.399 355.494 185.227 360.654 189.591C365.813 193.956 371.063 198.611 372.319 199.937L374.602 202.346L372.319 204.976C371.063 206.421 369.702 207.756 369.294 207.941C367.29 208.853 368.965 211.138 372.257 211.981C378.263 213.521 387.62 215.339 390.278 215.482C392.448 215.599 392.713 215.251 392.473 212.614C392.2 209.618 391.984 208.962 388.934 201.824C388.043 199.742 387.316 197.222 387.316 196.226C387.316 195.229 386.471 193.64 385.439 192.694C383.644 191.047 383.448 191.127 380.878 194.54C377.735 198.716 376.85 198.87 373.348 195.854C371.911 194.616 368.412 191.602 365.574 189.157C362.736 186.712 359.911 184.234 359.299 183.65C358.687 183.066 355.741 180.571 352.754 178.104C349.767 175.638 347.101 173.387 346.829 173.101C346.558 172.814 343.447 170.109 339.917 167.089C336.387 164.07 333.276 161.357 333.005 161.063C332.733 160.768 328.29 156.942 323.13 152.56C317.971 148.177 312.416 143.407 310.787 141.957C309.157 140.508 302.714 134.927 296.468 129.554C290.223 124.181 282.668 117.66 279.681 115.061C276.694 112.463 269.14 105.942 262.894 100.569C256.649 95.1961 250.205 89.6031 248.576 88.1403C246.947 86.6775 242.672 83.0976 239.077 80.185L232.541 74.8902L231.878 68.2116C231.154 60.9097 230.338 57.8171 226.557 48.0258C219.724 30.3314 205.532 15.1172 188.34 7.05295C175.696 1.12277 157.456 -1.4526 145.879 1.05774ZM148.842 5.14092C132.649 6.44862 118.124 13.7045 105.737 26.6744C92.8234 40.1936 86.1372 57.2057 86.1372 76.5411C86.1372 108.766 106.366 136.101 137.486 145.927C139.387 146.527 144.608 147.432 149.088 147.938C157.524 148.891 170.582 147.949 176.984 145.927C217.956 132.99 238.506 90.2694 223.358 49.5266C215.876 29.4029 196.847 12.3678 175.47 6.65473C168.435 4.77473 159.593 4.27246 148.842 5.14092ZM-171.099 89.1949C-191.56 94.0665 -205.106 103.132 -216.478 119.564C-232.735 143.055 -232.735 177.116 -216.478 200.607C-206.995 214.31 -196.48 222.313 -178.999 229.132C-168.504 233.226 -146.172 232.953 -134.562 228.588C-118.907 222.704 -106.924 213.199 -97.9717 199.568C-95.0142 195.064 -92.5949 190.717 -92.5949 189.907C-92.5949 189.097 -92.2691 188.104 -91.8711 187.7C-90.5291 186.342 -88.572 178.653 -87.2616 169.591C-85.5078 157.464 -87.2695 142.985 -91.8277 132.071C-98.3568 116.434 -110.892 102.963 -125.675 95.6943C-134.351 91.4291 -135.132 91.1459 -142.956 89.444C-150.115 87.8862 -165.048 87.7541 -171.099 89.1949ZM-74.8205 165.573C-74.8205 166.139 -57.2919 187.067 -55.1135 189.101C-54.8183 189.376 -51.4668 193.201 -47.665 197.602C-43.8633 202.002 -39.9321 206.504 -38.9299 207.607C-37.9266 208.71 -32.6189 214.919 -27.1355 221.404C-21.6511 227.89 -16.6278 233.068 -15.9732 232.911C-15.3185 232.753 -9.96241 226.096 -4.07117 218.117C1.81909 210.137 7.41311 202.741 8.35911 201.682C10.5296 199.25 11.5397 196.116 10.4466 195.204C9.98547 194.82 5.83118 193.258 1.21476 191.733C-3.40167 190.208 -8.06746 188.553 -9.15368 188.056C-10.2399 187.558 -15.1279 185.813 -20.0159 184.178C-28.2523 181.424 -35.607 178.818 -61.4896 169.483C-74.1974 164.899 -74.8205 164.717 -74.8205 165.573ZM143.904 172.495C143.361 172.69 140.917 173.412 138.473 174.099C136.029 174.787 131.684 176.417 128.819 177.723C125.952 179.029 123.366 180.096 123.071 180.096C122.775 180.096 119.702 182.143 116.242 184.646C90.1957 203.478 79.9211 235.848 89.8985 267.643C96.5234 288.753 115.808 306.84 138.917 313.618C147.049 316.002 167.421 316.002 175.553 313.618C207.366 304.287 228.337 276.678 228.332 244.131C228.329 225.551 222.051 208.75 210.134 195.433C205.439 190.187 193.114 180.096 191.4 180.096C191.104 180.096 188.518 179.044 185.651 177.758C175.472 173.19 173.629 172.822 159.21 172.48C151.335 172.294 144.447 172.301 143.904 172.495ZM453.363 173.946C418.824 183.671 396.696 217.636 401.621 253.365C404.516 274.369 414.802 291.529 431.258 302.813C439.002 308.122 441.565 309.408 450.892 312.664C457.908 315.113 460.003 315.377 472.123 315.34C483.76 315.304 486.581 314.96 493.094 312.784C515.106 305.431 531.433 289.526 539.435 267.643C542.895 258.183 543.996 236.969 541.513 227.622C534.677 201.882 519.602 184.842 495.381 175.476C489.358 173.147 486.803 172.783 474.213 172.466C462.549 172.173 458.684 172.447 453.363 173.946ZM-70.8706 178.697C-70.8706 179.353 -65.9875 189.233 -52.3733 216.119C-47.4972 225.747 -41.1872 238.24 -38.3502 243.88C-35.5122 249.52 -32.5893 254.136 -31.8546 254.136C-30.725 254.136 -18.6097 238.633 -18.5534 237.116C-18.5435 236.835 -19.9793 234.948 -21.7439 232.922C-23.5085 230.896 -34.9415 217.731 -47.1496 203.667C-67.1478 180.628 -70.8706 176.708 -70.8706 178.697ZM11.3936 203.353C-2.5949 221.758 -12.5565 235.797 -12.5703 237.127C-12.5792 237.952 -10.6892 240.654 -8.36962 243.13C-6.05104 245.606 0.489962 253.035 6.16594 259.639C22.1333 278.217 21.2347 277.368 24.1646 276.624C25.5826 276.263 27.3936 275.22 28.1885 274.307C30.2661 271.918 52.2719 228.882 57.7652 216.465C59.5891 212.341 59.7688 212.448 38.7386 205.162C35.7515 204.126 29.5305 201.893 24.9141 200.197C20.2976 198.502 16.4356 197.113 16.331 197.11C16.2273 197.107 14.0055 199.917 11.3936 203.353ZM-22.4845 249.133C-25.4716 253.492 -28.2494 257.075 -28.6562 257.097C-30.7694 257.212 -28.6305 263.305 -21.6047 277.187C-17.3181 285.656 -13.3731 292.733 -12.8379 292.913C-12.3027 293.094 -9.2544 292.036 -6.06586 290.563C-2.87633 289.09 2.6219 286.544 6.15211 284.906C9.68232 283.267 13.6026 281.527 14.8646 281.035C16.1443 280.538 17.0172 279.479 16.8395 278.64C16.3813 276.481 -14.5087 241.121 -15.8951 241.169C-16.5321 241.191 -19.4974 244.775 -22.4845 249.133ZM238.816 245.944C238.537 246.401 239.286 247.61 240.48 248.631C241.675 249.653 246.224 253.672 250.591 257.565C254.958 261.457 261.364 267.118 264.826 270.144C268.288 273.171 271.608 276.098 272.204 276.648C272.801 277.198 276.837 280.796 281.175 284.643C285.513 288.49 289.285 291.87 289.556 292.153C289.828 292.437 292.938 295.14 296.468 298.159C299.999 301.179 303.109 303.882 303.381 304.166C303.652 304.449 307.423 307.829 311.761 311.676C316.099 315.523 320.245 319.236 320.972 319.928C321.701 320.619 323.057 321.597 323.986 322.101C325.8 323.085 325.868 323.035 339.818 310.322C343.836 306.659 348.058 302.839 349.199 301.833C355.597 296.192 360.645 290.873 360.583 289.837C360.543 289.187 354.43 278.974 346.997 267.143L333.483 245.631L286.403 245.371C260.51 245.229 239.095 245.486 238.816 245.944ZM-172.404 256.656C-189.781 260.95 -205.114 271.037 -215.115 284.753C-224.677 297.868 -229.536 314.564 -228.583 331.025C-228.275 336.337 -227.599 342.033 -227.078 343.684C-226.559 345.335 -225.536 348.711 -224.805 351.188C-221.099 363.751 -210.629 377.872 -198.748 386.334C-188.562 393.588 -178.697 397.367 -165.174 399.194C-150.956 401.118 -136.068 397.855 -121.479 389.621C-115.088 386.013 -97.5323 369.565 -97.5323 367.183C-97.5323 366.618 -96.4382 364.4 -95.1001 362.253C-91.4732 356.432 -88.4762 346.792 -87.147 336.68C-84.3584 315.453 -90.8362 294.362 -105.142 278.095C-110.462 272.044 -125.652 261.717 -132.138 259.741C-148.217 254.842 -161.075 253.857 -172.404 256.656ZM-37.5425 269.407C-39.5796 272.289 -42.2823 275.998 -43.5502 277.648C-51.9171 288.543 -74.8205 319.992 -74.8205 320.585C-74.8205 321.509 -71.7682 320.528 -64.9457 317.41C-61.9587 316.045 -58.1816 314.346 -56.5523 313.634C-51.8904 311.598 -42.4867 307.266 -33.3467 302.947C-28.7303 300.766 -23.2864 298.297 -21.2502 297.461C-19.0175 296.545 -17.5719 295.289 -17.6094 294.298C-17.6914 292.112 -31.6255 264.886 -32.8688 264.482C-33.403 264.309 -35.5063 266.525 -37.5425 269.407ZM9.60826 287.27C4.72028 289.509 -1.83356 292.518 -4.95693 293.958C-8.38938 295.54 -10.6132 297.185 -10.5796 298.117C-10.5006 300.332 1.59593 323.402 2.66931 323.385C3.16206 323.377 6.06324 318.485 9.11649 312.516C12.1688 306.546 16.566 297.967 18.8885 293.453C24.9743 281.626 23.733 280.798 9.60826 287.27ZM20.5336 297.909C18.065 302.725 13.4861 311.741 10.3577 317.947L4.6709 329.229L12.8639 345.573C18.8678 357.548 21.7176 362.22 23.5257 363.055C27.0421 364.679 28.1816 364.491 30.277 361.944C31.2961 360.705 35.0613 356.32 38.6438 352.197C42.2264 348.075 46.3214 343.348 47.7444 341.692C49.1673 340.036 52.4121 336.276 54.9549 333.336C57.4986 330.396 59.4301 327.537 59.2474 326.983C58.5907 324.985 27.3541 289.294 26.2027 289.225C25.5529 289.187 23.0023 293.095 20.5336 297.909ZM358.185 298.29C356.013 300.416 348.826 306.996 342.214 312.914C335.602 318.832 329.908 324.347 329.56 325.172C329.157 326.13 330.118 327.751 332.233 329.674C339.602 336.376 350.518 346.118 354.226 349.304C356.394 351.166 359.032 353.477 360.09 354.44C361.149 355.402 362.263 356.189 362.569 356.188C363.13 356.187 371.605 342.758 375.314 335.995C376.425 333.968 378.461 330.501 379.837 328.293L382.339 324.276L373.406 309.799C368.492 301.835 363.947 295.119 363.304 294.873C362.661 294.626 360.358 296.163 358.185 298.29ZM-21.0033 301.154C-26.3288 303.741 -48.4481 313.946 -54.8242 316.755C-56.5898 317.534 -59.4781 318.806 -61.2427 319.585C-74.6654 325.5 -76.0686 326.34 -74.699 327.631C-73.9515 328.337 -69.1178 330.352 -63.9583 332.111C-58.7987 333.87 -53.8061 335.73 -52.8631 336.245C-51.92 336.759 -50.4694 337.18 -49.64 337.18C-48.8105 337.18 -47.3599 337.591 -46.4169 338.092C-45.4738 338.594 -42.4808 339.755 -39.7653 340.671C-37.0497 341.588 -33.9392 342.729 -32.853 343.208C-31.7667 343.685 -26.5243 345.526 -21.2028 347.298C-12.8774 350.069 -11.338 350.321 -10.1737 349.103C-9.42919 348.323 -6.73043 343.494 -4.17684 338.371L0.46626 329.055L-6.88744 314.358C-10.9321 306.274 -14.8741 299.564 -15.6473 299.447C-16.4205 299.33 -18.8309 300.098 -21.0033 301.154ZM321.649 331.826C320.02 333.249 314.687 338.112 309.799 342.633C304.911 347.154 298.468 353.013 295.481 355.654C292.494 358.297 287.606 362.767 284.619 365.591C281.632 368.414 275.195 374.32 270.315 378.716C265.435 383.111 260.956 387.157 260.361 387.707C246.254 400.762 241.704 404.856 240.569 405.517C239.813 405.957 239.195 406.97 239.195 407.768C239.195 409.015 245.635 409.219 284.959 409.219C327.311 409.219 330.836 409.088 332.235 407.468C333.792 405.663 342.944 390.862 344.146 388.203C344.702 386.973 350.053 378.113 359.732 362.395C361.428 359.638 362.549 360.802 332.232 333.82C329.362 331.265 326.474 329.19 325.813 329.208C325.151 329.225 323.278 330.404 321.649 331.826ZM-74.8205 333.26C-74.8205 334.33 -72.4466 337.504 -62.164 350.187C-59.2638 353.764 -56.3706 357.366 -55.7336 358.192C-42.4482 375.409 -30.9294 389.155 -30.3201 388.52C-29.5617 387.727 -27.807 384.431 -18.0725 365.503C-15.4705 360.445 -13.5973 355.633 -13.9084 354.81C-14.2204 353.987 -15.9445 352.879 -17.7397 352.347C-19.535 351.817 -26.1135 349.501 -32.3592 347.201C-38.605 344.9 -46.1591 342.194 -49.1462 341.185C-52.1333 340.178 -58.9913 337.739 -64.3849 335.766C-75.6045 331.661 -74.8205 331.849 -74.8205 333.26ZM1.92672 334.842C0.999483 336.399 -4.07018 345.668 -5.30353 348.06C-5.97797 349.367 -6.3157 350.998 -6.05599 351.684C-5.79629 352.371 -2.16535 354.167 2.01263 355.676C10.893 358.884 15.0393 359.783 15.0393 358.5C15.0393 357.481 4.34603 336.172 3.16699 334.842C2.75917 334.381 2.20123 334.381 1.92672 334.842ZM147.36 339.664C142.744 340.373 137.394 341.451 135.471 342.058C125.666 345.154 111.97 353.872 105.836 360.922C98.996 368.784 97.6847 370.61 94.5741 376.6C85.2534 394.549 83.6419 414.536 89.8846 434.733C95.1854 451.882 109.857 468.254 127.117 476.283C137.736 481.221 144.882 482.758 157.235 482.758C169.588 482.758 176.735 481.221 187.353 476.283C212.483 464.594 228.333 439.362 228.333 411.047C228.333 395.66 222.421 377.355 214.291 367.573C213.053 366.083 210.78 363.372 209.239 361.548C200.318 350.985 181.822 341.291 167.604 339.727C164.345 339.369 160.346 338.917 158.716 338.724C157.087 338.531 151.977 338.953 147.36 339.664ZM462.857 339.609C445.253 342.028 431.132 349.538 418.902 362.986C415.107 367.159 412.002 370.947 412.002 371.406C412.002 371.864 410.908 373.995 409.57 376.142C402.927 386.807 399.562 405.672 401.662 420.496C402.381 425.575 403.489 431.306 404.125 433.232C412.111 457.415 429.117 473.376 455.451 481.403C461.29 483.183 480.892 483.161 488.531 481.365C496.084 479.592 507.855 474.013 514.206 469.199C533.787 454.355 544.523 431.3 542.996 407.37C541.821 388.94 535.629 374.266 523.464 361.082C513.073 349.819 496.616 341.333 482.113 339.757C478.583 339.373 474.806 338.908 473.719 338.723C472.633 338.538 467.745 338.937 462.857 339.609ZM-14.566 366.365C-17.4474 372.05 -21.5198 379.967 -23.6142 383.958C-25.7086 387.949 -27.4199 391.777 -27.416 392.463C-27.4081 394.34 -14.6134 410.219 -13.1085 410.219C-12.3896 410.219 -9.14282 407.18 -5.89207 403.466C17.1199 377.166 20.9642 372.519 20.9642 371.008C20.9642 367.689 16.5699 364.38 8.62079 361.712C4.27592 360.256 -0.00180397 358.673 -0.88559 358.196C-1.76938 357.718 -4.0297 357.036 -5.90886 356.679L-9.3255 356.028L-14.566 366.365ZM20.5385 378.452C18.4491 380.991 5.94771 395.441 5.17353 396.212C4.20581 397.175 -8.20768 411.736 -9.4282 413.339C-10.6339 414.923 -5.32724 422.23 15.1875 447.234L18.7907 451.627L25.5559 448.818C29.2757 447.273 34.2042 445.16 36.506 444.123C38.8087 443.085 40.9634 442.237 41.2942 442.237C41.625 442.237 43.2968 441.624 45.0081 440.877C46.7194 440.128 49.3421 439.012 50.8352 438.396C52.3282 437.78 53.5507 436.616 53.5507 435.808C53.5507 435.001 47.4718 422.272 40.0421 407.522C32.6124 392.772 26.0585 379.694 25.4769 378.46C24.1379 375.618 22.8719 375.616 20.5385 378.452ZM-34.4714 404.967C-36.4375 408.681 -41.601 418.699 -45.9468 427.228C-50.2927 435.758 -56.6421 448.14 -60.0588 454.743C-68.9095 471.853 -70.7234 475.691 -70.2159 476.23C-69.5839 476.9 -61.0265 467.505 -43.33 446.712C-37.7765 440.184 -26.7504 427.528 -23.3081 423.727C-21.3144 421.525 -18.7341 418.496 -17.5729 416.995L-15.4626 414.266L-22.0935 406.239C-25.7402 401.825 -29.2131 398.213 -29.8116 398.213C-30.409 398.213 -32.5064 401.253 -34.4714 404.967ZM-19.0284 424.094C-25.0332 431.17 -44.434 453.548 -45.1667 454.243C-45.4561 454.518 -47.2068 456.544 -49.0554 458.745C-50.9049 460.947 -55.6181 466.349 -59.5285 470.752C-70.84 483.485 -72.8455 485.953 -72.8455 487.143C-72.8455 487.758 -72.5424 488.261 -72.1721 488.261C-71.5815 488.261 -54.998 481.653 -49.64 479.281C-48.5537 478.801 -42.9992 476.55 -37.2966 474.279C-31.5939 472.008 -25.9288 469.723 -24.7063 469.2C-22.0826 468.078 -21.1959 467.717 -7.67247 462.247C-1.96983 459.941 3.58469 457.693 4.6709 457.251C10.6974 454.801 14.0519 453.062 14.0519 452.388C14.0519 451.97 12.9824 450.302 11.675 448.683C10.3676 447.063 4.47341 439.695 -1.42278 432.31C-7.31897 424.924 -12.5812 418.745 -13.1174 418.579C-13.6526 418.413 -16.3128 420.894 -19.0284 424.094ZM-166.161 422.838C-181.936 425.093 -196.44 432.345 -207.512 443.515C-214.899 450.967 -217.661 454.782 -221.435 462.747C-226.798 474.068 -228.372 481.447 -228.372 495.265C-228.372 512.677 -223.186 527.53 -212.541 540.607C-197.212 559.436 -171.813 569.715 -149.004 566.319C-130.806 563.608 -120.215 558.259 -107.378 545.292C-94.4741 532.256 -89.7826 522.602 -87.1994 503.769C-83.6316 477.76 -94.3822 452.161 -115.434 436.542C-121.783 431.832 -134.931 425.227 -137.958 425.227C-139.149 425.227 -140.872 424.821 -141.788 424.325C-143.685 423.296 -161.685 422.199 -166.161 422.838ZM144.234 507.225C137.96 508.392 128.051 512.002 122.674 515.082C118.371 517.545 106.422 526.994 104.397 529.534C97.186 538.578 90.098 550.73 90.0901 554.06C90.0881 554.756 89.6901 556.106 89.2062 557.062C87.648 560.134 86.1372 570.708 86.1372 578.543C86.1372 603.41 98.1103 625.611 118.594 638.726C131.842 647.208 142.281 650.348 157.235 650.348C179.768 650.348 200.388 639.997 214.309 621.698C232.583 597.678 232.922 561.045 215.1 536.287C209.641 528.703 209.847 528.924 202.659 522.956C189.12 511.714 177.505 507.275 160.197 506.728C153.952 506.531 146.768 506.755 144.234 507.225Z" fill="url(#paint0_linear_232_13)"/>
</g>
<defs>
<linearGradient id="paint0_linear_232_13" x1="-206.155" y1="607.325" x2="460.371" y2="163.209" gradientUnits="userSpaceOnUse">
<stop stop-color="#97FF58"/>
<stop offset="1" stop-color="#7EFFF0"/>
</linearGradient>
<clipPath id="clip0_232_13">
<rect width="263" height="654" fill="white"/>
</clipPath>
</defs>
</svg>
