<svg width="260" height="654" viewBox="0 0 260 654" fill="none" xmlns="http://www.w3.org/2000/svg">
<g clip-path="url(#clip0_232_15)">
<path fill-rule="evenodd" clip-rule="evenodd" d="M-107.347 1.05774C-116.648 3.26392 -120.349 4.47857 -124.949 6.83483C-144.304 16.7481 -157.056 33.8382 -163.894 59.0317C-164.65 61.8192 -165.116 68.4878 -165.116 76.5411C-165.116 84.5944 -164.65 91.263 -163.894 94.0505C-160.342 107.138 -154.649 119.221 -148.81 126.067C-145.043 130.484 -145.329 130.958 -156.319 138.529C-160.909 141.692 -164.665 144.897 -164.665 145.654C-164.665 146.41 -162.825 147.958 -160.576 149.094L-156.487 151.158L-163.464 165.878C-167.301 173.973 -172.326 184.649 -174.631 189.601C-177.61 196.002 -179.361 198.695 -180.685 198.913C-182.019 199.133 -182.885 200.486 -183.733 203.666C-184.435 206.303 -185.454 208.111 -186.238 208.111C-187.333 208.111 -197.538 204.513 -202.575 202.351C-203.32 202.031 -207.585 200.381 -212.053 198.683C-216.521 196.986 -220.943 195.096 -221.879 194.484C-223.429 193.471 -221.444 190.207 -199.829 158.219C-186.766 138.884 -175.571 123.066 -174.954 123.066C-174.335 123.066 -172.622 124.191 -171.147 125.567C-169.672 126.943 -168.069 128.068 -167.585 128.068C-165.846 128.068 -163.26 104.279 -164.812 102.559C-165.13 102.205 -166.142 102.36 -167.059 102.902C-167.976 103.444 -170.148 104.562 -171.886 105.387C-182.438 110.397 -185.425 112.052 -185.425 112.886C-185.425 113.402 -183.901 115.08 -182.04 116.615C-180.178 118.151 -178.515 119.523 -178.345 119.663C-177.821 120.094 -226.148 191.209 -227.297 191.697C-228.491 192.206 -234.072 190.297 -249.512 184.098C-255.221 181.806 -262.127 179.097 -264.857 178.076C-277.937 173.188 -290.298 168.239 -290.789 167.694C-291.089 167.361 -292.201 167.089 -293.26 167.089C-294.319 167.089 -295.572 166.731 -296.043 166.294C-296.515 165.857 -299.338 164.654 -302.317 163.621C-307.344 161.878 -310.87 159.63 -309.935 158.765C-308.944 157.846 -186.253 90.0483 -185.583 90.0483C-185.167 90.0483 -184.269 91.287 -183.586 92.7998C-181.253 97.9686 -178.204 100.856 -178.204 97.8965C-178.204 97.2612 -177.189 95.2651 -175.947 93.4611C-174.706 91.6572 -173.691 89.9072 -173.691 89.5721C-173.691 89.2369 -172.049 86.4984 -170.042 83.4868C-167.554 79.7538 -166.764 77.8708 -167.559 77.5676C-171.78 75.9628 -190.841 74.3419 -190.841 75.5886C-190.841 75.8907 -190.029 78.0009 -189.036 80.2791C-188.043 82.5573 -187.23 84.9006 -187.23 85.4869C-187.23 86.5134 -313.57 157.084 -315.407 157.084C-315.902 157.084 -316.322 155.396 -316.34 153.332C-316.394 146.948 -319.44 134.907 -322.972 127.111C-331.15 109.064 -345.143 94.8219 -360.537 88.8747C-370.585 84.9936 -373.014 84.5454 -384.005 84.5454C-397.615 84.5454 -403.499 85.9181 -414.243 91.6012C-430.204 100.044 -441.279 113.396 -449.056 133.571C-454.513 147.727 -454.407 173.08 -448.833 187.1C-445.816 194.69 -444.543 197.259 -440.504 203.911C-431.734 218.354 -418.473 228.727 -402.14 233.921C-398.676 235.023 -393.272 235.542 -384.908 235.576C-372.914 235.625 -370.766 235.248 -360.537 231.297C-339.362 223.116 -321.627 199.633 -317.149 173.843C-316.504 170.128 -315.701 167.089 -315.363 167.089C-315.027 167.089 -310.989 175.306 -306.391 185.349C-301.793 195.391 -294.072 212.163 -289.232 222.619C-273.637 256.309 -272.846 258.129 -273.142 259.661C-273.548 261.769 -314.452 322.172 -315.474 322.172C-315.933 322.172 -316.322 320.934 -316.34 319.421C-316.383 315.68 -318.38 306.922 -320.845 299.66C-324.86 287.832 -334.961 273.182 -344.254 265.71C-363.689 250.084 -391.14 246.897 -412.63 257.773C-431.224 267.182 -445.359 285.638 -451.227 308.166C-453.565 317.139 -453.589 337.041 -451.275 346.185C-444.993 370.999 -429.18 390.301 -407.925 399.099C-396.607 403.784 -378.948 404.719 -367.601 401.234C-355.695 397.577 -345.515 391.205 -336.971 382.061C-333.63 378.486 -328.236 371.01 -326.606 367.697C-326.066 366.596 -324.613 363.67 -323.38 361.193C-320.121 354.647 -316.307 340.996 -316.307 335.873C-316.307 331.303 -314.764 332.03 -309.844 338.913C-307.193 342.622 -297.201 356.393 -287.641 369.515L-270.256 393.372L-274.666 402.546C-277.092 407.592 -282.029 418.024 -285.638 425.728C-289.246 433.432 -294.64 444.913 -297.623 451.241C-300.606 457.57 -305.701 468.493 -308.946 475.514C-312.19 482.535 -315.11 487.938 -315.431 487.521C-315.753 487.103 -316.532 484.059 -317.161 480.757C-324.796 440.714 -357.487 414.061 -392.806 419.085C-401.264 420.288 -404.307 421.218 -411.786 424.89C-414.406 426.176 -416.792 427.228 -417.087 427.228C-417.383 427.228 -420.113 429.205 -423.155 431.62C-436.783 442.441 -445.077 455.089 -450.456 473.253C-452.738 480.959 -452.966 483.026 -452.884 495.265C-452.801 507.539 -452.543 509.581 -450.058 517.632C-441.763 544.501 -423.309 563.01 -398.447 569.399C-392.032 571.047 -376.82 571.034 -370.466 569.376C-354.437 565.19 -339.165 554.296 -329.691 540.289C-322.949 530.322 -316.307 511.3 -316.307 501.961C-316.307 497.485 -315.305 496.776 -311.578 498.612C-309.959 499.41 -303.355 502.399 -296.901 505.253C-290.447 508.109 -284.354 510.822 -283.361 511.283C-282.368 511.745 -277.291 513.98 -272.078 516.251C-266.866 518.521 -261.585 520.868 -260.344 521.463C-256.223 523.442 -254.549 524.186 -244.999 528.283C-239.786 530.519 -234.709 532.745 -233.716 533.231C-232.723 533.716 -226.63 536.443 -220.177 539.288C-213.723 542.134 -207.63 544.836 -206.637 545.294C-205.644 545.751 -201.033 547.822 -196.39 549.895C-187.655 553.797 -186.212 555.261 -187.99 558.418C-188.565 559.438 -189.036 561.455 -189.036 562.901C-189.036 565.329 -188.812 565.481 -186.102 564.898C-184.488 564.55 -179.998 563.889 -176.122 563.426C-167.88 562.445 -166.37 561.366 -168.302 557.838C-170.87 553.152 -180.129 541.289 -181.22 541.289C-181.826 541.289 -182.863 543.316 -183.522 545.792C-184.829 550.696 -185.039 550.831 -188.768 549.169C-193.5 547.061 -194.906 546.443 -204.38 542.315C-209.593 540.045 -214.874 537.699 -216.115 537.103C-218.618 535.901 -218.222 536.077 -231.46 530.309C-236.672 528.038 -241.75 525.791 -242.743 525.316C-243.735 524.841 -249.828 522.123 -256.282 519.278C-262.736 516.432 -268.829 513.731 -269.822 513.275C-270.815 512.818 -276.907 510.117 -283.361 507.271C-306.839 496.919 -309.411 495.686 -309.726 494.639C-309.885 494.109 -308.486 493.082 -306.618 492.354C-304.748 491.627 -301.798 490.363 -300.06 489.545C-298.322 488.726 -296.088 487.676 -295.095 487.21C-294.103 486.743 -289.025 484.503 -283.812 482.233C-278.6 479.962 -273.522 477.727 -272.53 477.265C-271.537 476.804 -265.444 474.098 -258.99 471.252C-252.536 468.407 -246.443 465.689 -245.45 465.214C-240.895 463.033 -225.421 456.244 -225.006 456.244C-224.751 456.244 -219.907 462.66 -214.241 470.502C-208.575 478.343 -203.531 485.248 -203.032 485.845C-198.382 491.409 -179.107 518.843 -179.107 519.897C-179.107 520.53 -180.108 521.776 -181.332 522.665C-182.555 523.553 -183.994 525.188 -184.53 526.297C-185.32 527.934 -185.2 528.424 -183.884 528.905C-182.994 529.231 -181.047 530.073 -179.558 530.776C-178.069 531.479 -175.225 532.648 -173.24 533.374C-171.254 534.101 -169.244 535.052 -168.772 535.49C-168.3 535.929 -166.733 536.287 -165.29 536.287C-163.147 536.287 -162.784 535.966 -163.31 534.536C-163.664 533.573 -164.266 529.858 -164.647 526.281C-165.406 519.165 -167.146 511.273 -167.955 511.273C-168.236 511.273 -169.988 512.609 -171.849 514.243C-175.753 517.67 -175.915 517.595 -181.44 509.773C-183.383 507.021 -185.184 504.545 -185.441 504.27C-185.699 503.995 -191.588 495.895 -198.53 486.27C-205.471 476.646 -211.827 467.866 -212.654 466.76C-219.332 457.826 -220.628 455.958 -220.628 455.263C-220.628 454.557 -217.267 452.615 -212.053 450.307C-211.06 449.868 -209.232 449.038 -207.991 448.464C-193.036 441.544 -190.228 440.531 -188.984 441.609C-187.196 443.157 -164.665 492.669 -164.665 495.049C-164.665 496.313 -165.889 497.574 -168.275 498.767C-170.261 499.759 -171.886 500.931 -171.886 501.369C-171.886 502.213 -166.238 507.271 -165.296 507.271C-164.993 507.271 -162.425 509.072 -159.591 511.273C-153.235 516.208 -152.028 516.312 -152.028 511.928C-152.028 510.086 -151.764 504.458 -151.441 499.421C-150.917 491.243 -151.018 490.262 -152.375 490.262C-153.212 490.262 -154.878 490.975 -156.077 491.846C-157.276 492.718 -158.989 493.171 -159.881 492.855C-160.885 492.498 -165.252 484.084 -171.313 470.83L-181.12 449.381L-178.312 445.558C-170.032 434.284 -166.541 428.91 -166.984 428.115C-167.256 427.628 -168.613 427.228 -169.999 427.228C-171.385 427.228 -173.696 426.816 -175.136 426.312C-176.575 425.808 -180.291 425.138 -183.394 424.826L-189.036 424.258V427.244C-189.036 428.886 -189.442 430.23 -189.938 430.23C-190.435 430.23 -190.841 429.42 -190.841 428.429C-190.841 427.439 -191.216 426.201 -191.675 425.678C-192.134 425.155 -196.035 417.073 -200.343 407.718C-204.651 398.363 -209.992 386.779 -212.212 381.974C-216.575 372.532 -216.857 368.543 -213.093 369.491C-210.207 370.218 -187.979 379.041 -187.391 379.692C-187.112 380.001 -187.369 381.737 -187.96 383.551C-189.211 387.385 -189.369 391.209 -188.277 391.209C-187.859 391.209 -185.524 390.539 -183.086 389.719C-180.649 388.9 -177.384 388.225 -175.832 388.219C-174.279 388.213 -171.496 387.506 -169.645 386.65C-166.632 385.254 -166.415 384.917 -167.55 383.398C-172.152 377.251 -175.266 373.201 -178.018 369.785C-181.036 366.04 -181.228 365.954 -182.453 367.784C-183.156 368.836 -183.962 370.945 -184.244 372.47C-184.525 373.995 -185.019 375.423 -185.341 375.643C-185.997 376.093 -195.064 372.854 -195.973 371.846C-196.295 371.49 -197.437 371.199 -198.513 371.199C-199.589 371.199 -200.744 370.893 -201.08 370.521C-201.416 370.149 -203.616 369.135 -205.969 368.27C-208.705 367.263 -210.248 366.117 -210.248 365.09C-210.248 363.711 -204.162 355.729 -187.557 335.333C-183.244 330.036 -183.667 329.882 -176.177 339.466L-171.488 345.465L-174.846 348.682C-176.693 350.452 -178.204 352.354 -178.204 352.909C-178.204 353.886 -174.371 355.705 -166.921 358.261C-164.935 358.942 -161.939 360.154 -160.264 360.953C-156.192 362.895 -155.544 361.551 -157.075 354.343C-157.736 351.232 -158.768 346.077 -159.368 342.886C-159.969 339.697 -160.832 336.832 -161.286 336.521C-161.741 336.21 -163.417 337.356 -165.011 339.069C-166.605 340.781 -168.349 342.183 -168.885 342.183C-169.422 342.183 -171.839 339.595 -174.257 336.43C-176.674 333.265 -178.957 330.527 -179.331 330.344C-179.704 330.16 -180.009 329.034 -180.009 327.84C-180.009 325.382 -171.181 313.329 -169.308 313.232C-168.635 313.196 -166.858 314.312 -165.358 315.71C-163.858 317.109 -162.198 318.092 -161.667 317.896C-160.499 317.465 -159.299 313.397 -158.356 306.664C-157.971 303.913 -157.245 300.259 -156.744 298.544C-154.98 292.504 -157.391 292.239 -168.726 297.226C-169.719 297.662 -172.049 298.535 -173.904 299.163C-175.759 299.792 -177.547 300.792 -177.878 301.385C-178.209 301.979 -176.948 303.976 -175.076 305.822C-171.23 309.615 -170.924 308.51 -178.578 318.446C-181.026 321.625 -183.327 324.101 -183.691 323.949C-184.055 323.797 -186.679 320.747 -189.521 317.17C-192.364 313.593 -196.159 308.854 -197.956 306.638C-200.907 302.998 -210.839 290.293 -214.167 285.901C-216.388 282.969 -213.192 277.717 -207.576 275.07C-202.965 272.896 -196.057 269.473 -189.487 266.107C-185.895 264.266 -185.869 264.267 -184.337 266.451C-183.491 267.657 -182.678 269.539 -182.532 270.635C-181.94 275.064 -179.393 273.153 -173.405 263.79C-170.087 258.601 -167.372 253.902 -167.372 253.346C-167.372 252.298 -171.047 251.633 -182.943 250.527C-190.662 249.81 -191.083 250.18 -188.579 255.501C-186.113 260.742 -186.213 260.844 -200.77 267.831C-202.508 268.666 -204.843 269.828 -205.958 270.415C-207.075 271.002 -208.215 271.231 -208.491 270.925C-208.767 270.618 -207.197 266.603 -205.002 262.001C-202.805 257.401 -198.069 247.332 -194.477 239.628C-190.883 231.924 -187.598 225.148 -187.175 224.57C-186.321 223.403 -179.971 221.566 -173.587 220.64C-171.296 220.308 -168.656 219.378 -167.72 218.576C-166.223 217.292 -166.182 216.965 -167.372 215.865C-168.117 215.178 -170.636 212 -172.971 208.804L-177.217 202.994L-170.793 189.293C-167.26 181.759 -162.375 171.317 -159.938 166.089C-153.46 152.189 -153.808 152.57 -149.841 155.039C-144.167 158.572 -144.131 158.499 -144.615 144.577C-144.854 137.699 -144.74 132.071 -144.361 132.071C-143.982 132.071 -142.154 133.59 -140.299 135.448C-133.237 142.519 -121.111 148.745 -108.982 151.525C-97.521 154.152 -85.6252 152.993 -73.4567 148.062C-60.4832 142.806 -47.051 130.876 -39.681 118.063C-34.7454 109.484 -29.3495 94.5017 -29.2059 88.9767C-29.001 81.1546 -28.0415 82.2962 -13.9225 107.151C-6.29341 120.582 0.389708 132.471 0.928582 133.571C1.46746 134.672 3.08677 137.599 4.52557 140.075C5.96527 142.551 8.15511 146.378 9.39172 148.579C10.6292 150.781 12.7938 154.457 14.2028 156.747C15.6127 159.038 16.7653 161.247 16.7653 161.655C16.7653 162.064 17.7808 163.874 19.0219 165.678C20.2631 167.482 21.2785 169.197 21.2785 169.491C21.2785 170.406 30.6759 186.582 31.4124 186.933C31.796 187.117 32.1102 187.658 32.1102 188.137C32.1102 188.614 38.6091 200.446 46.5523 214.43C54.4955 228.413 60.9945 240.371 60.9945 241.001C60.9945 241.851 49.5003 242.081 16.5523 241.888L-27.8908 241.629L-28.566 236.126C-32.8815 200.994 -54.1818 175.618 -85.2325 168.617C-93.7949 166.687 -100.139 166.687 -108.701 168.617C-136.493 174.883 -155.307 194.484 -163.894 226.121C-165.544 232.2 -165.528 255.144 -163.87 261.14C-158.277 281.364 -150.21 294.921 -137.585 305.311C-122.908 317.393 -101.925 322.673 -84.5592 318.657C-64.9756 314.128 -49.8501 302.894 -39.7948 285.409C-33.4934 274.452 -30.8839 266.718 -28.964 253.318L-27.9151 245.998L-19.7914 253.709C-15.3234 257.95 -9.02747 264.004 -5.80054 267.162C4.36133 277.105 17.0804 289.45 23.0459 295.158C26.2096 298.184 29.2434 301.111 29.7886 301.661C30.3338 302.212 34.0201 305.814 37.9809 309.666C53.7987 325.05 53.7734 325.024 53.7734 326.056C53.7734 326.463 51.0312 329.406 47.6806 332.596C44.33 335.787 39.3538 340.712 36.6233 343.542C33.8929 346.371 28.0032 352.282 23.5351 356.678C19.0671 361.073 13.1774 366.979 10.4469 369.803C7.71642 372.626 3.24838 377.081 0.517907 379.703C-2.21257 382.325 -6.68064 386.785 -9.41111 389.614C-16.8488 397.322 -27.1028 407.218 -27.6507 407.218C-27.917 407.218 -28.4125 404.89 -28.7528 402.045C-29.863 392.771 -31.8561 385.871 -36.2203 376.201C-39.8408 368.18 -41.8528 365.212 -49.1063 357.191C-56.1541 349.398 -59.0841 346.937 -65.3745 343.525C-77.8092 336.78 -83.8687 335.179 -96.9668 335.179C-110.065 335.179 -116.124 336.78 -128.559 343.525C-134.84 346.931 -137.795 349.411 -144.845 357.191C-152.494 365.631 -153.976 367.874 -158.055 377.202C-163.836 390.416 -165.117 396.68 -165.112 411.72C-165.109 422.469 -164.246 429.158 -162.013 435.733C-158.36 446.488 -149.868 460.733 -142.873 467.837C-129.069 481.859 -107.729 489.192 -88.6174 486.481C-68.281 483.597 -51.4044 472.088 -40.6423 453.764C-32.7343 440.298 -31.0897 435.577 -29.0507 420.475L-28.0713 413.221H16.0098C40.2546 413.221 60.0919 413.432 60.0919 413.69C60.0919 413.948 58.2641 417.291 56.03 421.119C53.796 424.947 51.9681 428.368 51.9681 428.721C51.9681 429.075 50.9527 430.838 49.7116 432.642C48.4705 434.446 47.455 436.19 47.455 436.517C47.455 436.845 45.0179 441.445 42.0392 446.739C39.0605 452.033 36.6233 456.575 36.6233 456.833C36.6233 457.09 34.1862 461.59 31.2075 466.831C28.2288 472.071 25.7917 476.591 25.7917 476.874C25.7917 477.157 24.7762 478.864 23.5351 480.668C22.294 482.472 21.2785 484.256 21.2785 484.632C21.2785 485.008 18.8414 489.605 15.8627 494.846C12.884 500.086 10.4469 504.579 10.4469 504.83C10.4469 505.08 7.40049 510.681 3.67712 517.277C-0.0462564 523.872 -3.09266 529.473 -3.09266 529.723C-3.09266 529.974 -5.52976 534.467 -8.50846 539.708C-11.4872 544.949 -13.9243 549.545 -13.9243 549.921C-13.9243 550.297 -14.9398 552.081 -16.1809 553.885C-17.422 555.689 -18.4374 557.405 -18.4374 557.698C-18.4374 557.992 -20.5614 561.94 -23.1565 566.471L-27.8754 574.71L-28.566 570.256C-30.6348 556.915 -31.1556 555.089 -36.0344 544.082C-40.1703 534.752 -41.5513 532.655 -49.1109 524.218C-69.246 501.748 -98.9418 495.87 -125.814 509.035C-134.076 513.083 -146.341 524.323 -152.594 533.576C-154.356 536.185 -160.464 549.307 -162.004 553.796C-166.315 566.349 -166.328 589.775 -162.033 602.822C-158.483 613.603 -150.952 626.39 -143.627 634.068C-129.594 648.78 -113.157 655.153 -92.33 653.96C-87.0487 653.657 -81.7682 653.002 -80.5957 652.505C-79.4223 652.008 -76.2288 650.789 -73.4983 649.798C-50.3267 641.382 -31.569 614.992 -28.7302 586.814C-28.0072 579.637 -29.7285 581.686 -3.54395 556.832C19.5094 534.95 26.6131 528.174 27.9716 526.772C28.5104 526.215 34.6375 520.377 41.5878 513.798C48.5381 507.218 54.4278 501.592 54.6761 501.295C54.9243 500.998 57.7631 498.281 60.9855 495.259C66.135 490.426 70.7611 485.978 73.9835 482.758C74.535 482.208 77.621 479.281 80.8434 476.255C84.065 473.228 87.9238 469.573 89.4185 468.133C100.112 457.83 107.283 451.244 107.789 451.262C108.116 451.274 109.541 453.097 110.956 455.315C112.371 457.532 113.972 459.182 114.513 458.981C115.054 458.781 116.739 454.742 118.259 450.006C119.777 445.269 121.324 441.058 121.697 440.648C122.07 440.237 122.374 438.385 122.374 436.533V433.163L117.635 433.723C105.594 435.147 100.711 436.494 100.711 438.394C100.711 439.407 101.025 440.235 101.408 440.235C102.514 440.235 105.484 446.962 104.868 448.069C104.561 448.618 94.4624 458.437 82.4266 469.889C70.3909 481.34 60.3401 490.957 60.0919 491.258C59.4898 491.988 35.6629 514.746 30.3969 519.621C28.1124 521.735 25.02 524.662 23.5261 526.124C22.0313 527.586 18.1771 531.259 14.9601 534.286C9.80061 539.14 5.10508 543.662 1.97112 546.792C1.41961 547.343 -1.671 550.268 -4.89793 553.293C-8.12485 556.318 -12.1867 560.252 -13.9243 562.036C-18.2588 566.484 -18.5016 564.015 -14.4234 556.949C-12.6597 553.892 -11.2164 551.183 -11.2164 550.93C-11.2164 550.676 -7.76378 544.324 -3.54395 536.816C0.675871 529.307 4.12844 522.993 4.12844 522.783C4.12844 522.571 6.56555 518.068 9.54424 512.774C12.5229 507.48 14.9601 502.977 14.9601 502.766C14.9601 502.556 18.4126 496.241 22.6325 488.732C26.8523 481.224 30.3049 474.882 30.3049 474.639C30.3049 474.396 32.6617 470.044 35.5429 464.97C38.4232 459.896 41.0616 455.068 41.4046 454.243C41.7476 453.418 46.8484 443.962 52.7399 433.232L63.4506 413.721L82.0801 413.451L100.711 413.18V418.145C100.711 420.874 101.128 423.394 101.64 423.745C102.151 424.095 106.44 421.871 111.168 418.801C115.898 415.732 120.299 413.221 120.947 413.221C121.729 413.221 122.326 415.328 122.718 419.474C123.615 428.976 124.349 433.68 125.019 434.232C125.352 434.507 126.376 436.984 127.294 439.735C130.927 450.632 140.778 464.74 150.109 472.407C155.519 476.852 165.493 482.205 173.373 484.891C180.973 487.483 199.873 487.447 208.124 484.824C232.412 477.107 249.943 457.501 257.386 429.73C259.598 421.48 259.634 401.118 257.452 392.71C255.922 386.814 255.364 385.196 252.453 378.224C245.024 360.436 229.095 344.552 213.089 338.972C201.963 335.094 185.807 333.917 176.77 336.326C160.006 340.794 146.409 350.268 136.773 364.195C128.415 376.272 122.374 393.148 122.374 404.415C122.374 406.874 122.14 409.144 121.855 409.46C121.57 409.776 117.24 407.355 112.234 404.078C107.228 400.801 102.61 398.343 101.972 398.614C101.312 398.895 100.694 401.173 100.536 403.913L100.259 408.719L83.7861 408.992C67.9331 409.254 67.313 409.19 67.313 407.3C67.313 406.219 67.6939 405.075 68.1588 404.755C68.6236 404.437 69.5812 402.948 70.2871 401.445C71.5391 398.779 85.298 373.451 89.59 365.913C91.4901 362.575 91.9368 362.279 93.3684 363.411C97.0954 366.358 106.126 375.765 106.121 376.695C106.117 377.249 104.899 378.469 103.413 379.406C101.926 380.343 100.711 381.511 100.711 381.999C100.711 382.489 103.25 383.664 106.352 384.612C109.455 385.56 113.241 386.757 114.765 387.272C118.101 388.398 121.483 388.492 121.439 387.457C121.394 386.411 119.076 376.077 118.409 373.95C118.108 372.987 117.666 371.511 117.428 370.67C117.069 369.404 116.385 369.59 113.428 371.759C111.092 373.473 109.417 374.086 108.578 373.538C104.8 371.066 94.5039 360.45 94.4525 358.972C94.3875 357.119 95.5835 354.565 101.612 343.684C103.746 339.832 106.374 334.946 107.451 332.826C108.528 330.707 109.788 328.906 110.25 328.824C111.455 328.612 120.635 344.389 120.353 346.185C120.222 347.011 118.796 348.33 117.183 349.117C115.57 349.904 114.279 351.255 114.313 352.118C114.374 353.617 131.823 364.128 132.605 363.136C133.528 361.967 133.981 343.215 133.102 342.612C132.578 342.253 130.815 342.756 129.184 343.729C127.554 344.702 125.622 345.245 124.891 344.933C122.97 344.116 113.345 326.564 113.364 323.911C113.373 322.68 115.398 318.182 117.865 313.918C121.459 307.703 122.79 306.164 124.565 306.164C125.784 306.164 127.031 306.614 127.338 307.164C127.645 307.715 128.684 308.165 129.648 308.165C131.26 308.165 131.4 307.401 131.4 298.629C131.4 291.319 131.101 288.965 130.12 288.547C129.416 288.248 126.471 289.471 123.576 291.266C120.68 293.061 117.234 295.132 115.918 295.868C112.252 297.919 111.695 301.161 115.006 301.161C115.753 301.161 117.063 301.861 117.917 302.718C119.372 304.178 119.243 304.706 115.855 311.193C113.868 314.998 111.723 318.589 111.087 319.174C110.199 319.991 108.4 317.516 103.29 308.447C92.7998 289.831 93.2213 291.746 98.4855 286.605C100.951 284.198 103.438 282.211 104.015 282.189C104.592 282.168 106.088 283.502 107.342 285.152C110.192 288.907 112.247 288.999 112.941 285.403C113.234 283.89 113.889 281.526 114.398 280.15C116.053 275.678 117.716 269.701 118.018 267.143C118.399 263.908 115.747 263.388 109.981 265.566C107.684 266.434 104.678 267.143 103.3 267.143C100.451 267.143 96.1973 269.042 96.1973 270.315C96.1973 270.781 97.4258 272.589 98.9277 274.331C100.43 276.073 101.521 277.956 101.352 278.515C101.184 279.075 99.1092 281.353 96.7407 283.579L92.4351 287.624L89.8491 284.137C88.4265 282.219 86.7431 279.524 86.1068 278.149C85.4713 276.773 84.0288 274.255 82.9014 272.552C81.7749 270.849 80.8525 269.09 80.8525 268.644C80.8525 268.197 79.837 266.356 78.5959 264.552C77.3548 262.749 76.3394 260.948 76.3394 260.55C76.3394 260.153 75.3239 258.352 74.0828 256.548C72.8416 254.744 71.8262 252.97 71.8262 252.606C71.8262 252.242 70.9848 250.634 69.9567 249.033C68.4899 246.749 68.351 246.012 69.3141 245.601C69.9893 245.314 77.2284 245.204 85.4 245.355L100.259 245.631L100.539 250.634C100.692 253.386 101.154 256.013 101.563 256.472C101.973 256.931 103.972 256.144 106.004 254.721C108.037 253.298 110.115 252.135 110.621 252.135C111.128 252.135 111.542 251.685 111.542 251.134C111.542 250.584 111.956 250.134 112.463 250.134C112.969 250.134 115.015 248.992 117.009 247.596C119.004 246.201 121.027 245.327 121.505 245.654C121.983 245.982 122.374 248.085 122.374 250.327C122.374 260.278 128.227 277.472 135.412 288.625C145.82 304.781 160.275 314.661 179.985 319.091C192.916 321.996 212.786 318.094 223.677 310.51C225.529 309.22 227.312 308.165 227.641 308.165C228.418 308.165 237.748 299.448 240.465 296.183C265.33 266.309 265.472 221.288 240.796 191.949C232.923 182.589 223.769 175.954 212.186 171.216C207.888 169.457 195.457 167.089 190.523 167.09C178.372 167.092 160.489 173.712 150.355 181.959C146.244 185.305 138.664 193.666 135.714 198.106C128.563 208.872 122.374 227.146 122.374 237.493C122.374 240.043 121.982 242.129 121.503 242.129C120.664 242.129 112.94 237.656 111.091 236.099C108.837 234.201 103.237 231.124 102.037 231.124C101.031 231.124 100.711 232.452 100.711 236.627V242.129L83.3348 242.121L65.959 242.113L34.3668 186.365C16.991 155.703 -2.81555 120.745 -9.64851 108.678C-16.4815 96.6118 -21.8765 86.5234 -21.6373 86.2583C-21.2627 85.8431 -11.2895 94.7198 -2.64133 103.164C-1.15198 104.618 4.73772 110.204 10.4469 115.577C16.1561 120.95 23.0612 127.471 25.7917 130.07C28.5222 132.668 35.4274 139.189 41.1365 144.562C46.8457 149.935 52.7354 155.52 54.2247 156.974C55.7141 158.429 62.01 164.32 68.2156 170.066C74.4212 175.812 79.7017 180.771 79.9499 181.085C80.1981 181.399 84.26 185.227 88.9763 189.591C93.6925 193.956 98.4909 198.611 99.639 199.937L101.726 202.346L99.639 204.976C98.4909 206.421 97.2471 207.756 96.8743 207.941C95.0419 208.853 96.5728 211.138 99.5822 211.981C105.072 213.521 113.625 215.339 116.055 215.482C118.038 215.599 118.281 215.251 118.062 212.614C117.812 209.618 117.615 208.962 114.827 201.824C114.013 199.742 113.347 197.222 113.347 196.226C113.347 195.229 112.576 193.64 111.632 192.694C109.991 191.047 109.812 191.127 107.463 194.54C104.59 198.716 103.781 198.87 100.58 195.854C99.2663 194.616 96.0682 191.602 93.4741 189.157C90.879 186.712 88.2974 184.234 87.7378 183.65C87.1782 183.066 84.4856 180.571 81.7551 178.104C79.0247 175.638 76.5876 173.387 76.3394 173.101C76.0911 172.814 73.2478 170.109 70.0209 167.089C66.794 164.07 63.9506 161.357 63.7024 161.063C63.4542 160.768 59.3923 156.942 54.6761 152.56C49.9598 148.177 44.8825 143.407 43.3931 141.957C41.9038 140.508 36.0141 134.927 30.3049 129.554C24.5957 124.181 17.6906 117.66 14.9601 115.062C12.2296 112.463 5.32443 105.942 -0.384742 100.569C-6.09392 95.1961 -11.9836 89.6031 -13.473 88.1403C-14.9623 86.6775 -18.8699 83.0976 -22.1564 80.185L-28.1309 74.8902L-28.7366 68.2116C-29.3982 60.9097 -30.1438 57.8171 -33.6 48.0258C-39.8462 30.3314 -52.8189 15.1172 -68.5338 7.05295C-80.092 1.12278 -96.7646 -1.4526 -107.347 1.05774ZM-104.639 5.14092C-119.441 6.44862 -132.718 13.7045 -144.041 26.6744C-155.845 40.1936 -161.957 57.2057 -161.957 76.5411C-161.957 108.766 -143.466 136.101 -115.02 145.927C-113.282 146.527 -108.509 147.432 -104.414 147.938C-96.7023 148.891 -84.7668 147.949 -78.9141 145.927C-41.4628 132.99 -22.6781 90.2694 -36.5245 49.5266C-43.3638 29.4029 -60.7576 12.3678 -80.2988 6.65473C-86.7291 4.77473 -94.8113 4.27246 -104.639 5.14092ZM-397.093 89.1949C-415.797 94.0665 -428.179 103.132 -438.574 119.564C-453.434 143.055 -453.434 177.116 -438.574 200.607C-429.906 214.31 -420.294 222.313 -404.314 229.132C-394.721 233.226 -374.308 232.953 -363.696 228.588C-349.385 222.704 -338.432 213.199 -330.249 199.568C-327.545 195.064 -325.334 190.717 -325.334 189.907C-325.334 189.097 -325.036 188.104 -324.672 187.7C-323.445 186.342 -321.656 178.653 -320.459 169.591C-318.856 157.464 -320.466 142.985 -324.632 132.071C-330.601 116.434 -342.059 102.963 -355.572 95.6943C-363.503 91.4291 -364.217 91.1459 -371.368 89.444C-377.912 87.8862 -391.562 87.7541 -397.093 89.1949ZM-309.086 165.573C-309.086 166.139 -293.064 187.067 -291.072 189.101C-290.802 189.376 -287.739 193.201 -284.264 197.602C-280.789 202.002 -277.195 206.504 -276.279 207.607C-275.362 208.71 -270.51 214.919 -265.498 221.404C-260.485 227.89 -255.893 233.068 -255.295 232.911C-254.696 232.753 -249.8 226.096 -244.415 218.117C-239.031 210.137 -233.917 202.741 -233.053 201.682C-231.069 199.25 -230.145 196.116 -231.145 195.204C-231.566 194.82 -235.363 193.258 -239.583 191.733C-243.803 190.208 -248.068 188.553 -249.061 188.056C-250.054 187.558 -254.522 185.813 -258.99 184.178C-266.519 181.424 -273.242 178.818 -296.901 169.483C-308.517 164.899 -309.086 164.717 -309.086 165.573ZM-109.152 172.495C-109.649 172.69 -111.883 173.412 -114.117 174.099C-116.351 174.787 -120.323 176.417 -122.942 177.723C-125.562 179.029 -127.926 180.096 -128.196 180.096C-128.466 180.096 -131.275 182.143 -134.438 184.646C-158.247 203.478 -167.639 235.848 -158.518 267.643C-152.463 288.753 -134.835 306.84 -113.711 313.618C-106.278 316.002 -87.6561 316.002 -80.2229 313.618C-51.1427 304.287 -31.9734 276.678 -31.9779 244.131C-31.9806 225.551 -37.7196 208.75 -48.6126 195.433C-52.9038 190.187 -64.1704 180.096 -65.7374 180.096C-66.0073 180.096 -68.3713 179.044 -70.9917 177.758C-80.2969 173.19 -81.9812 172.822 -95.1615 172.48C-102.36 172.294 -108.656 172.301 -109.152 172.495ZM173.72 173.946C142.149 183.671 121.922 217.636 126.424 253.365C129.07 274.369 138.472 291.529 153.515 302.813C160.593 308.122 162.936 309.408 171.462 312.664C177.875 315.113 179.79 315.377 190.868 315.34C201.506 315.304 204.085 314.96 210.039 312.784C230.159 305.431 245.083 289.526 252.398 267.643C255.56 258.183 256.567 236.969 254.298 227.622C248.049 201.882 234.269 184.842 212.129 175.476C206.623 173.147 204.288 172.783 192.779 172.466C182.117 172.173 178.585 172.447 173.72 173.946ZM-305.476 178.697C-305.476 179.353 -301.012 189.233 -288.568 216.119C-284.11 225.747 -278.343 238.24 -275.749 243.88C-273.155 249.52 -270.483 254.136 -269.812 254.136C-268.779 254.136 -257.705 238.633 -257.653 237.116C-257.644 236.835 -258.957 234.948 -260.57 232.922C-262.183 230.896 -272.633 217.731 -283.793 203.667C-302.073 180.628 -305.476 176.708 -305.476 178.697ZM-230.279 203.353C-243.066 221.758 -252.171 235.797 -252.184 237.127C-252.192 237.952 -250.465 240.654 -248.344 243.13C-246.225 245.606 -240.246 253.035 -235.057 259.639C-220.462 278.217 -221.283 277.368 -218.605 276.624C-217.309 276.263 -215.654 275.22 -214.927 274.307C-213.028 271.918 -192.913 228.882 -187.891 216.465C-186.224 212.341 -186.06 212.448 -205.283 205.162C-208.014 204.126 -213.7 201.893 -217.92 200.197C-222.14 198.502 -225.67 197.113 -225.766 197.11C-225.861 197.107 -227.891 199.917 -230.279 203.353ZM-261.247 249.133C-263.977 253.492 -266.516 257.075 -266.888 257.097C-268.82 257.212 -266.865 263.305 -260.442 277.187C-256.524 285.656 -252.918 292.733 -252.429 292.913C-251.94 293.094 -249.153 292.036 -246.238 290.563C-243.323 289.09 -238.297 286.544 -235.07 284.906C-231.843 283.267 -228.26 281.527 -227.106 281.035C-225.936 280.538 -225.138 279.479 -225.301 278.64C-225.72 276.481 -253.956 241.121 -255.223 241.169C-255.805 241.191 -258.516 244.775 -261.247 249.133ZM-22.3946 245.944C-22.6492 246.401 -21.965 247.61 -20.8737 248.631C-19.7815 249.652 -15.623 253.672 -11.6307 257.565C-7.63923 261.457 -1.78382 267.118 1.38082 270.144C4.54546 273.171 7.58011 276.098 8.1253 276.648C8.67049 277.198 12.3605 280.796 16.3258 284.643C20.2911 288.49 23.7382 291.87 23.9864 292.153C24.2347 292.437 27.078 295.14 30.3049 298.159C33.5318 301.179 36.3751 303.881 36.6233 304.166C36.8716 304.449 40.3187 307.829 44.284 311.676C48.2493 315.523 52.0386 319.236 52.7038 319.928C53.3699 320.619 54.6093 321.597 55.4586 322.101C57.1168 323.085 57.1791 323.035 69.9306 310.322C73.6034 306.659 77.4622 302.839 78.5056 301.833C84.3538 296.192 88.9681 290.873 88.9112 289.837C88.8751 289.187 83.2869 278.974 76.4927 267.143L64.1393 245.631L21.1043 245.371C-2.56459 245.229 -22.1392 245.486 -22.3946 245.944ZM-398.287 256.656C-414.17 260.95 -428.186 271.037 -437.328 284.753C-446.069 297.868 -450.51 314.564 -449.639 331.025C-449.358 336.337 -448.739 342.033 -448.264 343.684C-447.789 345.335 -446.854 348.711 -446.186 351.188C-442.798 363.751 -433.228 377.872 -422.367 386.334C-413.056 393.588 -404.039 397.367 -391.678 399.194C-378.681 401.118 -365.072 397.855 -351.737 389.621C-345.894 386.013 -329.847 369.565 -329.847 367.183C-329.847 366.618 -328.847 364.4 -327.624 362.253C-324.308 356.432 -321.569 346.792 -320.354 336.68C-317.805 315.453 -323.726 294.362 -336.803 278.095C-341.666 272.044 -355.551 261.717 -361.48 259.741C-376.177 254.842 -387.931 253.857 -398.287 256.656ZM-275.011 269.407C-276.873 272.289 -279.344 275.998 -280.503 277.648C-288.151 288.543 -309.086 319.992 -309.086 320.585C-309.086 321.509 -306.296 320.528 -300.06 317.41C-297.329 316.045 -293.877 314.346 -292.388 313.634C-288.126 311.598 -279.53 307.266 -271.176 302.947C-266.956 300.766 -261.98 298.297 -260.118 297.461C-258.077 296.545 -256.756 295.289 -256.79 294.298C-256.865 292.112 -269.602 264.886 -270.739 264.482C-271.227 264.309 -273.15 266.525 -275.011 269.407ZM-231.911 287.27C-236.379 289.509 -242.37 292.518 -245.225 293.958C-248.362 295.54 -250.395 297.185 -250.364 298.117C-250.292 300.332 -239.235 323.402 -238.254 323.385C-237.803 323.377 -235.151 318.485 -232.36 312.516C-229.57 306.546 -225.551 297.967 -223.428 293.453C-217.865 281.626 -219 280.798 -231.911 287.27ZM-221.924 297.909C-224.181 302.725 -228.366 311.741 -231.226 317.947L-236.424 329.229L-228.935 345.573C-223.447 357.548 -220.842 362.22 -219.189 363.055C-215.975 364.679 -214.933 364.491 -213.018 361.944C-212.086 360.705 -208.645 356.32 -205.37 352.197C-202.095 348.075 -198.352 343.348 -197.051 341.692C-195.75 340.036 -192.784 336.276 -190.46 333.336C-188.135 330.396 -186.369 327.537 -186.536 326.983C-187.137 324.985 -215.69 289.294 -216.742 289.225C-217.336 289.187 -219.668 293.095 -221.924 297.909ZM86.7197 298.29C84.7339 300.416 78.1645 306.996 72.1204 312.914C66.0764 318.832 60.8717 324.347 60.554 325.172C60.1848 326.13 61.064 327.751 62.9965 329.674C69.7329 336.376 79.7107 346.118 83.101 349.304C85.0822 351.166 87.494 353.477 88.4608 354.44C89.4284 355.402 90.4475 356.189 90.7264 356.188C91.2391 356.187 98.9865 342.758 102.377 335.995C103.392 333.968 105.253 330.501 106.511 328.293L108.798 324.276L100.633 309.799C96.1414 301.835 91.9865 295.119 91.3989 294.873C90.8113 294.626 88.7055 296.163 86.7197 298.29ZM-259.893 301.154C-264.761 303.741 -284.98 313.946 -290.808 316.755C-292.422 317.534 -295.062 318.806 -296.675 319.585C-308.945 325.5 -310.227 326.34 -308.975 327.631C-308.292 328.337 -303.874 330.352 -299.157 332.111C-294.441 333.87 -289.877 335.73 -289.015 336.245C-288.153 336.759 -286.827 337.18 -286.069 337.18C-285.311 337.18 -283.985 337.591 -283.123 338.092C-282.261 338.594 -279.525 339.755 -277.043 340.671C-274.56 341.588 -271.717 342.729 -270.724 343.208C-269.731 343.685 -264.939 345.526 -260.075 347.298C-252.465 350.069 -251.058 350.321 -249.993 349.103C-249.313 348.323 -246.846 343.494 -244.512 338.371L-240.268 329.055L-246.989 314.358C-250.687 306.274 -254.29 299.564 -254.997 299.447C-255.704 299.33 -257.907 300.098 -259.893 301.154ZM53.3221 331.826C51.8328 333.249 46.9585 338.112 42.4905 342.633C38.0224 347.154 32.1327 353.013 29.4022 355.654C26.6718 358.297 22.2037 362.767 19.4733 365.591C16.7428 368.414 10.8594 374.32 6.39855 378.716C1.93773 383.111 -2.15662 387.157 -2.7009 387.707C-15.596 400.762 -19.7544 404.856 -20.7925 405.517C-21.483 405.957 -22.048 406.97 -22.048 407.768C-22.048 409.015 -16.161 409.219 19.7846 409.219C58.4978 409.219 61.7202 409.088 62.9984 407.468C64.4218 405.663 72.7874 390.862 73.8868 388.203C74.395 386.973 79.2864 378.113 88.1332 362.395C89.6839 359.638 90.7084 360.802 62.9957 333.82C60.3726 331.265 57.7324 329.19 57.1285 329.208C56.5237 329.225 54.8115 330.404 53.3221 331.826ZM-309.086 333.26C-309.086 334.33 -306.916 337.505 -297.517 350.187C-294.866 353.764 -292.221 357.366 -291.639 358.192C-279.495 375.409 -268.966 389.155 -268.409 388.52C-267.716 387.727 -266.112 384.431 -257.214 365.503C-254.835 360.445 -253.123 355.633 -253.407 354.81C-253.692 353.987 -255.268 352.879 -256.909 352.347C-258.55 351.817 -264.564 349.501 -270.273 347.201C-275.982 344.9 -282.887 342.194 -285.618 341.185C-288.348 340.178 -294.617 337.739 -299.547 335.766C-309.803 331.661 -309.086 331.849 -309.086 333.26ZM-238.933 334.842C-239.78 336.399 -244.414 345.668 -245.542 348.06C-246.158 349.367 -246.467 350.998 -246.229 351.684C-245.992 352.371 -242.673 354.167 -238.854 355.676C-230.737 358.884 -226.946 359.783 -226.946 358.5C-226.946 357.481 -236.721 336.172 -237.799 334.842C-238.172 334.381 -238.682 334.381 -238.933 334.842ZM-105.993 339.664C-110.213 340.373 -115.103 341.451 -116.861 342.058C-125.824 345.154 -138.343 353.872 -143.95 360.922C-150.203 368.784 -151.401 370.61 -154.245 376.6C-162.764 394.549 -164.238 414.536 -158.531 434.733C-153.686 451.882 -140.274 468.254 -124.497 476.283C-114.791 481.221 -108.259 482.758 -96.9668 482.758C-85.6748 482.758 -79.1425 481.221 -69.4364 476.283C-46.4652 464.593 -31.977 439.362 -31.977 411.047C-31.977 395.66 -37.3811 377.355 -44.8125 367.573C-45.9444 366.083 -48.0223 363.372 -49.4304 361.548C-57.5848 350.985 -74.4921 341.291 -87.4891 339.727C-90.4678 339.369 -94.1235 338.917 -95.6128 338.724C-97.1022 338.531 -101.773 338.953 -105.993 339.664ZM182.399 339.609C166.307 342.028 153.399 349.538 142.22 362.986C138.751 367.159 135.913 370.947 135.913 371.406C135.913 371.864 134.913 373.995 133.69 376.142C127.617 386.807 124.542 405.672 126.461 420.496C127.118 425.575 128.132 431.306 128.713 433.232C136.013 457.415 151.558 473.376 175.629 481.403C180.967 483.183 198.885 483.161 205.868 481.365C212.771 479.591 223.531 474.013 229.336 469.199C247.235 454.355 257.049 431.3 255.653 407.37C254.579 388.94 248.919 374.266 237.799 361.082C228.301 349.819 213.257 341.333 200 339.757C196.774 339.373 193.321 338.908 192.328 338.723C191.335 338.538 186.867 338.937 182.399 339.609ZM-254.008 366.365C-256.642 372.05 -260.365 379.967 -262.279 383.958C-264.194 387.949 -265.758 391.777 -265.754 392.463C-265.747 394.34 -254.052 410.219 -252.676 410.219C-252.019 410.219 -249.051 407.18 -246.08 403.466C-225.045 377.166 -221.531 372.519 -221.531 371.008C-221.531 367.689 -225.547 364.38 -232.814 361.712C-236.785 360.256 -240.695 358.673 -241.503 358.196C-242.311 357.718 -244.377 357.036 -246.095 356.679L-249.218 356.028L-254.008 366.365ZM-221.92 378.452C-223.83 380.991 -235.257 395.442 -235.965 396.212C-236.849 397.175 -248.196 411.736 -249.312 413.339C-250.414 414.923 -245.563 422.23 -226.811 447.234L-223.517 451.627L-217.333 448.818C-213.933 447.273 -209.428 445.16 -207.324 444.123C-205.219 443.085 -203.25 442.237 -202.947 442.237C-202.645 442.237 -201.117 441.624 -199.552 440.877C-197.988 440.128 -195.591 439.012 -194.226 438.396C-192.861 437.78 -191.744 436.616 -191.744 435.808C-191.744 435.001 -197.3 422.272 -204.092 407.522C-210.883 392.772 -216.874 379.694 -217.406 378.46C-218.63 375.618 -219.787 375.616 -221.92 378.452ZM-272.204 404.967C-274.001 408.681 -278.721 418.699 -282.693 427.228C-286.666 435.758 -292.47 448.14 -295.593 454.743C-303.683 471.853 -305.341 475.691 -304.877 476.23C-304.3 476.9 -296.477 467.505 -280.301 446.712C-275.225 440.184 -265.146 427.528 -261.999 423.727C-260.177 421.525 -257.818 418.496 -256.757 416.995L-254.828 414.266L-260.889 406.239C-264.223 401.825 -267.397 398.213 -267.944 398.213C-268.49 398.213 -270.407 401.253 -272.204 404.967ZM-258.087 424.094C-263.576 431.17 -281.31 453.548 -281.98 454.243C-282.245 454.518 -283.845 456.544 -285.535 458.745C-287.225 460.947 -291.534 466.349 -295.108 470.752C-305.448 483.485 -307.281 485.953 -307.281 487.143C-307.281 487.758 -307.004 488.261 -306.665 488.261C-306.126 488.261 -290.967 481.653 -286.069 479.281C-285.076 478.801 -279.999 476.55 -274.786 474.279C-269.573 472.008 -264.395 469.723 -263.278 469.2C-260.879 468.078 -260.069 467.717 -247.707 462.247C-242.494 459.941 -237.417 457.693 -236.424 457.251C-230.915 454.801 -227.849 453.062 -227.849 452.388C-227.849 451.97 -228.827 450.302 -230.022 448.683C-231.217 447.063 -236.605 439.695 -241.994 432.31C-247.384 424.924 -252.194 418.745 -252.684 418.579C-253.173 418.413 -255.605 420.894 -258.087 424.094ZM-392.58 422.838C-407 425.093 -420.258 432.345 -430.378 443.515C-437.131 450.967 -439.655 454.782 -443.105 462.747C-448.007 474.068 -449.446 481.447 -449.446 495.265C-449.446 512.677 -444.706 527.53 -434.975 540.607C-420.964 559.436 -397.746 569.715 -376.897 566.319C-360.262 563.608 -350.581 558.259 -338.847 545.292C-327.051 532.256 -322.763 522.602 -320.402 503.769C-317.141 477.76 -326.968 452.161 -346.211 436.542C-352.014 431.832 -364.032 425.227 -366.8 425.227C-367.889 425.227 -369.464 424.821 -370.3 424.325C-372.034 423.296 -388.488 422.199 -392.58 422.838ZM-108.851 507.225C-114.586 508.392 -123.643 512.002 -128.559 515.082C-132.492 517.545 -143.415 526.994 -145.266 529.534C-151.857 538.578 -158.336 550.73 -158.343 554.06C-158.345 554.756 -158.709 556.106 -159.151 557.062C-160.576 560.134 -161.957 570.708 -161.957 578.543C-161.957 603.41 -151.012 625.611 -132.288 638.726C-120.178 647.208 -110.636 650.348 -96.9668 650.348C-76.3696 650.348 -57.5216 639.997 -44.7963 621.698C-28.0921 597.678 -27.7824 561.045 -44.0732 536.287C-49.063 528.703 -48.8753 528.924 -55.4455 522.956C-67.8207 511.714 -78.4384 507.275 -94.2589 506.728C-99.9681 506.531 -106.535 506.755 -108.851 507.225Z" fill="url(#paint0_linear_232_15)"/>
</g>
<defs>
<linearGradient id="paint0_linear_232_15" x1="-429.138" y1="607.325" x2="212.571" y2="216.478" gradientUnits="userSpaceOnUse">
<stop stop-color="#97FF58"/>
<stop offset="1" stop-color="#7EFFF0"/>
</linearGradient>
<clipPath id="clip0_232_15">
<rect width="260" height="654" fill="white"/>
</clipPath>
</defs>
</svg>
