<svg width="282" height="175" viewBox="0 0 282 175" fill="none" xmlns="http://www.w3.org/2000/svg">
<path fill-rule="evenodd" clip-rule="evenodd" d="M117.753 44.7779L101.138 16L18 160H184.277L166.688 129.535C161.794 131.135 156.567 132 151.138 132C123.524 132 101.138 109.614 101.138 82C101.138 67.2166 107.554 53.9318 117.753 44.7779Z" fill="url(#paint0_linear_194_18)"/>
<circle cx="153.639" cy="80.5" r="27.5" fill="url(#paint1_linear_194_18)"/>
<circle cx="206" cy="97" r="11" fill="url(#paint2_linear_194_18)"/>
<circle cx="211" cy="35" r="11" fill="url(#paint3_linear_194_18)"/>
<circle cx="253" cy="57" r="11" fill="url(#paint4_linear_194_18)"/>
<defs>
<linearGradient id="paint0_linear_194_18" x1="12.6387" y1="160" x2="197.139" y2="57.5" gradientUnits="userSpaceOnUse">
<stop stop-color="#FF8A00"/>
<stop offset="1" stop-color="#FF0000"/>
</linearGradient>
<linearGradient id="paint1_linear_194_18" x1="136.139" y1="108" x2="187.139" y2="53" gradientUnits="userSpaceOnUse">
<stop stop-color="#00FF0A"/>
<stop offset="1" stop-color="#0075FF"/>
</linearGradient>
<linearGradient id="paint2_linear_194_18" x1="199" y1="108" x2="219.4" y2="86" gradientUnits="userSpaceOnUse">
<stop stop-color="#00FF0A"/>
<stop offset="1" stop-color="#0075FF"/>
</linearGradient>
<linearGradient id="paint3_linear_194_18" x1="204" y1="46" x2="224.4" y2="24" gradientUnits="userSpaceOnUse">
<stop stop-color="#00FF0A"/>
<stop offset="1" stop-color="#0075FF"/>
</linearGradient>
<linearGradient id="paint4_linear_194_18" x1="246" y1="68" x2="266.4" y2="46" gradientUnits="userSpaceOnUse">
<stop stop-color="#00FF0A"/>
<stop offset="1" stop-color="#0075FF"/>
</linearGradient>
</defs>
</svg>
