<svg width="590" height="200" viewBox="0 0 590 200" fill="none" xmlns="http://www.w3.org/2000/svg">
<circle cx="50" cy="149.985" r="49.5" stroke="url(#paint0_linear_0_1)"/>
<circle cx="60" cy="148.988" r="49.5" stroke="url(#paint1_linear_0_1)"/>
<circle cx="70" cy="146.038" r="49.5" stroke="url(#paint2_linear_0_1)"/>
<circle cx="80" cy="141.251" r="49.5" stroke="url(#paint3_linear_0_1)"/>
<circle cx="90" cy="134.82" r="49.5" stroke="url(#paint4_linear_0_1)"/>
<circle cx="100" cy="127" r="49.5" stroke="url(#paint5_linear_0_1)"/>
<circle cx="110" cy="118.103" r="49.5" stroke="url(#paint6_linear_0_1)"/>
<circle cx="120" cy="108.483" r="49.5" stroke="url(#paint7_linear_0_1)"/>
<circle cx="130" cy="98.5247" r="49.5" stroke="url(#paint8_linear_0_1)"/>
<circle cx="140" cy="88.6245" r="49.5" stroke="url(#paint9_linear_0_1)"/>
<circle cx="150" cy="79.1773" r="49.5" stroke="url(#paint10_linear_0_1)"/>
<circle cx="160" cy="70.5596" r="49.5" stroke="url(#paint11_linear_0_1)"/>
<circle cx="170" cy="63.115" r="49.5" stroke="url(#paint12_linear_0_1)"/>
<circle cx="180" cy="57.1402" r="49.5" stroke="url(#paint13_linear_0_1)"/>
<circle cx="190" cy="52.8735" r="49.5" stroke="url(#paint14_linear_0_1)"/>
<circle cx="200" cy="50.485" r="49.5" stroke="url(#paint15_linear_0_1)"/>
<circle cx="210" cy="50.0699" r="49.5" stroke="url(#paint16_linear_0_1)"/>
<circle cx="220" cy="51.6447" r="49.5" stroke="url(#paint17_linear_0_1)"/>
<circle cx="230" cy="55.1467" r="49.5" stroke="url(#paint18_linear_0_1)"/>
<circle cx="240" cy="60.4363" r="49.5" stroke="url(#paint19_linear_0_1)"/>
<circle cx="250" cy="67.3025" r="49.5" stroke="url(#paint20_linear_0_1)"/>
<circle cx="260" cy="75.4716" r="49.5" stroke="url(#paint21_linear_0_1)"/>
<circle cx="270" cy="84.618" r="49.5" stroke="url(#paint22_linear_0_1)"/>
<circle cx="280" cy="94.377" r="49.5" stroke="url(#paint23_linear_0_1)"/>
<circle cx="290" cy="104.36" r="49.5" stroke="url(#paint24_linear_0_1)"/>
<circle cx="300" cy="114.168" r="49.5" stroke="url(#paint25_linear_0_1)"/>
<circle cx="310" cy="123.41" r="49.5" stroke="url(#paint26_linear_0_1)"/>
<circle cx="320" cy="131.719" r="49.5" stroke="url(#paint27_linear_0_1)"/>
<circle cx="330" cy="138.763" r="49.5" stroke="url(#paint28_linear_0_1)"/>
<circle cx="340" cy="144.261" r="49.5" stroke="url(#paint29_linear_0_1)"/>
<circle cx="350" cy="147.993" r="49.5" stroke="url(#paint30_linear_0_1)"/>
<circle cx="360" cy="149.812" r="49.5" stroke="url(#paint31_linear_0_1)"/>
<circle cx="370" cy="149.644" r="49.5" stroke="url(#paint32_linear_0_1)"/>
<circle cx="380" cy="147.496" r="49.5" stroke="url(#paint33_linear_0_1)"/>
<circle cx="390" cy="143.455" r="49.5" stroke="url(#paint34_linear_0_1)"/>
<circle cx="400" cy="137.68" r="49.5" stroke="url(#paint35_linear_0_1)"/>
<circle cx="410" cy="130.402" r="49.5" stroke="url(#paint36_linear_0_1)"/>
<circle cx="420" cy="121.912" r="49.5" stroke="url(#paint37_linear_0_1)"/>
<circle cx="430" cy="112.548" r="49.5" stroke="url(#paint38_linear_0_1)"/>
<circle cx="440" cy="102.682" r="49.5" stroke="url(#paint39_linear_0_1)"/>
<circle cx="450" cy="92.7097" r="49.5" stroke="url(#paint40_linear_0_1)"/>
<circle cx="460" cy="83.0269" r="49.5" stroke="url(#paint41_linear_0_1)"/>
<circle cx="470" cy="74.0202" r="49.5" stroke="url(#paint42_linear_0_1)"/>
<circle cx="480" cy="66.0486" r="49.5" stroke="url(#paint43_linear_0_1)"/>
<circle cx="490" cy="59.43" r="49.5" stroke="url(#paint44_linear_0_1)"/>
<circle cx="500" cy="54.4281" r="49.5" stroke="url(#paint45_linear_0_1)"/>
<circle cx="510" cy="51.2425" r="49.5" stroke="url(#paint46_linear_0_1)"/>
<circle cx="520" cy="50" r="49.5" stroke="url(#paint47_linear_0_1)"/>
<circle cx="530" cy="50.7502" r="49.5" stroke="url(#paint48_linear_0_1)"/>
<circle cx="540" cy="53.4633" r="49.5" stroke="url(#paint49_linear_0_1)"/>
<defs>
<linearGradient id="paint0_linear_0_1" x1="50" y1="99.9846" x2="50" y2="199.985" gradientUnits="userSpaceOnUse">
<stop stop-color="#FF1500"/>
<stop offset="1" stop-color="#05FF00"/>
</linearGradient>
<linearGradient id="paint1_linear_0_1" x1="60" y1="98.988" x2="60" y2="198.988" gradientUnits="userSpaceOnUse">
<stop stop-color="#FF1500"/>
<stop offset="1" stop-color="#05FF00"/>
</linearGradient>
<linearGradient id="paint2_linear_0_1" x1="70" y1="96.0377" x2="70" y2="196.038" gradientUnits="userSpaceOnUse">
<stop stop-color="#FF1500"/>
<stop offset="1" stop-color="#05FF00"/>
</linearGradient>
<linearGradient id="paint3_linear_0_1" x1="80" y1="91.2514" x2="80" y2="191.251" gradientUnits="userSpaceOnUse">
<stop stop-color="#FF1500"/>
<stop offset="1" stop-color="#05FF00"/>
</linearGradient>
<linearGradient id="paint4_linear_0_1" x1="90" y1="84.82" x2="90" y2="184.82" gradientUnits="userSpaceOnUse">
<stop stop-color="#FF1500"/>
<stop offset="1" stop-color="#05FF00"/>
</linearGradient>
<linearGradient id="paint5_linear_0_1" x1="100" y1="76.9998" x2="100" y2="177" gradientUnits="userSpaceOnUse">
<stop stop-color="#FF1500"/>
<stop offset="1" stop-color="#05FF00"/>
</linearGradient>
<linearGradient id="paint6_linear_0_1" x1="110" y1="68.1025" x2="110" y2="168.103" gradientUnits="userSpaceOnUse">
<stop stop-color="#FF1500"/>
<stop offset="1" stop-color="#05FF00"/>
</linearGradient>
<linearGradient id="paint7_linear_0_1" x1="120" y1="58.483" x2="120" y2="158.483" gradientUnits="userSpaceOnUse">
<stop stop-color="#FF1500"/>
<stop offset="1" stop-color="#05FF00"/>
</linearGradient>
<linearGradient id="paint8_linear_0_1" x1="130" y1="48.5247" x2="130" y2="148.525" gradientUnits="userSpaceOnUse">
<stop stop-color="#FF1500"/>
<stop offset="1" stop-color="#05FF00"/>
</linearGradient>
<linearGradient id="paint9_linear_0_1" x1="140" y1="38.6245" x2="140" y2="138.625" gradientUnits="userSpaceOnUse">
<stop stop-color="#FF1500"/>
<stop offset="1" stop-color="#05FF00"/>
</linearGradient>
<linearGradient id="paint10_linear_0_1" x1="150" y1="29.1773" x2="150" y2="129.177" gradientUnits="userSpaceOnUse">
<stop stop-color="#FF1500"/>
<stop offset="1" stop-color="#05FF00"/>
</linearGradient>
<linearGradient id="paint11_linear_0_1" x1="160" y1="20.5596" x2="160" y2="120.56" gradientUnits="userSpaceOnUse">
<stop stop-color="#FF1500"/>
<stop offset="1" stop-color="#05FF00"/>
</linearGradient>
<linearGradient id="paint12_linear_0_1" x1="170" y1="13.115" x2="170" y2="113.115" gradientUnits="userSpaceOnUse">
<stop stop-color="#FF1500"/>
<stop offset="1" stop-color="#05FF00"/>
</linearGradient>
<linearGradient id="paint13_linear_0_1" x1="180" y1="7.14023" x2="180" y2="107.14" gradientUnits="userSpaceOnUse">
<stop stop-color="#FF1500"/>
<stop offset="1" stop-color="#05FF00"/>
</linearGradient>
<linearGradient id="paint14_linear_0_1" x1="190" y1="2.87354" x2="190" y2="102.874" gradientUnits="userSpaceOnUse">
<stop stop-color="#FF1500"/>
<stop offset="1" stop-color="#05FF00"/>
</linearGradient>
<linearGradient id="paint15_linear_0_1" x1="200" y1="0.485016" x2="200" y2="100.485" gradientUnits="userSpaceOnUse">
<stop stop-color="#FF1500"/>
<stop offset="1" stop-color="#05FF00"/>
</linearGradient>
<linearGradient id="paint16_linear_0_1" x1="210" y1="0.0699158" x2="210" y2="100.07" gradientUnits="userSpaceOnUse">
<stop stop-color="#FF1500"/>
<stop offset="1" stop-color="#05FF00"/>
</linearGradient>
<linearGradient id="paint17_linear_0_1" x1="220" y1="1.64474" x2="220" y2="101.645" gradientUnits="userSpaceOnUse">
<stop stop-color="#FF1500"/>
<stop offset="1" stop-color="#05FF00"/>
</linearGradient>
<linearGradient id="paint18_linear_0_1" x1="230" y1="5.14673" x2="230" y2="105.147" gradientUnits="userSpaceOnUse">
<stop stop-color="#FF1500"/>
<stop offset="1" stop-color="#05FF00"/>
</linearGradient>
<linearGradient id="paint19_linear_0_1" x1="240" y1="10.4363" x2="240" y2="110.436" gradientUnits="userSpaceOnUse">
<stop stop-color="#FF1500"/>
<stop offset="1" stop-color="#05FF00"/>
</linearGradient>
<linearGradient id="paint20_linear_0_1" x1="250" y1="17.3025" x2="250" y2="117.302" gradientUnits="userSpaceOnUse">
<stop stop-color="#FF1500"/>
<stop offset="1" stop-color="#05FF00"/>
</linearGradient>
<linearGradient id="paint21_linear_0_1" x1="260" y1="25.4716" x2="260" y2="125.472" gradientUnits="userSpaceOnUse">
<stop stop-color="#FF1500"/>
<stop offset="1" stop-color="#05FF00"/>
</linearGradient>
<linearGradient id="paint22_linear_0_1" x1="270" y1="34.618" x2="270" y2="134.618" gradientUnits="userSpaceOnUse">
<stop stop-color="#FF1500"/>
<stop offset="1" stop-color="#05FF00"/>
</linearGradient>
<linearGradient id="paint23_linear_0_1" x1="280" y1="44.377" x2="280" y2="144.377" gradientUnits="userSpaceOnUse">
<stop stop-color="#FF1500"/>
<stop offset="1" stop-color="#05FF00"/>
</linearGradient>
<linearGradient id="paint24_linear_0_1" x1="290" y1="54.3596" x2="290" y2="154.36" gradientUnits="userSpaceOnUse">
<stop stop-color="#FF1500"/>
<stop offset="1" stop-color="#05FF00"/>
</linearGradient>
<linearGradient id="paint25_linear_0_1" x1="300" y1="64.1678" x2="300" y2="164.168" gradientUnits="userSpaceOnUse">
<stop stop-color="#FF1500"/>
<stop offset="1" stop-color="#05FF00"/>
</linearGradient>
<linearGradient id="paint26_linear_0_1" x1="310" y1="73.4105" x2="310" y2="173.41" gradientUnits="userSpaceOnUse">
<stop stop-color="#FF1500"/>
<stop offset="1" stop-color="#05FF00"/>
</linearGradient>
<linearGradient id="paint27_linear_0_1" x1="320" y1="81.7193" x2="320" y2="181.719" gradientUnits="userSpaceOnUse">
<stop stop-color="#FF1500"/>
<stop offset="1" stop-color="#05FF00"/>
</linearGradient>
<linearGradient id="paint28_linear_0_1" x1="330" y1="88.7629" x2="330" y2="188.763" gradientUnits="userSpaceOnUse">
<stop stop-color="#FF1500"/>
<stop offset="1" stop-color="#05FF00"/>
</linearGradient>
<linearGradient id="paint29_linear_0_1" x1="340" y1="94.2606" x2="340" y2="194.261" gradientUnits="userSpaceOnUse">
<stop stop-color="#FF1500"/>
<stop offset="1" stop-color="#05FF00"/>
</linearGradient>
<linearGradient id="paint30_linear_0_1" x1="350" y1="97.9932" x2="350" y2="197.993" gradientUnits="userSpaceOnUse">
<stop stop-color="#FF1500"/>
<stop offset="1" stop-color="#05FF00"/>
</linearGradient>
<linearGradient id="paint31_linear_0_1" x1="360" y1="99.8118" x2="360" y2="199.812" gradientUnits="userSpaceOnUse">
<stop stop-color="#FF1500"/>
<stop offset="1" stop-color="#05FF00"/>
</linearGradient>
<linearGradient id="paint32_linear_0_1" x1="370" y1="99.6439" x2="370" y2="199.644" gradientUnits="userSpaceOnUse">
<stop stop-color="#FF1500"/>
<stop offset="1" stop-color="#05FF00"/>
</linearGradient>
<linearGradient id="paint33_linear_0_1" x1="380" y1="97.4963" x2="380" y2="197.496" gradientUnits="userSpaceOnUse">
<stop stop-color="#FF1500"/>
<stop offset="1" stop-color="#05FF00"/>
</linearGradient>
<linearGradient id="paint34_linear_0_1" x1="390" y1="93.4545" x2="390" y2="193.455" gradientUnits="userSpaceOnUse">
<stop stop-color="#FF1500"/>
<stop offset="1" stop-color="#05FF00"/>
</linearGradient>
<linearGradient id="paint35_linear_0_1" x1="400" y1="87.6798" x2="400" y2="187.68" gradientUnits="userSpaceOnUse">
<stop stop-color="#FF1500"/>
<stop offset="1" stop-color="#05FF00"/>
</linearGradient>
<linearGradient id="paint36_linear_0_1" x1="410" y1="80.4022" x2="410" y2="180.402" gradientUnits="userSpaceOnUse">
<stop stop-color="#FF1500"/>
<stop offset="1" stop-color="#05FF00"/>
</linearGradient>
<linearGradient id="paint37_linear_0_1" x1="420" y1="71.912" x2="420" y2="171.912" gradientUnits="userSpaceOnUse">
<stop stop-color="#FF1500"/>
<stop offset="1" stop-color="#05FF00"/>
</linearGradient>
<linearGradient id="paint38_linear_0_1" x1="430" y1="62.5476" x2="430" y2="162.548" gradientUnits="userSpaceOnUse">
<stop stop-color="#FF1500"/>
<stop offset="1" stop-color="#05FF00"/>
</linearGradient>
<linearGradient id="paint39_linear_0_1" x1="440" y1="52.6824" x2="440" y2="152.682" gradientUnits="userSpaceOnUse">
<stop stop-color="#FF1500"/>
<stop offset="1" stop-color="#05FF00"/>
</linearGradient>
<linearGradient id="paint40_linear_0_1" x1="450" y1="42.7097" x2="450" y2="142.71" gradientUnits="userSpaceOnUse">
<stop stop-color="#FF1500"/>
<stop offset="1" stop-color="#05FF00"/>
</linearGradient>
<linearGradient id="paint41_linear_0_1" x1="460" y1="33.0269" x2="460" y2="133.027" gradientUnits="userSpaceOnUse">
<stop stop-color="#FF1500"/>
<stop offset="1" stop-color="#05FF00"/>
</linearGradient>
<linearGradient id="paint42_linear_0_1" x1="470" y1="24.0202" x2="470" y2="124.02" gradientUnits="userSpaceOnUse">
<stop stop-color="#FF1500"/>
<stop offset="1" stop-color="#05FF00"/>
</linearGradient>
<linearGradient id="paint43_linear_0_1" x1="480" y1="16.0486" x2="480" y2="116.049" gradientUnits="userSpaceOnUse">
<stop stop-color="#FF1500"/>
<stop offset="1" stop-color="#05FF00"/>
</linearGradient>
<linearGradient id="paint44_linear_0_1" x1="490" y1="9.42999" x2="490" y2="109.43" gradientUnits="userSpaceOnUse">
<stop stop-color="#FF1500"/>
<stop offset="1" stop-color="#05FF00"/>
</linearGradient>
<linearGradient id="paint45_linear_0_1" x1="500" y1="4.42813" x2="500" y2="104.428" gradientUnits="userSpaceOnUse">
<stop stop-color="#FF1500"/>
<stop offset="1" stop-color="#05FF00"/>
</linearGradient>
<linearGradient id="paint46_linear_0_1" x1="510" y1="1.24246" x2="510" y2="101.242" gradientUnits="userSpaceOnUse">
<stop stop-color="#FF1500"/>
<stop offset="1" stop-color="#05FF00"/>
</linearGradient>
<linearGradient id="paint47_linear_0_1" x1="520" y1="0" x2="520" y2="100" gradientUnits="userSpaceOnUse">
<stop stop-color="#FF1500"/>
<stop offset="1" stop-color="#05FF00"/>
</linearGradient>
<linearGradient id="paint48_linear_0_1" x1="530" y1="0.750244" x2="530" y2="100.75" gradientUnits="userSpaceOnUse">
<stop stop-color="#FF1500"/>
<stop offset="1" stop-color="#05FF00"/>
</linearGradient>
<linearGradient id="paint49_linear_0_1" x1="540" y1="3.46335" x2="540" y2="103.463" gradientUnits="userSpaceOnUse">
<stop stop-color="#FF1500"/>
<stop offset="1" stop-color="#05FF00"/>
</linearGradient>
</defs>
</svg>
