<svg width="265" height="100" viewBox="0 0 265 100" fill="none" xmlns="http://www.w3.org/2000/svg">
<path fill-rule="evenodd" clip-rule="evenodd" d="M61 16.2058C58.2154 14.5981 54.7846 14.5981 52 16.2058L29.5 29.1962C26.7154 30.8038 25 33.775 25 36.9904V62.9711C25 66.1865 26.7154 69.1577 29.5 70.7654L52 83.7557C54.7846 85.3634 58.2154 85.3634 61 83.7557L83.5 70.7654C86.2846 69.1577 88 66.1865 88 62.9711V36.9904C88 33.775 86.2846 30.8038 83.5 29.1962L61 16.2058ZM60.4175 18.6736C57.6329 17.0659 54.2021 17.0659 51.4175 18.6736L31.1225 30.3909C28.3378 31.9986 26.6225 34.9697 26.6225 38.1851V61.6198C26.6225 64.8352 28.3379 67.8063 31.1225 69.414L51.4175 81.1313C54.2021 82.739 57.6329 82.739 60.4175 81.1313L80.7125 69.414C83.4971 67.8063 85.2125 64.8352 85.2125 61.6198V38.1851C85.2125 34.9697 83.4971 31.9986 80.7125 30.3909L60.4175 18.6736Z" fill="url(#paint0_linear_204_48)"/>
<path fill-rule="evenodd" clip-rule="evenodd" d="M137 16.2058C134.215 14.5981 130.785 14.5981 128 16.2058L105.5 29.1962C102.715 30.8038 101 33.775 101 36.9904V62.9711C101 66.1865 102.715 69.1577 105.5 70.7654L128 83.7558C130.785 85.3634 134.215 85.3634 137 83.7558L159.5 70.7654C162.285 69.1577 164 66.1865 164 62.9711V36.9904C164 33.775 162.285 30.8038 159.5 29.1962L137 16.2058ZM136.417 18.6736C133.633 17.0659 130.202 17.0659 127.417 18.6736L107.122 30.3909C104.338 31.9986 102.622 34.9697 102.622 38.1851V61.6198C102.622 64.8352 104.338 67.8063 107.122 69.414L127.417 81.1313C130.202 82.739 133.633 82.739 136.417 81.1313L156.712 69.414C159.497 67.8063 161.212 64.8352 161.212 61.6198V38.1851C161.212 34.9697 159.497 31.9986 156.712 30.3909L136.417 18.6736Z" fill="url(#paint1_linear_204_48)"/>
<path fill-rule="evenodd" clip-rule="evenodd" d="M213 16.2058C210.215 14.5981 206.785 14.5981 204 16.2058L181.5 29.1962C178.715 30.8038 177 33.775 177 36.9904V62.9711C177 66.1865 178.715 69.1577 181.5 70.7654L204 83.7558C206.785 85.3634 210.215 85.3634 213 83.7558L235.5 70.7654C238.285 69.1577 240 66.1865 240 62.9711V36.9904C240 33.775 238.285 30.8038 235.5 29.1962L213 16.2058ZM212.417 18.6736C209.633 17.0659 206.202 17.0659 203.417 18.6736L183.122 30.3909C180.338 31.9986 178.622 34.9697 178.622 38.1851V61.6198C178.622 64.8352 180.338 67.8063 183.122 69.414L203.417 81.1313C206.202 82.739 209.633 82.739 212.417 81.1313L232.712 69.414C235.497 67.8063 237.212 64.8352 237.212 61.6198V38.1851C237.212 34.9697 235.497 31.9986 232.712 30.3909L212.417 18.6736Z" fill="url(#paint2_linear_204_48)"/>
<path fill-rule="evenodd" clip-rule="evenodd" d="M61 25.2058C58.2154 23.5981 54.7846 23.5981 52 25.2058L37.5 33.5773C34.7154 35.185 33 38.1562 33 41.3716V58.1147C33 61.3301 34.7154 64.3013 37.5 65.909L52 74.2805C54.7846 75.8882 58.2154 75.8882 61 74.2805L75.5 65.909C78.2846 64.3013 80 61.3301 80 58.1147V41.3716C80 38.1562 78.2846 35.185 75.5 33.5773L61 25.2058ZM60.5654 27.0468C57.7808 25.4391 54.35 25.4391 51.5654 27.0468L38.7104 34.4687C35.9258 36.0764 34.2104 39.0475 34.2104 42.2629V57.1066C34.2104 60.322 35.9258 63.2931 38.7104 64.9008L51.5654 72.3226C54.35 73.9303 57.7808 73.9303 60.5654 72.3226L73.4204 64.9008C76.205 63.2931 77.9204 60.322 77.9204 57.1066V42.2629C77.9204 39.0475 76.205 36.0764 73.4204 34.4687L60.5654 27.0468Z" fill="url(#paint3_linear_204_48)"/>
<path fill-rule="evenodd" clip-rule="evenodd" d="M137 25.2058C134.215 23.5981 130.785 23.5981 128 25.2058L113.5 33.5773C110.715 35.185 109 38.1562 109 41.3716V58.1147C109 61.3301 110.715 64.3013 113.5 65.909L128 74.2805C130.785 75.8882 134.215 75.8882 137 74.2805L151.5 65.909C154.285 64.3013 156 61.3301 156 58.1147V41.3716C156 38.1562 154.285 35.185 151.5 33.5773L137 25.2058ZM136.565 27.0468C133.781 25.4391 130.35 25.4391 127.565 27.0468L114.71 34.4687C111.926 36.0764 110.21 39.0475 110.21 42.2629V57.1066C110.21 60.322 111.926 63.2931 114.71 64.9008L127.565 72.3226C130.35 73.9303 133.781 73.9303 136.565 72.3226L149.42 64.9008C152.205 63.2931 153.92 60.322 153.92 57.1066V42.2629C153.92 39.0475 152.205 36.0764 149.42 34.4687L136.565 27.0468Z" fill="url(#paint4_linear_204_48)"/>
<path fill-rule="evenodd" clip-rule="evenodd" d="M213 25.2058C210.215 23.5981 206.785 23.5981 204 25.2058L189.5 33.5773C186.715 35.185 185 38.1562 185 41.3716V58.1147C185 61.3301 186.715 64.3013 189.5 65.909L204 74.2805C206.785 75.8882 210.215 75.8882 213 74.2805L227.5 65.909C230.285 64.3013 232 61.3301 232 58.1147V41.3716C232 38.1562 230.285 35.185 227.5 33.5773L213 25.2058ZM212.565 27.0468C209.781 25.4391 206.35 25.4391 203.565 27.0468L190.71 34.4687C187.926 36.0764 186.21 39.0475 186.21 42.2629V57.1066C186.21 60.322 187.926 63.2931 190.71 64.9008L203.565 72.3226C206.35 73.9303 209.781 73.9303 212.565 72.3226L225.42 64.9008C228.205 63.2931 229.92 60.322 229.92 57.1066V42.2629C229.92 39.0475 228.205 36.0764 225.42 34.4687L212.565 27.0468Z" fill="url(#paint5_linear_204_48)"/>
<path fill-rule="evenodd" clip-rule="evenodd" d="M61 32.2058C58.2154 30.5981 54.7846 30.5981 52 32.2058L43.5 37.1133C40.7154 38.7209 39 41.6921 39 44.9075V54.7224C39 57.9378 40.7154 60.909 43.5 62.5167L52 67.4241C54.7846 69.0318 58.2154 69.0318 61 67.4241L69.5 62.5167C72.2846 60.909 74 57.9378 74 54.7224V44.9075C74 41.6921 72.2846 38.7209 69.5 37.1133L61 32.2058ZM60.6792 33.5764C57.8946 31.9687 54.4639 31.9687 51.6792 33.5764L44.4042 37.7766C41.6196 39.3843 39.9042 42.3554 39.9042 45.5708V53.9713C39.9042 57.1867 41.6196 60.1578 44.4042 61.7655L51.6792 65.9657C54.4639 67.5734 57.8946 67.5734 60.6792 65.9657L67.9542 61.7655C70.7389 60.1578 72.4542 57.1867 72.4542 53.9713V45.5708C72.4542 42.3554 70.7389 39.3843 67.9542 37.7766L60.6792 33.5764Z" fill="url(#paint6_linear_204_48)"/>
<path fill-rule="evenodd" clip-rule="evenodd" d="M137 32.2058C134.215 30.5981 130.785 30.5981 128 32.2058L119.5 37.1133C116.715 38.7209 115 41.6921 115 44.9075V54.7224C115 57.9378 116.715 60.909 119.5 62.5167L128 67.4241C130.785 69.0318 134.215 69.0318 137 67.4241L145.5 62.5167C148.285 60.909 150 57.9378 150 54.7224V44.9075C150 41.6921 148.285 38.7209 145.5 37.1133L137 32.2058ZM136.679 33.5764C133.895 31.9687 130.464 31.9687 127.679 33.5764L120.404 37.7766C117.62 39.3843 115.904 42.3554 115.904 45.5708V53.9713C115.904 57.1867 117.62 60.1578 120.404 61.7655L127.679 65.9657C130.464 67.5734 133.895 67.5734 136.679 65.9657L143.954 61.7655C146.739 60.1578 148.454 57.1867 148.454 53.9713V45.5708C148.454 42.3554 146.739 39.3843 143.954 37.7766L136.679 33.5764Z" fill="url(#paint7_linear_204_48)"/>
<path fill-rule="evenodd" clip-rule="evenodd" d="M213 32.2058C210.215 30.5981 206.785 30.5981 204 32.2058L195.5 37.1133C192.715 38.7209 191 41.6921 191 44.9075V54.7224C191 57.9378 192.715 60.909 195.5 62.5167L204 67.4241C206.785 69.0318 210.215 69.0318 213 67.4241L221.5 62.5167C224.285 60.909 226 57.9378 226 54.7224V44.9075C226 41.6921 224.285 38.7209 221.5 37.1133L213 32.2058ZM212.679 33.5764C209.895 31.9687 206.464 31.9687 203.679 33.5764L196.404 37.7766C193.62 39.3843 191.904 42.3554 191.904 45.5708V53.9713C191.904 57.1867 193.62 60.1578 196.404 61.7655L203.679 65.9657C206.464 67.5734 209.895 67.5734 212.679 65.9657L219.954 61.7655C222.739 60.1578 224.454 57.1867 224.454 53.9713V45.5708C224.454 42.3554 222.739 39.3843 219.954 37.7766L212.679 33.5764Z" fill="url(#paint8_linear_204_48)"/>
<defs>
<linearGradient id="paint0_linear_204_48" x1="61.956" y1="17.2365" x2="56.6159" y2="85.9726" gradientUnits="userSpaceOnUse">
<stop stop-color="#61FF00"/>
<stop offset="1" stop-color="#00D1FF"/>
</linearGradient>
<linearGradient id="paint1_linear_204_48" x1="137.956" y1="17.2365" x2="132.616" y2="85.9726" gradientUnits="userSpaceOnUse">
<stop stop-color="#61FF00"/>
<stop offset="1" stop-color="#00D1FF"/>
</linearGradient>
<linearGradient id="paint2_linear_204_48" x1="213.956" y1="17.2365" x2="208.616" y2="85.9726" gradientUnits="userSpaceOnUse">
<stop stop-color="#61FF00"/>
<stop offset="1" stop-color="#00D1FF"/>
</linearGradient>
<linearGradient id="paint3_linear_204_48" x1="60.5704" y1="25.6459" x2="56.6931" y2="76.2386" gradientUnits="userSpaceOnUse">
<stop stop-color="#61FF00"/>
<stop offset="1" stop-color="#00D1FF"/>
</linearGradient>
<linearGradient id="paint4_linear_204_48" x1="136.57" y1="25.6459" x2="132.693" y2="76.2386" gradientUnits="userSpaceOnUse">
<stop stop-color="#61FF00"/>
<stop offset="1" stop-color="#00D1FF"/>
</linearGradient>
<linearGradient id="paint5_linear_204_48" x1="212.57" y1="25.6459" x2="208.693" y2="76.2386" gradientUnits="userSpaceOnUse">
<stop stop-color="#61FF00"/>
<stop offset="1" stop-color="#00D1FF"/>
</linearGradient>
<linearGradient id="paint6_linear_204_48" x1="59.5311" y1="32.2029" x2="56.7493" y2="69.1877" gradientUnits="userSpaceOnUse">
<stop stop-color="#61FF00"/>
<stop offset="1" stop-color="#00D1FF"/>
</linearGradient>
<linearGradient id="paint7_linear_204_48" x1="135.531" y1="32.2029" x2="132.749" y2="69.1877" gradientUnits="userSpaceOnUse">
<stop stop-color="#61FF00"/>
<stop offset="1" stop-color="#00D1FF"/>
</linearGradient>
<linearGradient id="paint8_linear_204_48" x1="211.531" y1="32.2029" x2="208.749" y2="69.1877" gradientUnits="userSpaceOnUse">
<stop stop-color="#61FF00"/>
<stop offset="1" stop-color="#00D1FF"/>
</linearGradient>
</defs>
</svg>
