<svg width="215" height="70" viewBox="0 0 215 70" fill="none" xmlns="http://www.w3.org/2000/svg">
<path fill-rule="evenodd" clip-rule="evenodd" d="M36 1.20577C33.2154 -0.401924 29.7846 -0.401923 27 1.20577L4.5 14.1962C1.71539 15.8038 0 18.775 0 21.9904V47.9711C0 51.1865 1.71539 54.1577 4.5 55.7654L27 68.7557C29.7846 70.3634 33.2154 70.3634 36 68.7557L58.5 55.7654C61.2846 54.1577 63 51.1865 63 47.9711V21.9904C63 18.775 61.2846 15.8038 58.5 14.1962L36 1.20577ZM35.4175 3.67356C32.6329 2.06587 29.2021 2.06587 26.4175 3.67356L6.12246 15.3909C3.33785 16.9986 1.62246 19.9697 1.62246 23.1851V46.6198C1.62246 49.8352 3.33786 52.8063 6.12246 54.414L26.4175 66.1313C29.2021 67.739 32.6329 67.739 35.4175 66.1313L55.7125 54.414C58.4971 52.8063 60.2125 49.8352 60.2125 46.6198V23.1851C60.2125 19.9697 58.4971 16.9986 55.7125 15.3909L35.4175 3.67356Z" fill="url(#paint0_linear_0_1)"/>
<path fill-rule="evenodd" clip-rule="evenodd" d="M112 1.20577C109.215 -0.401924 105.785 -0.401923 103 1.20577L80.5 14.1962C77.7154 15.8038 76 18.775 76 21.9904V47.9711C76 51.1865 77.7154 54.1577 80.5 55.7654L103 68.7558C105.785 70.3634 109.215 70.3634 112 68.7558L134.5 55.7654C137.285 54.1577 139 51.1865 139 47.9711V21.9904C139 18.775 137.285 15.8038 134.5 14.1962L112 1.20577ZM111.417 3.67356C108.633 2.06587 105.202 2.06587 102.417 3.67356L82.1225 15.3909C79.3379 16.9986 77.6225 19.9697 77.6225 23.1851V46.6198C77.6225 49.8352 79.3379 52.8063 82.1225 54.414L102.417 66.1313C105.202 67.739 108.633 67.739 111.417 66.1313L131.712 54.414C134.497 52.8063 136.212 49.8352 136.212 46.6198V23.1851C136.212 19.9697 134.497 16.9986 131.712 15.3909L111.417 3.67356Z" fill="url(#paint1_linear_0_1)"/>
<path fill-rule="evenodd" clip-rule="evenodd" d="M188 1.20577C185.215 -0.401924 181.785 -0.401923 179 1.20577L156.5 14.1962C153.715 15.8038 152 18.775 152 21.9904V47.9711C152 51.1865 153.715 54.1577 156.5 55.7654L179 68.7558C181.785 70.3634 185.215 70.3634 188 68.7558L210.5 55.7654C213.285 54.1577 215 51.1865 215 47.9711V21.9904C215 18.775 213.285 15.8038 210.5 14.1962L188 1.20577ZM187.417 3.67356C184.633 2.06587 181.202 2.06587 178.417 3.67356L158.122 15.3909C155.338 16.9986 153.622 19.9697 153.622 23.1851V46.6198C153.622 49.8352 155.338 52.8063 158.122 54.414L178.417 66.1313C181.202 67.739 184.633 67.739 187.417 66.1313L207.712 54.414C210.497 52.8063 212.212 49.8352 212.212 46.6198V23.1851C212.212 19.9697 210.497 16.9986 207.712 15.3909L187.417 3.67356Z" fill="url(#paint2_linear_0_1)"/>
<path fill-rule="evenodd" clip-rule="evenodd" d="M36 10.2058C33.2154 8.59807 29.7846 8.59808 27 10.2058L12.5 18.5773C9.71539 20.185 8 23.1562 8 26.3716V43.1147C8 46.3301 9.71539 49.3013 12.5 50.909L27 59.2805C29.7846 60.8882 33.2154 60.8882 36 59.2805L50.5 50.909C53.2846 49.3013 55 46.3301 55 43.1147V26.3716C55 23.1562 53.2846 20.185 50.5 18.5773L36 10.2058ZM35.5654 12.0468C32.7808 10.4391 29.35 10.4391 26.5654 12.0468L13.7104 19.4687C10.9258 21.0764 9.21041 24.0475 9.21041 27.2629V42.1066C9.21041 45.322 10.9258 48.2931 13.7104 49.9008L26.5654 57.3226C29.35 58.9303 32.7808 58.9303 35.5654 57.3226L48.4204 49.9008C51.205 48.2931 52.9204 45.322 52.9204 42.1066V27.2629C52.9204 24.0475 51.205 21.0764 48.4204 19.4687L35.5654 12.0468Z" fill="url(#paint3_linear_0_1)"/>
<path fill-rule="evenodd" clip-rule="evenodd" d="M112 10.2058C109.215 8.59807 105.785 8.59808 103 10.2058L88.5 18.5773C85.7154 20.185 84 23.1562 84 26.3716V43.1147C84 46.3301 85.7154 49.3013 88.5 50.909L103 59.2805C105.785 60.8882 109.215 60.8882 112 59.2805L126.5 50.909C129.285 49.3013 131 46.3301 131 43.1147V26.3716C131 23.1562 129.285 20.185 126.5 18.5773L112 10.2058ZM111.565 12.0468C108.781 10.4391 105.35 10.4391 102.565 12.0468L89.7104 19.4687C86.9258 21.0764 85.2104 24.0475 85.2104 27.2629V42.1066C85.2104 45.322 86.9258 48.2931 89.7104 49.9008L102.565 57.3226C105.35 58.9303 108.781 58.9303 111.565 57.3226L124.42 49.9008C127.205 48.2931 128.92 45.322 128.92 42.1066V27.2629C128.92 24.0475 127.205 21.0764 124.42 19.4687L111.565 12.0468Z" fill="url(#paint4_linear_0_1)"/>
<path fill-rule="evenodd" clip-rule="evenodd" d="M188 10.2058C185.215 8.59807 181.785 8.59808 179 10.2058L164.5 18.5773C161.715 20.185 160 23.1562 160 26.3716V43.1147C160 46.3301 161.715 49.3013 164.5 50.909L179 59.2805C181.785 60.8882 185.215 60.8882 188 59.2805L202.5 50.909C205.285 49.3013 207 46.3301 207 43.1147V26.3716C207 23.1562 205.285 20.185 202.5 18.5773L188 10.2058ZM187.565 12.0468C184.781 10.4391 181.35 10.4391 178.565 12.0468L165.71 19.4687C162.926 21.0764 161.21 24.0475 161.21 27.2629V42.1066C161.21 45.322 162.926 48.2931 165.71 49.9008L178.565 57.3226C181.35 58.9303 184.781 58.9303 187.565 57.3226L200.42 49.9008C203.205 48.2931 204.92 45.322 204.92 42.1066V27.2629C204.92 24.0475 203.205 21.0764 200.42 19.4687L187.565 12.0468Z" fill="url(#paint5_linear_0_1)"/>
<path fill-rule="evenodd" clip-rule="evenodd" d="M36 17.2058C33.2154 15.5981 29.7846 15.5981 27 17.2058L18.5 22.1133C15.7154 23.7209 14 26.6921 14 29.9075V39.7224C14 42.9378 15.7154 45.909 18.5 47.5167L27 52.4241C29.7846 54.0318 33.2154 54.0318 36 52.4241L44.5 47.5167C47.2846 45.909 49 42.9378 49 39.7224V29.9075C49 26.6921 47.2846 23.7209 44.5 22.1133L36 17.2058ZM35.6792 18.5764C32.8946 16.9687 29.4639 16.9687 26.6792 18.5764L19.4042 22.7766C16.6196 24.3843 14.9042 27.3554 14.9042 30.5708V38.9713C14.9042 42.1867 16.6196 45.1578 19.4042 46.7655L26.6792 50.9657C29.4639 52.5734 32.8946 52.5734 35.6792 50.9657L42.9542 46.7655C45.7389 45.1578 47.4542 42.1867 47.4542 38.9713V30.5708C47.4542 27.3554 45.7389 24.3843 42.9542 22.7766L35.6792 18.5764Z" fill="url(#paint6_linear_0_1)"/>
<path fill-rule="evenodd" clip-rule="evenodd" d="M112 17.2058C109.215 15.5981 105.785 15.5981 103 17.2058L94.5 22.1133C91.7154 23.7209 90 26.6921 90 29.9075V39.7224C90 42.9378 91.7154 45.909 94.5 47.5167L103 52.4241C105.785 54.0318 109.215 54.0318 112 52.4241L120.5 47.5167C123.285 45.909 125 42.9378 125 39.7224V29.9075C125 26.6921 123.285 23.7209 120.5 22.1133L112 17.2058ZM111.679 18.5764C108.895 16.9687 105.464 16.9687 102.679 18.5764L95.4042 22.7766C92.6196 24.3843 90.9042 27.3554 90.9042 30.5708V38.9713C90.9042 42.1867 92.6196 45.1578 95.4042 46.7655L102.679 50.9657C105.464 52.5734 108.895 52.5734 111.679 50.9657L118.954 46.7655C121.739 45.1578 123.454 42.1867 123.454 38.9713V30.5708C123.454 27.3554 121.739 24.3843 118.954 22.7766L111.679 18.5764Z" fill="url(#paint7_linear_0_1)"/>
<path fill-rule="evenodd" clip-rule="evenodd" d="M188 17.2058C185.215 15.5981 181.785 15.5981 179 17.2058L170.5 22.1133C167.715 23.7209 166 26.6921 166 29.9075V39.7224C166 42.9378 167.715 45.909 170.5 47.5167L179 52.4241C181.785 54.0318 185.215 54.0318 188 52.4241L196.5 47.5167C199.285 45.909 201 42.9378 201 39.7224V29.9075C201 26.6921 199.285 23.7209 196.5 22.1133L188 17.2058ZM187.679 18.5764C184.895 16.9687 181.464 16.9687 178.679 18.5764L171.404 22.7766C168.62 24.3843 166.904 27.3554 166.904 30.5708V38.9713C166.904 42.1867 168.62 45.1578 171.404 46.7655L178.679 50.9657C181.464 52.5734 184.895 52.5734 187.679 50.9657L194.954 46.7655C197.739 45.1578 199.454 42.1867 199.454 38.9713V30.5708C199.454 27.3554 197.739 24.3843 194.954 22.7766L187.679 18.5764Z" fill="url(#paint8_linear_0_1)"/>
<defs>
<linearGradient id="paint0_linear_0_1" x1="36.956" y1="2.23645" x2="31.6159" y2="70.9726" gradientUnits="userSpaceOnUse">
<stop stop-color="#61FF00"/>
<stop offset="1" stop-color="#00D1FF"/>
</linearGradient>
<linearGradient id="paint1_linear_0_1" x1="112.956" y1="2.23645" x2="107.616" y2="70.9726" gradientUnits="userSpaceOnUse">
<stop stop-color="#61FF00"/>
<stop offset="1" stop-color="#00D1FF"/>
</linearGradient>
<linearGradient id="paint2_linear_0_1" x1="188.956" y1="2.23645" x2="183.616" y2="70.9726" gradientUnits="userSpaceOnUse">
<stop stop-color="#61FF00"/>
<stop offset="1" stop-color="#00D1FF"/>
</linearGradient>
<linearGradient id="paint3_linear_0_1" x1="35.5704" y1="10.6459" x2="31.6931" y2="61.2386" gradientUnits="userSpaceOnUse">
<stop stop-color="#61FF00"/>
<stop offset="1" stop-color="#00D1FF"/>
</linearGradient>
<linearGradient id="paint4_linear_0_1" x1="111.57" y1="10.6459" x2="107.693" y2="61.2386" gradientUnits="userSpaceOnUse">
<stop stop-color="#61FF00"/>
<stop offset="1" stop-color="#00D1FF"/>
</linearGradient>
<linearGradient id="paint5_linear_0_1" x1="187.57" y1="10.6459" x2="183.693" y2="61.2386" gradientUnits="userSpaceOnUse">
<stop stop-color="#61FF00"/>
<stop offset="1" stop-color="#00D1FF"/>
</linearGradient>
<linearGradient id="paint6_linear_0_1" x1="34.5311" y1="17.2029" x2="31.7493" y2="54.1877" gradientUnits="userSpaceOnUse">
<stop stop-color="#61FF00"/>
<stop offset="1" stop-color="#00D1FF"/>
</linearGradient>
<linearGradient id="paint7_linear_0_1" x1="110.531" y1="17.2029" x2="107.749" y2="54.1877" gradientUnits="userSpaceOnUse">
<stop stop-color="#61FF00"/>
<stop offset="1" stop-color="#00D1FF"/>
</linearGradient>
<linearGradient id="paint8_linear_0_1" x1="186.531" y1="17.2029" x2="183.749" y2="54.1877" gradientUnits="userSpaceOnUse">
<stop stop-color="#61FF00"/>
<stop offset="1" stop-color="#00D1FF"/>
</linearGradient>
</defs>
</svg>