<svg width="213" height="66" viewBox="0 0 213 66" fill="none" xmlns="http://www.w3.org/2000/svg">
<path d="M44.5 21C43.6716 21 43 21.6716 43 22.5C43 23.3284 43.6716 24 44.5 24L169.5 24C170.328 24 171 23.3284 171 22.5C171 21.6716 170.328 21 169.5 21L44.5 21Z" fill="url(#paint0_linear_204_27)"/>
<path d="M27.5 42C26.6716 42 26 42.6716 26 43.5C26 44.3284 26.6716 45 27.5 45L184.5 45C185.328 45 186 44.3284 186 43.5C186 42.6716 185.328 42 184.5 42L27.5 42Z" fill="url(#paint1_linear_204_27)"/>
<path d="M34.5 28C33.6716 28 33 28.6716 33 29.5C33 30.3284 33.6716 31 34.5 31L98.5 31C99.3284 31 100 30.3284 100 29.5C100 28.6716 99.3284 28 98.5 28L34.5 28Z" fill="url(#paint2_linear_204_27)"/>
<path d="M105.5 28C104.672 28 104 28.6716 104 29.5C104 30.3284 104.672 31 105.5 31L156.5 31C157.328 31 158 30.3284 158 29.5C158 28.6716 157.328 28 156.5 28L105.5 28Z" fill="url(#paint3_linear_204_27)"/>
<path d="M23.5 35C22.6716 35 22 35.6716 22 36.5C22 37.3284 22.6716 38 23.5 38H36.5C37.3284 38 38 37.3284 38 36.5C38 35.6716 37.3284 35 36.5 35H23.5Z" fill="url(#paint4_linear_204_27)"/>
<path d="M41.5 35C40.6716 35 40 35.6716 40 36.5C40 37.3284 40.6716 38 41.5 38H54.5C55.3284 38 56 37.3284 56 36.5C56 35.6716 55.3284 35 54.5 35H41.5Z" fill="url(#paint5_linear_204_27)"/>
<path d="M59.5 35C58.6716 35 58 35.6716 58 36.5C58 37.3284 58.6716 38 59.5 38L190.5 38C191.328 38 192 37.3284 192 36.5C192 35.6716 191.328 35 190.5 35L59.5 35Z" fill="url(#paint6_linear_204_27)"/>
<defs>
<linearGradient id="paint0_linear_204_27" x1="43" y1="22.5" x2="155.05" y2="66.1235" gradientUnits="userSpaceOnUse">
<stop stop-color="#52FF00"/>
<stop offset="1" stop-color="#00E0FF"/>
</linearGradient>
<linearGradient id="paint1_linear_204_27" x1="26" y1="43.5" x2="156.407" y2="106.963" gradientUnits="userSpaceOnUse">
<stop stop-color="#52FF00"/>
<stop offset="1" stop-color="#00E0FF"/>
</linearGradient>
<linearGradient id="paint2_linear_204_27" x1="33" y1="29.5" x2="97.8478" y2="42.7151" gradientUnits="userSpaceOnUse">
<stop stop-color="#52FF00"/>
<stop offset="1" stop-color="#00E0FF"/>
</linearGradient>
<linearGradient id="paint3_linear_204_27" x1="104" y1="29.5" x2="157.006" y2="38.206" gradientUnits="userSpaceOnUse">
<stop stop-color="#52FF00"/>
<stop offset="1" stop-color="#00E0FF"/>
</linearGradient>
<linearGradient id="paint4_linear_204_27" x1="22" y1="36.5" x2="38.091" y2="37.2831" gradientUnits="userSpaceOnUse">
<stop stop-color="#52FF00"/>
<stop offset="1" stop-color="#00E0FF"/>
</linearGradient>
<linearGradient id="paint5_linear_204_27" x1="40" y1="36.5" x2="56.091" y2="37.2831" gradientUnits="userSpaceOnUse">
<stop stop-color="#52FF00"/>
<stop offset="1" stop-color="#00E0FF"/>
</linearGradient>
<linearGradient id="paint6_linear_204_27" x1="58" y1="36.5" x2="173.839" y2="83.7128" gradientUnits="userSpaceOnUse">
<stop stop-color="#52FF00"/>
<stop offset="1" stop-color="#00E0FF"/>
</linearGradient>
</defs>
</svg>
