<svg width="170" height="24" viewBox="0 0 170 24" fill="none" xmlns="http://www.w3.org/2000/svg">
<rect x="21" y="3" width="3" height="128" rx="1.5" transform="rotate(-90 21 3)" fill="url(#paint0_linear_194_10)"/>
<rect x="4" y="24" width="3" height="160" rx="1.5" transform="rotate(-90 4 24)" fill="url(#paint1_linear_194_10)"/>
<rect x="11" y="10" width="3" height="67" rx="1.5" transform="rotate(-90 11 10)" fill="url(#paint2_linear_194_10)"/>
<rect x="82" y="10" width="3" height="54" rx="1.5" transform="rotate(-90 82 10)" fill="url(#paint3_linear_194_10)"/>
<rect y="17" width="3" height="16" rx="1.5" transform="rotate(-90 0 17)" fill="url(#paint4_linear_194_10)"/>
<rect x="18" y="17" width="3" height="16" rx="1.5" transform="rotate(-90 18 17)" fill="url(#paint5_linear_194_10)"/>
<rect x="36" y="17" width="3" height="134" rx="1.5" transform="rotate(-90 36 17)" fill="url(#paint6_linear_194_10)"/>
<defs>
<linearGradient id="paint0_linear_194_10" x1="22.5" y1="3" x2="-21.1235" y2="115.05" gradientUnits="userSpaceOnUse">
<stop stop-color="#52FF00"/>
<stop offset="1" stop-color="#00E0FF"/>
</linearGradient>
<linearGradient id="paint1_linear_194_10" x1="5.5" y1="24" x2="-57.963" y2="154.407" gradientUnits="userSpaceOnUse">
<stop stop-color="#52FF00"/>
<stop offset="1" stop-color="#00E0FF"/>
</linearGradient>
<linearGradient id="paint2_linear_194_10" x1="12.5" y1="10" x2="-0.715082" y2="74.8478" gradientUnits="userSpaceOnUse">
<stop stop-color="#52FF00"/>
<stop offset="1" stop-color="#00E0FF"/>
</linearGradient>
<linearGradient id="paint3_linear_194_10" x1="83.5" y1="10" x2="74.794" y2="63.006" gradientUnits="userSpaceOnUse">
<stop stop-color="#52FF00"/>
<stop offset="1" stop-color="#00E0FF"/>
</linearGradient>
<linearGradient id="paint4_linear_194_10" x1="1.5" y1="17" x2="0.716924" y2="33.091" gradientUnits="userSpaceOnUse">
<stop stop-color="#52FF00"/>
<stop offset="1" stop-color="#00E0FF"/>
</linearGradient>
<linearGradient id="paint5_linear_194_10" x1="19.5" y1="17" x2="18.7169" y2="33.091" gradientUnits="userSpaceOnUse">
<stop stop-color="#52FF00"/>
<stop offset="1" stop-color="#00E0FF"/>
</linearGradient>
<linearGradient id="paint6_linear_194_10" x1="37.5" y1="17" x2="-9.71279" y2="132.839" gradientUnits="userSpaceOnUse">
<stop stop-color="#52FF00"/>
<stop offset="1" stop-color="#00E0FF"/>
</linearGradient>
</defs>
</svg>
