<svg width="648" height="388" viewBox="0 0 648 388" fill="none" xmlns="http://www.w3.org/2000/svg">
<rect width="648" height="388" fill=""/>
<path fill-rule="evenodd" clip-rule="evenodd" d="M335.347 103.343C332.621 103.775 330.76 106.336 331.191 109.064L357.472 274.996C357.904 277.723 360.467 279.584 363.193 279.152L393.812 274.302L398.974 306.896C399.406 309.624 401.967 311.484 404.695 311.052L570.627 284.772C573.353 284.339 575.215 281.778 574.783 279.051L548.502 113.119C548.07 110.392 545.508 108.531 542.781 108.963L512.162 113.812L507 81.2186C506.568 78.491 504.008 76.6302 501.279 77.0623L335.347 103.343ZM512.162 113.812L376.849 135.244C374.123 135.676 372.261 138.237 372.693 140.964L393.812 274.302L529.125 252.871C531.853 252.439 533.713 249.878 533.281 247.15L512.162 113.812ZM78.2185 103.57C75.49 104.003 73.6306 106.564 74.0622 109.291L100.343 275.223C100.775 277.95 103.336 279.811 106.064 279.379L136.681 274.53L141.843 307.123C142.277 309.851 144.838 311.711 147.564 311.28L313.496 284.999C316.224 284.567 318.086 282.005 317.652 279.278L291.373 113.346C290.939 110.619 288.379 108.758 285.652 109.19L255.033 114.039L249.871 81.4456C249.439 78.7183 246.877 76.8575 244.15 77.2894L78.2185 103.57ZM255.033 114.039L119.72 135.471C116.992 135.903 115.131 138.464 115.564 141.192L136.681 274.53L271.996 253.098C274.722 252.666 276.584 250.105 276.152 247.378L255.033 114.039Z" fill="url(#paint0_linear_199_8)"/>
<defs>
<linearGradient id="paint0_linear_199_8" x1="434.997" y1="88.5151" x2="468.247" y2="299.936" gradientUnits="userSpaceOnUse">
<stop stop-color="#FF007A"/>
<stop offset="1" stop-color="#FF8A00"/>
</linearGradient>
</defs>
</svg>
