<svg width="273" height="98" viewBox="0 0 273 98" fill="none" xmlns="http://www.w3.org/2000/svg">
<path fill-rule="evenodd" clip-rule="evenodd" d="M47.8008 1.20575C45.0156 -0.401917 41.5859 -0.401917 38.8008 1.20575L4.5 21.0095C1.71484 22.6171 0 25.5883 0 28.8036V68.4116C0 71.6269 1.71484 74.5981 4.5 76.2057L38.8008 96.0095C41.5859 97.6171 45.0156 97.6171 47.8008 96.0095L82.1016 76.2057C84.8867 74.5981 86.6016 71.6269 86.6016 68.4116V28.8036C86.6016 25.5883 84.8867 22.6171 82.1016 21.0095L47.8008 1.20575ZM47.8008 14.2057C45.0156 12.5981 41.5859 12.5981 38.8008 14.2057L15.7578 27.5095C12.9727 29.1171 11.2578 32.0883 11.2578 35.3036V61.9116C11.2578 65.1269 12.9727 68.0981 15.7578 69.7057L38.8008 83.0095C41.5859 84.6171 45.0156 84.6171 47.8008 83.0095L70.8438 69.7057C73.6289 68.0981 75.3438 65.1269 75.3438 61.9116V35.3036C75.3438 32.0883 73.6289 29.1171 70.8438 27.5095L47.8008 14.2057Z" fill="url(#paint0_linear_0_1)"/>
<path fill-rule="evenodd" clip-rule="evenodd" d="M140.801 1.20577C138.017 -0.401923 134.586 -0.401924 131.801 1.20577L97.5 21.0096C94.7154 22.6173 93 25.5885 93 28.8038V68.4115C93 71.6269 94.7154 74.5981 97.5 76.2058L131.801 96.0096C134.586 97.6173 138.017 97.6173 140.801 96.0096L175.103 76.2058C177.887 74.5981 179.603 71.6269 179.603 68.4115V28.8038C179.603 25.5885 177.887 22.6173 175.103 21.0096L140.801 1.20577ZM140.801 14.2058C138.017 12.5981 134.586 12.5981 131.801 14.2058L108.758 27.5096C105.974 29.1173 104.258 32.0885 104.258 35.3038V61.9115C104.258 65.1269 105.974 68.0981 108.758 69.7058L131.801 83.0096C134.586 84.6173 138.017 84.6173 140.801 83.0096L163.844 69.7058C166.629 68.0981 168.344 65.1269 168.344 61.9115V35.3038C168.344 32.0885 166.629 29.1173 163.844 27.5096L140.801 14.2058Z" fill="url(#paint1_linear_0_1)"/>
<path fill-rule="evenodd" clip-rule="evenodd" d="M233.801 1.20577C231.017 -0.401923 227.586 -0.401924 224.801 1.20577L190.5 21.0096C187.715 22.6173 186 25.5885 186 28.8038V68.4115C186 71.6269 187.715 74.5981 190.5 76.2058L224.801 96.0096C227.586 97.6173 231.017 97.6173 233.801 96.0096L268.103 76.2058C270.887 74.5981 272.603 71.6269 272.603 68.4115V28.8038C272.603 25.5885 270.887 22.6173 268.103 21.0096L233.801 1.20577ZM233.801 14.2058C231.017 12.5981 227.586 12.5981 224.801 14.2058L201.758 27.5096C198.974 29.1173 197.258 32.0885 197.258 35.3038V61.9115C197.258 65.1269 198.974 68.0981 201.758 69.7058L224.801 83.0096C227.586 84.6173 231.017 84.6173 233.801 83.0096L256.844 69.7058C259.629 68.0981 261.344 65.1269 261.344 61.9115V35.3038C261.344 32.0885 259.629 29.1173 256.844 27.5096L233.801 14.2058Z" fill="url(#paint2_linear_0_1)"/>
<defs>
<linearGradient id="paint0_linear_0_1" x1="50.8008" y1="3.10767" x2="43.3008" y2="98.6077" gradientUnits="userSpaceOnUse">
<stop stop-color="#61FF00"/>
<stop offset="1" stop-color="#00D1FF"/>
</linearGradient>
<linearGradient id="paint1_linear_0_1" x1="143.801" y1="3.10767" x2="136.301" y2="98.6079" gradientUnits="userSpaceOnUse">
<stop stop-color="#61FF00"/>
<stop offset="1" stop-color="#00D1FF"/>
</linearGradient>
<linearGradient id="paint2_linear_0_1" x1="236.801" y1="3.10767" x2="229.301" y2="98.6079" gradientUnits="userSpaceOnUse">
<stop stop-color="#61FF00"/>
<stop offset="1" stop-color="#00D1FF"/>
</linearGradient>
</defs>
</svg>
