
<svg width="502" height="236" viewBox="0 0 502 236" fill="none" xmlns="http://www.w3.org/2000/svg">
<path fill-rule="evenodd" clip-rule="evenodd" d="M257.776 32.8924C257.344 30.165 259.205 27.6038 261.932 27.1718L427.864 0.890822C430.591 0.45884 433.153 2.31967 433.585 5.04709L438.747 37.6408L303.434 59.0724C300.706 59.5043 298.845 62.0655 299.277 64.793L320.396 198.131L289.778 202.98C287.05 203.412 284.489 201.552 284.057 198.824L257.776 32.8924ZM320.396 198.131L325.558 230.725C325.99 233.452 328.551 235.313 331.279 234.881L497.211 208.6C499.938 208.168 501.799 205.607 501.367 202.879L475.086 36.9476C474.654 34.2202 472.093 32.3594 469.365 32.7914L438.747 37.6408L459.866 170.979C460.298 173.706 458.437 176.267 455.709 176.699L320.396 198.131ZM0.646218 33.1196C0.214236 30.3922 2.07506 27.831 4.80249 27.399L170.734 1.11801C173.462 0.686031 176.023 2.54686 176.455 5.27429L181.617 37.868L46.3038 59.2996C43.5764 59.7315 41.7155 62.2927 42.1475 65.0202L63.2662 198.358L32.6478 203.208C29.9204 203.64 27.3592 201.779 26.9272 199.051L0.646218 33.1196ZM63.2662 198.358L68.4285 230.952C68.8605 233.679 71.4217 235.54 74.1491 235.108L240.081 208.827C242.808 208.395 244.669 205.834 244.237 203.107L217.956 37.1748C217.524 34.4474 214.963 32.5866 212.236 33.0185L181.617 37.868L202.736 171.206C203.168 173.933 201.307 176.495 198.58 176.927L63.2662 198.358Z" fill="url(#paint0_linear_194_29)"/>
<defs>
<linearGradient id="paint0_linear_194_29" x1="361.581" y1="12.3437" x2="394.831" y2="223.765" gradientUnits="userSpaceOnUse">
<stop stop-color="#FF007A"/>
<stop offset="1" stop-color="#FF8A00"/>
</linearGradient>
</defs>
</svg>
