<svg width="790" height="654" viewBox="0 0 790 654" fill="none" xmlns="http://www.w3.org/2000/svg">
    <path fill-rule="evenodd" clip-rule="evenodd"
        d="M383.028 1.05723C372.724 3.26223 368.624 4.47623 363.528 6.83123C342.085 16.7392 327.957 33.8202 320.382 59.0002C319.544 61.7862 319.028 68.4512 319.028 76.5002C319.028 84.5492 319.544 91.2142 320.382 94.0002C324.317 107.081 330.624 119.157 337.093 126C341.266 130.414 340.949 130.888 328.774 138.455C323.689 141.616 319.528 144.82 319.528 145.576C319.528 146.332 321.566 147.879 324.058 149.014L328.588 151.077L320.858 165.789C316.607 173.88 311.04 184.55 308.486 189.5C305.186 195.897 303.246 198.589 301.779 198.807C300.302 199.027 299.342 200.379 298.403 203.557C297.625 206.193 296.496 208 295.628 208C294.414 208 283.109 204.404 277.528 202.243C276.703 201.923 271.978 200.274 267.028 198.577C262.078 196.881 257.179 194.992 256.142 194.38C254.425 193.368 256.624 190.105 280.57 158.134C295.043 138.81 307.445 123 308.129 123C308.814 123 310.712 124.125 312.346 125.5C313.98 126.875 315.756 128 316.292 128C318.219 128 321.084 104.223 319.365 102.504C319.012 102.15 317.891 102.305 316.875 102.847C315.859 103.389 313.453 104.506 311.528 105.331C299.837 110.338 296.528 111.992 296.528 112.826C296.528 113.341 298.216 115.018 300.278 116.553C302.341 118.088 304.183 119.459 304.372 119.599C304.952 120.03 251.412 191.107 250.14 191.595C248.817 192.103 242.634 190.195 225.528 184C219.203 181.709 211.553 179.001 208.528 177.981C194.037 173.095 180.343 168.149 179.799 167.604C179.467 167.272 178.235 167 177.061 167C175.888 167 174.5 166.642 173.978 166.205C173.455 165.768 170.328 164.566 167.028 163.534C161.458 161.791 157.552 159.545 158.588 158.68C159.686 157.762 295.611 90.0002 296.353 90.0002C296.814 90.0002 297.809 91.2382 298.566 92.7502C301.15 97.9162 304.528 100.802 304.528 97.8442C304.528 97.2092 305.653 95.2142 307.028 93.4112C308.403 91.6082 309.528 89.8592 309.528 89.5242C309.528 89.1892 311.347 86.4522 313.571 83.4422C316.327 79.7112 317.202 77.8292 316.321 77.5262C311.645 75.9222 290.528 74.3022 290.528 75.5482C290.528 75.8502 291.428 77.9592 292.528 80.2362C293.628 82.5132 294.528 84.8552 294.528 85.4412C294.528 86.4672 154.561 157 152.526 157C151.977 157 151.512 155.313 151.492 153.25C151.432 146.869 148.057 134.835 144.144 127.043C135.084 109.006 119.582 94.7712 102.528 88.8272C91.396 84.9482 88.705 84.5002 76.528 84.5002C61.45 84.5002 54.931 85.8722 43.028 91.5522C25.346 99.9902 13.076 113.335 4.46002 133.5C-1.58498 147.648 -1.46798 172.987 4.70702 187C8.05002 194.586 9.46002 197.154 13.935 203.802C23.651 218.237 38.342 228.605 56.437 233.796C60.275 234.897 66.261 235.416 75.528 235.45C88.815 235.499 91.195 235.122 102.528 231.173C125.987 222.997 145.635 199.526 150.596 173.75C151.31 170.037 152.2 167 152.574 167C152.947 167 157.42 175.212 162.514 185.25C167.608 195.287 176.162 212.05 181.524 222.5C198.801 256.172 199.677 257.991 199.35 259.522C198.9 261.629 153.583 322 152.451 322C151.943 322 151.512 320.762 151.492 319.25C151.444 315.511 149.232 306.758 146.501 299.5C142.053 287.678 130.862 273.036 120.567 265.568C99.035 249.95 68.624 246.765 44.815 257.635C24.216 267.039 8.55602 285.485 2.05502 308.001C-0.534983 316.969 -0.561984 336.861 2.00202 346C8.96202 370.801 26.48 390.092 50.028 398.886C62.567 403.568 82.131 404.503 94.701 401.019C107.892 397.364 119.17 390.996 128.636 381.857C132.337 378.284 138.313 370.812 140.118 367.5C140.717 366.4 142.326 363.475 143.692 361C147.303 354.457 151.528 340.814 151.528 335.693C151.528 331.126 153.238 331.852 158.689 338.732C161.625 342.439 172.695 356.202 183.287 369.317L202.547 393.162L197.661 402.331C194.973 407.374 189.504 417.8 185.506 425.5C181.508 433.2 175.533 444.675 172.228 451C168.923 457.325 163.278 468.242 159.683 475.26C156.089 482.277 152.855 487.677 152.499 487.26C152.142 486.842 151.279 483.8 150.582 480.5C142.124 440.478 105.907 413.84 66.778 418.861C57.407 420.063 54.036 420.993 45.751 424.663C42.848 425.948 40.205 427 39.878 427C39.55 427 36.525 428.975 33.155 431.389C18.057 442.204 8.86802 454.846 2.90902 473C0.381017 480.702 0.128016 482.768 0.219016 495C0.311016 507.268 0.597015 509.308 3.35002 517.355C12.54 544.21 32.984 562.709 60.528 569.094C67.635 570.742 84.488 570.729 91.528 569.071C109.286 564.888 126.205 554 136.701 540C144.17 530.038 151.528 511.027 151.528 501.693C151.528 497.219 152.638 496.51 156.767 498.345C158.561 499.143 165.878 502.13 173.028 504.983C180.178 507.837 186.928 510.549 188.028 511.01C189.128 511.471 194.753 513.705 200.528 515.975C206.303 518.244 212.153 520.589 213.528 521.184C218.093 523.162 219.948 523.906 230.528 528C236.303 530.235 241.928 532.46 243.028 532.946C244.128 533.431 250.878 536.156 258.028 539C265.178 541.844 271.928 544.545 273.028 545.002C274.128 545.459 279.237 547.529 284.38 549.601C294.058 553.501 295.656 554.964 293.686 558.119C293.049 559.139 292.528 561.155 292.528 562.6C292.528 565.027 292.776 565.179 295.778 564.596C297.566 564.248 302.541 563.587 306.835 563.125C315.966 562.144 317.639 561.066 315.498 557.54C312.653 552.856 302.395 541 301.187 541C300.515 541 299.367 543.025 298.636 545.5C297.189 550.401 296.956 550.536 292.825 548.875C287.582 546.768 286.025 546.151 275.528 542.025C269.753 539.756 263.903 537.411 262.528 536.816C259.755 535.614 260.194 535.79 245.528 530.025C239.753 527.756 234.128 525.51 233.028 525.035C231.928 524.56 225.178 521.844 218.028 519C210.878 516.156 204.128 513.456 203.028 513C201.928 512.544 195.178 509.844 188.028 507C162.018 496.653 159.168 495.421 158.819 494.374C158.643 493.845 160.193 492.818 162.263 492.091C164.334 491.364 167.603 490.101 169.528 489.283C171.453 488.465 173.928 487.415 175.028 486.949C176.128 486.483 181.753 484.244 187.528 481.975C193.303 479.705 198.928 477.471 200.028 477.01C201.128 476.549 207.878 473.844 215.028 471C222.178 468.156 228.928 465.44 230.028 464.965C235.075 462.785 252.218 456 252.678 456C252.96 456 258.327 462.413 264.604 470.25C270.881 478.087 276.469 484.988 277.022 485.585C282.174 491.146 303.528 518.565 303.528 519.619C303.528 520.252 302.419 521.497 301.063 522.385C299.708 523.273 298.113 524.907 297.52 526.015C296.644 527.652 296.778 528.141 298.235 528.622C299.221 528.948 301.378 529.789 303.028 530.492C304.678 531.195 307.828 532.363 310.028 533.089C312.228 533.815 314.455 534.766 314.978 535.204C315.5 535.642 317.236 536 318.835 536C321.209 536 321.611 535.679 321.029 534.25C320.636 533.288 319.969 529.575 319.547 526C318.706 518.887 316.779 511 315.883 511C315.571 511 313.63 512.335 311.569 513.968C307.244 517.393 307.064 517.318 300.943 509.5C298.79 506.75 296.795 504.275 296.51 504C296.225 503.725 289.7 495.63 282.01 486.01C274.32 476.391 267.278 467.616 266.362 466.51C258.964 457.581 257.528 455.714 257.528 455.019C257.528 454.314 261.251 452.373 267.028 450.066C268.128 449.627 270.153 448.798 271.528 448.224C288.096 441.308 291.207 440.295 292.585 441.373C294.566 442.92 319.528 492.406 319.528 494.784C319.528 496.048 318.171 497.308 315.528 498.5C313.328 499.492 311.528 500.663 311.528 501.101C311.528 501.944 317.785 507 318.828 507C319.164 507 322.009 508.8 325.149 511C332.19 515.932 333.528 516.036 333.528 511.654C333.528 509.813 333.82 504.188 334.178 499.154C334.758 490.98 334.647 490 333.143 490C332.216 490 330.37 490.712 329.042 491.583C327.713 492.454 325.816 492.907 324.827 492.591C323.715 492.235 318.877 483.825 312.162 470.578L301.297 449.141L304.408 445.32C313.582 434.052 317.449 428.681 316.958 427.886C316.657 427.399 315.154 427 313.618 427C312.083 427 309.522 426.588 307.927 426.084C306.333 425.58 302.216 424.911 298.778 424.599L292.528 424.031V427.015C292.528 428.657 292.078 430 291.528 430C290.978 430 290.528 429.19 290.528 428.2C290.528 427.21 290.112 425.973 289.604 425.45C289.095 424.928 284.774 416.85 280.001 407.5C275.228 398.15 269.311 386.572 266.852 381.77C262.018 372.333 261.706 368.346 265.876 369.293C269.073 370.02 293.699 378.838 294.35 379.489C294.659 379.798 294.375 381.533 293.72 383.346C292.334 387.178 292.159 391 293.369 391C293.832 391 296.419 390.33 299.119 389.511C301.819 388.692 305.436 388.017 307.156 388.011C308.876 388.005 311.96 387.299 314.01 386.443C317.348 385.048 317.589 384.711 316.331 383.193C311.233 377.049 307.783 373.001 304.734 369.587C301.391 365.844 301.178 365.758 299.821 367.587C299.042 368.639 298.149 370.747 297.837 372.271C297.525 373.795 296.978 375.222 296.621 375.442C295.895 375.892 285.85 372.655 284.842 371.647C284.486 371.291 283.22 371 282.028 371C280.836 371 279.557 370.695 279.185 370.323C278.812 369.951 276.375 368.938 273.768 368.073C270.737 367.067 269.028 365.921 269.028 364.895C269.028 363.516 275.77 355.539 294.166 335.154C298.944 329.859 298.476 329.706 306.774 339.284L311.969 345.28L308.248 348.496C306.202 350.265 304.528 352.166 304.528 352.72C304.528 353.697 308.775 355.515 317.028 358.069C319.228 358.75 322.547 359.961 324.403 360.76C328.914 362.701 329.632 361.358 327.936 354.153C327.204 351.044 326.061 345.892 325.396 342.703C324.73 339.515 323.774 336.652 323.271 336.341C322.767 336.03 320.91 337.176 319.144 338.888C317.378 340.599 315.446 342 314.852 342C314.257 342 311.58 339.413 308.901 336.25C306.223 333.087 303.694 330.35 303.28 330.167C302.866 329.983 302.528 328.858 302.528 327.665C302.528 325.208 312.309 313.161 314.384 313.064C315.129 313.029 317.098 314.144 318.76 315.541C320.421 316.939 322.261 317.922 322.849 317.726C324.143 317.295 325.472 313.229 326.517 306.5C326.944 303.75 327.748 300.098 328.303 298.384C330.257 292.348 327.586 292.083 315.028 297.067C313.928 297.503 311.347 298.375 309.292 299.003C307.237 299.632 305.256 300.631 304.889 301.224C304.523 301.818 305.919 303.813 307.993 305.658C312.254 309.449 312.593 308.345 304.114 318.276C301.402 321.453 298.853 323.928 298.449 323.776C298.046 323.624 295.139 320.575 291.99 317C288.841 313.425 284.636 308.689 282.646 306.474C279.376 302.836 268.373 290.138 264.686 285.748C262.225 282.818 265.766 277.568 271.988 274.923C277.096 272.75 284.749 269.329 292.028 265.965C296.008 264.125 296.036 264.126 297.733 266.308C298.671 267.514 299.571 269.395 299.733 270.49C300.389 274.917 303.211 273.007 309.845 263.649C313.521 258.463 316.528 253.766 316.528 253.211C316.528 252.163 312.457 251.498 299.278 250.393C290.726 249.676 290.26 250.046 293.034 255.364C295.766 260.603 295.655 260.705 279.528 267.688C277.603 268.522 275.016 269.684 273.78 270.27C272.543 270.857 271.28 271.086 270.974 270.78C270.668 270.473 272.408 266.46 274.84 261.861C277.273 257.263 282.52 247.2 286.5 239.5C290.481 231.8 294.121 225.028 294.589 224.45C295.535 223.284 302.571 221.448 309.643 220.522C312.181 220.19 315.106 219.261 316.143 218.459C317.801 217.176 317.847 216.849 316.528 215.75C315.703 215.063 312.912 211.887 310.325 208.692L305.622 202.885L312.739 189.192C316.653 181.662 322.064 171.225 324.764 166C331.941 152.108 331.556 152.488 335.95 154.956C342.236 158.487 342.276 158.414 341.74 144.5C341.475 137.625 341.602 132 342.022 132C342.442 132 344.467 133.519 346.522 135.376C354.345 142.443 367.779 148.665 381.217 151.444C393.914 154.07 407.093 152.911 420.574 147.983C434.947 142.73 449.828 130.806 457.993 118C463.461 109.425 469.439 94.4512 469.598 88.9292C469.825 81.1112 470.888 82.2522 486.53 107.094C494.982 120.518 502.386 132.4 502.983 133.5C503.58 134.6 505.374 137.525 506.968 140C508.563 142.475 510.989 146.3 512.359 148.5C513.73 150.7 516.128 154.374 517.689 156.663C519.251 158.953 520.528 161.161 520.528 161.569C520.528 161.977 521.653 163.786 523.028 165.589C524.403 167.392 525.528 169.107 525.528 169.4C525.528 170.315 535.939 186.482 536.755 186.833C537.18 187.017 537.528 187.558 537.528 188.036C537.528 188.513 544.728 200.339 553.528 214.315C562.328 228.291 569.528 240.242 569.528 240.872C569.528 241.722 556.794 241.952 520.292 241.759L471.055 241.5L470.307 236C465.526 200.887 441.928 175.524 407.528 168.527C398.042 166.598 391.014 166.598 381.528 168.527C350.738 174.79 329.895 194.38 320.382 226C318.554 232.076 318.571 255.008 320.408 261C326.604 281.214 335.542 294.763 349.528 305.148C365.789 317.223 389.035 322.5 408.274 318.487C429.97 313.96 446.727 302.732 457.867 285.256C464.848 274.305 467.739 266.575 469.866 253.183L471.028 245.866L480.028 253.573C484.978 257.812 491.953 263.863 495.528 267.019C506.786 276.957 520.877 289.295 527.486 295C530.991 298.025 534.352 300.95 534.956 301.5C535.56 302.05 539.644 305.65 544.032 309.5C561.556 324.876 561.528 324.85 561.528 325.882C561.528 326.288 558.49 329.23 554.778 332.418C551.066 335.607 545.553 340.53 542.528 343.358C539.503 346.186 532.978 352.094 528.028 356.487C523.078 360.88 516.553 366.783 513.528 369.605C510.503 372.427 505.553 376.879 502.528 379.5C499.503 382.121 494.553 386.578 491.528 389.406C483.288 397.109 471.928 407 471.321 407C471.026 407 470.477 404.673 470.1 401.83C468.87 392.561 466.662 385.665 461.827 376C457.816 367.983 455.587 365.017 447.551 357C439.743 349.211 436.497 346.751 429.528 343.341C415.752 336.6 409.039 335 394.528 335C380.017 335 373.304 336.6 359.528 343.341C352.57 346.745 349.296 349.224 341.485 357C333.011 365.435 331.37 367.677 326.85 377C320.446 390.207 319.027 396.468 319.032 411.5C319.036 422.243 319.992 428.928 322.466 435.5C326.513 446.249 335.921 460.487 343.67 467.587C358.963 481.601 382.605 488.93 403.778 486.221C426.308 483.338 445.005 471.835 456.928 453.521C465.689 440.063 467.511 435.344 469.77 420.25L470.855 413H519.691C546.551 413 568.528 413.211 568.528 413.469C568.528 413.727 566.503 417.068 564.028 420.894C561.553 424.72 559.528 428.139 559.528 428.492C559.528 428.845 558.403 430.608 557.028 432.411C555.653 434.214 554.528 435.957 554.528 436.284C554.528 436.611 551.828 441.209 548.528 446.5C545.228 451.791 542.528 456.331 542.528 456.589C542.528 456.846 539.828 461.343 536.528 466.581C533.228 471.819 530.528 476.336 530.528 476.619C530.528 476.902 529.403 478.608 528.028 480.411C526.653 482.214 525.528 483.997 525.528 484.373C525.528 484.749 522.828 489.343 519.528 494.581C516.228 499.819 513.528 504.309 513.528 504.56C513.528 504.81 510.153 510.408 506.028 517C501.903 523.592 498.528 529.19 498.528 529.44C498.528 529.691 495.828 534.181 492.528 539.419C489.228 544.657 486.528 549.251 486.528 549.627C486.528 550.003 485.403 551.786 484.028 553.589C482.653 555.392 481.528 557.107 481.528 557.4C481.528 557.694 479.175 561.639 476.3 566.168L471.072 574.403L470.307 569.951C468.015 556.617 467.438 554.792 462.033 543.791C457.451 534.466 455.921 532.37 447.546 523.938C425.239 501.48 392.34 495.605 362.569 508.763C353.416 512.809 339.828 524.043 332.901 533.291C330.949 535.898 324.182 549.013 322.475 553.5C317.7 566.046 317.685 589.46 322.443 602.5C326.376 613.275 334.72 626.055 342.835 633.729C358.382 648.433 376.591 654.803 399.665 653.61C405.516 653.307 411.366 652.653 412.665 652.156C413.965 651.659 417.503 650.441 420.528 649.45C446.199 641.039 466.98 614.663 470.125 586.5C470.926 579.327 469.019 581.375 498.028 556.534C523.568 534.664 531.438 527.892 532.943 526.49C533.54 525.934 540.328 520.099 548.028 513.523C555.728 506.947 562.253 501.324 562.528 501.027C562.803 500.73 565.948 498.015 569.518 494.994C575.223 490.164 580.348 485.718 583.918 482.5C584.529 481.95 587.948 479.025 591.518 476C595.087 472.975 599.362 469.322 601.018 467.883C612.865 457.585 620.809 451.003 621.37 451.021C621.732 451.033 623.311 452.855 624.879 455.071C626.446 457.287 628.22 458.936 628.819 458.736C629.419 458.536 631.286 454.499 632.969 449.765C634.651 445.031 636.365 440.822 636.778 440.412C637.191 440.002 637.528 438.151 637.528 436.299V432.931L632.278 433.491C618.938 434.914 613.528 436.261 613.528 438.16C613.528 439.172 613.876 440 614.301 440C615.526 440 618.817 446.723 618.134 447.829C617.794 448.378 606.606 458.192 593.272 469.638C579.938 481.083 568.803 490.694 568.528 490.995C567.861 491.725 541.464 514.471 535.63 519.343C533.099 521.456 529.673 524.381 528.018 525.843C526.362 527.304 522.092 530.975 518.528 534C512.812 538.852 507.61 543.371 504.138 546.5C503.527 547.05 500.103 549.974 496.528 552.997C492.953 556.02 488.453 559.952 486.528 561.735C481.726 566.181 481.457 563.713 485.975 556.651C487.929 553.596 489.528 550.888 489.528 550.635C489.528 550.381 493.353 544.033 498.028 536.529C502.703 529.024 506.528 522.713 506.528 522.503C506.528 522.292 509.228 517.791 512.528 512.5C515.828 507.209 518.528 502.708 518.528 502.497C518.528 502.287 522.353 495.976 527.028 488.471C531.703 480.967 535.528 474.628 535.528 474.385C535.528 474.142 538.139 469.793 541.331 464.721C544.522 459.65 547.445 454.825 547.825 454C548.205 453.175 553.856 443.725 560.383 433L572.249 413.5L592.888 413.23L613.528 412.959V417.921C613.528 420.649 613.991 423.168 614.558 423.518C615.124 423.868 619.875 421.645 625.114 418.577C630.354 415.51 635.229 413 635.947 413C636.814 413 637.475 415.106 637.909 419.25C638.903 428.747 639.716 433.448 640.458 434C640.828 434.275 641.962 436.75 642.979 439.5C647.004 450.391 657.917 464.491 668.255 472.154C674.248 476.597 685.298 481.947 694.028 484.632C702.448 487.222 723.387 487.186 732.528 484.565C759.436 476.852 778.858 457.256 787.104 429.5C789.554 421.255 789.594 400.903 787.177 392.5C785.482 386.607 784.863 384.99 781.638 378.022C773.408 360.243 755.761 344.368 738.028 338.791C725.702 334.915 707.804 333.738 697.792 336.146C679.22 340.612 664.156 350.081 653.48 364C644.221 376.071 637.528 392.938 637.528 404.199C637.528 406.656 637.269 408.925 636.953 409.241C636.637 409.557 631.841 407.137 626.294 403.862C620.748 400.587 615.632 398.13 614.926 398.401C614.194 398.682 613.51 400.958 613.335 403.697L613.028 408.5L594.778 408.773C577.215 409.035 576.528 408.971 576.528 407.082C576.528 406.002 576.95 404.858 577.465 404.539C577.98 404.221 579.041 402.732 579.823 401.23C581.21 398.566 596.453 373.251 601.208 365.717C603.313 362.381 603.808 362.085 605.394 363.217C609.523 366.162 619.528 375.564 619.522 376.494C619.518 377.047 618.168 378.267 616.522 379.203C614.875 380.14 613.528 381.307 613.528 381.795C613.528 382.284 616.341 383.459 619.778 384.406C623.216 385.354 627.41 386.55 629.099 387.065C632.794 388.19 636.541 388.284 636.492 387.25C636.443 386.204 633.875 375.876 633.136 373.75C632.802 372.788 632.312 371.312 632.049 370.472C631.651 369.206 630.893 369.392 627.617 371.56C625.029 373.273 623.174 373.886 622.244 373.338C618.059 370.868 606.652 360.257 606.595 358.78C606.523 356.928 607.848 354.375 614.527 343.5C616.891 339.65 619.802 334.767 620.996 332.648C622.189 330.53 623.585 328.73 624.097 328.648C625.432 328.436 635.602 344.205 635.289 346C635.144 346.825 633.564 348.144 631.777 348.93C629.99 349.717 628.56 351.067 628.598 351.93C628.665 353.428 647.997 363.933 648.863 362.942C649.885 361.773 650.387 343.031 649.413 342.429C648.833 342.07 646.88 342.573 645.073 343.545C643.267 344.518 641.127 345.06 640.317 344.749C638.188 343.932 627.525 326.389 627.546 323.738C627.556 322.507 629.8 318.012 632.533 313.75C636.515 307.538 637.989 306 639.956 306C641.306 306 642.688 306.45 643.028 307C643.368 307.55 644.519 308 645.587 308C647.373 308 647.528 307.237 647.528 298.469C647.528 291.163 647.197 288.81 646.11 288.393C645.33 288.094 642.067 289.316 638.86 291.11C635.652 292.904 631.834 294.974 630.376 295.71C626.315 297.76 625.697 301 629.366 301C630.193 301 631.644 301.7 632.59 302.556C634.202 304.015 634.06 304.543 630.306 311.027C628.105 314.83 625.728 318.419 625.024 319.003C624.04 319.82 622.047 317.346 616.386 308.282C604.764 289.676 605.231 291.59 611.063 286.452C613.794 284.046 616.55 282.06 617.189 282.038C617.828 282.017 619.486 283.35 620.875 285C624.032 288.752 626.309 288.844 627.078 285.25C627.402 283.738 628.128 281.375 628.692 280C630.525 275.531 632.368 269.557 632.702 267C633.124 263.767 630.187 263.247 623.798 265.424C621.254 266.291 617.923 267 616.397 267C613.241 267 608.528 268.898 608.528 270.17C608.528 270.636 609.889 272.443 611.553 274.184C613.217 275.925 614.426 277.807 614.239 278.366C614.053 278.926 611.754 281.203 609.13 283.427L604.36 287.47L601.495 283.985C599.919 282.068 598.054 279.375 597.349 278C596.645 276.625 595.047 274.108 593.798 272.406C592.55 270.704 591.528 268.946 591.528 268.5C591.528 268.054 590.403 266.214 589.028 264.411C587.653 262.608 586.528 260.808 586.528 260.411C586.528 260.014 585.403 258.214 584.028 256.411C582.653 254.608 581.528 252.835 581.528 252.471C581.528 252.107 580.596 250.5 579.457 248.9C577.832 246.617 577.678 245.88 578.745 245.47C579.493 245.183 587.513 245.073 596.566 245.224L613.028 245.5L613.338 250.5C613.508 253.25 614.019 255.876 614.473 256.335C614.927 256.794 617.141 256.007 619.393 254.585C621.645 253.163 623.947 252 624.508 252C625.069 252 625.528 251.55 625.528 251C625.528 250.45 625.987 250 626.548 250C627.109 250 629.376 248.859 631.585 247.464C633.795 246.069 636.036 245.196 636.565 245.523C637.095 245.85 637.528 247.952 637.528 250.193C637.528 260.139 644.013 277.324 651.973 288.471C663.503 304.618 679.518 314.493 701.354 318.92C715.679 321.824 737.693 317.924 749.758 310.344C751.81 309.055 753.786 308 754.15 308C755.011 308 765.347 299.288 768.357 296.025C795.904 266.167 796.062 221.17 768.724 191.846C760.002 182.491 749.86 175.86 737.028 171.124C732.266 169.366 718.495 167 713.028 167.001C699.567 167.003 679.755 173.619 668.528 181.862C663.973 185.206 655.575 193.562 652.307 198C644.385 208.76 637.528 227.025 637.528 237.366C637.528 239.915 637.094 242 636.563 242C635.634 242 627.077 237.529 625.028 235.973C622.531 234.076 616.327 231 614.998 231C613.883 231 613.528 232.328 613.528 236.5V242L594.278 241.992L575.028 241.984L540.028 186.265C520.778 155.62 498.835 120.68 491.265 108.62C483.695 96.5602 477.718 86.4772 477.983 86.2122C478.398 85.7972 489.447 94.6692 499.028 103.109C500.678 104.562 507.203 110.145 513.528 115.515C519.853 120.885 527.503 127.403 530.528 130C533.553 132.597 541.203 139.115 547.528 144.485C553.853 149.855 560.378 155.437 562.028 156.89C563.678 158.344 570.653 164.232 577.528 169.975C584.403 175.718 590.253 180.674 590.528 180.988C590.803 181.302 595.303 185.128 600.528 189.49C605.753 193.852 611.069 198.505 612.341 199.83L614.653 202.238L612.341 204.866C611.069 206.311 609.691 207.645 609.278 207.83C607.248 208.741 608.944 211.025 612.278 211.868C618.36 213.407 627.836 215.224 630.528 215.367C632.725 215.484 632.994 215.136 632.751 212.5C632.474 209.506 632.256 208.85 629.167 201.716C628.265 199.635 627.528 197.117 627.528 196.121C627.528 195.125 626.673 193.536 625.628 192.591C623.81 190.945 623.611 191.025 621.009 194.436C617.826 198.61 616.93 198.764 613.383 195.749C611.928 194.512 608.385 191.5 605.511 189.056C602.636 186.612 599.776 184.135 599.156 183.552C598.536 182.968 595.553 180.474 592.528 178.009C589.503 175.544 586.803 173.294 586.528 173.008C586.253 172.722 583.103 170.018 579.528 167C575.953 163.982 572.803 161.271 572.528 160.977C572.253 160.682 567.753 156.858 562.528 152.478C557.303 148.098 551.678 143.33 550.028 141.881C548.378 140.433 541.853 134.855 535.528 129.485C529.203 124.115 521.553 117.597 518.528 115C515.503 112.403 507.853 105.885 501.528 100.515C495.203 95.1452 488.678 89.5552 487.028 88.0932C485.378 86.6312 481.049 83.0532 477.408 80.1422L470.789 74.8502L470.118 68.1752C469.385 60.8772 468.559 57.7862 464.73 48.0002C457.81 30.3152 443.438 15.1092 426.028 7.04923C413.223 1.12223 394.752 -1.45177 383.028 1.05723ZM386.028 5.13823C369.63 6.44523 354.921 13.6972 342.376 26.6602C329.299 40.1722 322.528 57.1752 322.528 76.5002C322.528 108.708 343.013 136.028 374.528 145.849C376.453 146.449 381.741 147.353 386.278 147.859C394.821 148.811 408.044 147.87 414.528 145.849C456.019 132.919 476.83 90.2212 461.49 49.5002C453.913 29.3872 434.643 12.3612 412.994 6.65123C405.87 4.77223 396.916 4.27023 386.028 5.13823ZM62.028 89.1472C41.307 94.0162 27.589 103.077 16.073 119.5C-0.389984 142.979 -0.389984 177.021 16.073 200.5C25.676 214.195 36.325 222.194 54.028 229.009C64.656 233.101 87.271 232.828 99.028 228.466C114.882 222.585 127.017 213.085 136.083 199.461C139.078 194.96 141.528 190.615 141.528 189.805C141.528 188.996 141.858 188.003 142.261 187.6C143.62 186.242 145.602 178.557 146.929 169.5C148.705 157.38 146.921 142.909 142.305 132C135.693 116.372 122.999 102.908 108.028 95.6432C99.242 91.3802 98.451 91.0972 90.528 89.3962C83.278 87.8392 68.156 87.7072 62.028 89.1472ZM159.528 165.484C159.528 166.05 177.279 186.967 179.485 189C179.784 189.275 183.178 193.098 187.028 197.496C190.878 201.894 194.859 206.394 195.874 207.496C196.89 208.598 202.265 214.804 207.818 221.286C213.372 227.768 218.459 232.943 219.122 232.786C219.785 232.629 225.209 225.975 231.175 218C237.14 210.025 242.805 202.633 243.763 201.574C245.961 199.143 246.984 196.011 245.877 195.1C245.41 194.716 241.203 193.155 236.528 191.63C231.853 190.106 227.128 188.452 226.028 187.955C224.928 187.458 219.978 185.714 215.028 184.08C206.687 181.327 199.239 178.722 173.028 169.392C160.159 164.811 159.528 164.629 159.528 165.484ZM381.028 172.403C380.478 172.598 378.003 173.319 375.528 174.006C373.053 174.694 368.653 176.323 365.751 177.628C362.848 178.933 360.229 180 359.93 180C359.631 180 356.519 182.046 353.015 184.547C326.638 203.369 316.233 235.722 326.337 267.5C333.046 288.599 352.575 306.676 375.978 313.45C384.213 315.833 404.843 315.833 413.078 313.45C445.295 304.124 466.532 276.53 466.527 244C466.524 225.43 460.166 208.638 448.098 195.329C443.344 190.085 430.862 180 429.126 180C428.827 180 426.208 178.948 423.305 177.663C412.996 173.097 411.13 172.73 396.528 172.388C388.553 172.202 381.578 172.209 381.028 172.403ZM694.413 173.853C659.436 183.573 637.027 217.52 642.015 253.23C644.947 274.222 655.363 291.373 672.028 302.651C679.87 307.957 682.466 309.243 691.911 312.497C699.016 314.944 701.138 315.208 713.411 315.171C725.196 315.135 728.053 314.792 734.649 312.617C756.94 305.268 773.474 289.371 781.578 267.5C785.081 258.045 786.196 236.842 783.682 227.5C776.759 201.774 761.493 184.743 736.965 175.382C730.865 173.054 728.278 172.691 715.528 172.374C703.716 172.081 699.802 172.355 694.413 173.853ZM163.528 178.601C163.528 179.257 168.473 189.132 182.26 216.003C187.198 225.626 193.588 238.113 196.461 243.75C199.335 249.387 202.295 254 203.039 254C204.183 254 216.452 238.505 216.509 236.989C216.519 236.708 215.065 234.822 213.278 232.797C211.491 230.773 199.913 217.615 187.55 203.558C167.298 180.531 163.528 176.614 163.528 178.601ZM246.836 203.244C232.67 221.639 222.582 235.671 222.568 237C222.559 237.825 224.473 240.525 226.822 243C229.17 245.475 235.794 252.9 241.542 259.5C257.712 278.068 256.802 277.22 259.769 276.476C261.205 276.115 263.039 275.073 263.844 274.16C265.948 271.773 288.233 228.76 293.796 216.349C295.643 212.227 295.825 212.334 274.528 205.052C271.503 204.017 265.203 201.785 260.528 200.09C255.853 198.396 251.942 197.008 251.836 197.005C251.731 197.002 249.481 199.81 246.836 203.244ZM212.528 249C209.503 253.356 206.69 256.938 206.278 256.96C204.138 257.074 206.304 263.164 213.419 277.039C217.76 285.503 221.755 292.576 222.297 292.756C222.839 292.937 225.926 291.88 229.155 290.408C232.385 288.935 237.953 286.391 241.528 284.754C245.103 283.116 249.073 281.376 250.351 280.885C251.647 280.388 252.531 279.33 252.351 278.491C251.887 276.333 220.605 240.992 219.201 241.04C218.556 241.062 215.553 244.644 212.528 249ZM477.144 245.812C476.862 246.269 477.62 247.478 478.829 248.498C480.039 249.519 484.646 253.536 489.069 257.427C493.491 261.317 499.978 266.975 503.484 270C506.99 273.025 510.352 275.95 510.956 276.5C511.56 277.05 515.648 280.646 520.041 284.491C524.434 288.336 528.253 291.714 528.528 291.997C528.803 292.281 531.953 294.982 535.528 298C539.103 301.018 542.253 303.719 542.528 304.003C542.803 304.286 546.622 307.664 551.015 311.509C555.408 315.354 559.606 319.065 560.343 319.757C561.081 320.448 562.454 321.425 563.395 321.929C565.232 322.912 565.301 322.862 579.428 310.156C583.497 306.495 587.772 302.677 588.928 301.672C595.407 296.034 600.519 290.717 600.456 289.682C600.416 289.032 594.225 278.825 586.698 267L573.012 245.5L525.335 245.24C499.113 245.098 477.427 245.355 477.144 245.812ZM60.706 256.519C43.109 260.81 27.581 270.892 17.453 284.601C7.77002 297.709 2.84902 314.396 3.81402 330.848C4.12602 336.157 4.81102 341.85 5.33802 343.5C5.86402 345.15 6.90002 348.525 7.64002 351C11.393 363.556 21.996 377.67 34.028 386.127C44.343 393.377 54.333 397.154 68.028 398.981C82.426 400.903 97.503 397.642 112.277 389.413C118.75 385.807 136.528 369.367 136.528 366.987C136.528 366.422 137.636 364.205 138.991 362.059C142.664 356.241 145.699 346.607 147.045 336.5C149.869 315.284 143.309 294.205 128.822 277.946C123.434 271.899 108.051 261.577 101.483 259.602C85.2 254.706 72.179 253.721 60.706 256.519ZM197.279 269.263C195.216 272.143 192.479 275.85 191.195 277.5C182.722 288.389 159.528 319.821 159.528 320.414C159.528 321.337 162.619 320.357 169.528 317.24C172.553 315.876 176.378 314.178 178.028 313.466C182.749 311.431 192.272 307.102 201.528 302.785C206.203 300.605 211.716 298.137 213.778 297.302C216.039 296.386 217.503 295.131 217.465 294.141C217.382 291.956 203.271 264.744 202.012 264.341C201.471 264.168 199.341 266.382 197.279 269.263ZM245.028 287.116C240.078 289.354 233.441 292.362 230.278 293.801C226.802 295.382 224.55 297.026 224.584 297.958C224.664 300.171 236.914 323.229 238.001 323.212C238.5 323.204 241.438 318.315 244.53 312.349C247.621 306.382 252.074 297.808 254.426 293.296C260.589 281.475 259.332 280.648 245.028 287.116ZM256.092 297.75C253.592 302.563 248.955 311.574 245.787 317.777L240.028 329.053L248.325 345.388C254.405 357.357 257.291 362.026 259.122 362.861C262.683 364.484 263.837 364.296 265.959 361.75C266.991 360.512 270.804 356.129 274.432 352.009C278.06 347.889 282.207 343.164 283.648 341.509C285.089 339.854 288.375 336.096 290.95 333.158C293.526 330.219 295.482 327.362 295.297 326.808C294.632 324.811 262.999 289.139 261.833 289.07C261.175 289.032 258.592 292.938 256.092 297.75ZM598.028 298.13C595.828 300.255 588.55 306.832 581.854 312.747C575.158 318.661 569.392 324.174 569.04 324.998C568.631 325.956 569.605 327.576 571.746 329.498C579.209 336.196 590.263 345.933 594.019 349.117C596.214 350.978 598.886 353.288 599.957 354.25C601.029 355.212 602.158 355.999 602.467 355.998C603.035 355.997 611.618 342.575 615.374 335.815C616.499 333.789 618.561 330.324 619.954 328.117L622.488 324.103L613.442 309.633C608.466 301.674 603.863 294.961 603.212 294.715C602.561 294.468 600.228 296.005 598.028 298.13ZM214.028 300.993C208.635 303.579 186.235 313.778 179.778 316.586C177.99 317.364 175.065 318.636 173.278 319.414C159.685 325.326 158.264 326.165 159.651 327.456C160.408 328.161 165.303 330.175 170.528 331.933C175.753 333.691 180.809 335.55 181.764 336.065C182.719 336.579 184.188 337 185.028 337C185.868 337 187.337 337.41 188.292 337.911C189.247 338.413 192.278 339.573 195.028 340.489C197.778 341.405 200.928 342.546 202.028 343.024C203.128 343.501 208.437 345.341 213.826 347.112C222.257 349.882 223.816 350.134 224.995 348.916C225.749 348.137 228.482 343.31 231.068 338.19L235.77 328.879L228.323 314.19C224.227 306.11 220.235 299.404 219.452 299.287C218.669 299.17 216.228 299.938 214.028 300.993ZM561.028 331.649C559.378 333.071 553.978 337.931 549.028 342.45C544.078 346.968 537.553 352.824 534.528 355.464C531.503 358.105 526.553 362.573 523.528 365.395C520.503 368.217 513.985 374.12 509.043 378.513C504.101 382.906 499.565 386.95 498.962 387.5C484.676 400.548 480.069 404.639 478.919 405.3C478.154 405.74 477.528 406.752 477.528 407.55C477.528 408.796 484.05 409 523.873 409C566.762 409 570.332 408.869 571.748 407.25C573.325 405.446 582.593 390.653 583.811 387.995C584.374 386.766 589.793 377.911 599.594 362.201C601.312 359.446 602.447 360.609 571.745 333.641C568.839 331.088 565.914 329.014 565.245 329.032C564.575 329.049 562.678 330.227 561.028 331.649ZM159.528 333.082C159.528 334.151 161.932 337.324 172.345 350C175.282 353.575 178.212 357.175 178.857 358C192.311 375.208 203.976 388.947 204.593 388.312C205.361 387.52 207.138 384.225 216.996 365.308C219.631 360.252 221.528 355.443 221.213 354.62C220.897 353.798 219.151 352.69 217.333 352.159C215.515 351.629 208.853 349.314 202.528 347.015C196.203 344.716 188.553 342.011 185.528 341.003C182.503 339.996 175.558 337.558 170.096 335.586C158.734 331.484 159.528 331.672 159.528 333.082ZM237.249 334.663C236.31 336.219 231.176 345.483 229.927 347.874C229.244 349.18 228.902 350.81 229.165 351.496C229.428 352.183 233.105 353.978 237.336 355.486C246.329 358.692 250.528 359.591 250.528 358.308C250.528 357.29 239.699 335.992 238.505 334.663C238.092 334.202 237.527 334.202 237.249 334.663ZM384.528 339.482C379.853 340.191 374.435 341.268 372.488 341.875C362.558 344.969 348.689 353.683 342.477 360.729C335.55 368.587 334.222 370.412 331.072 376.399C321.633 394.338 320.001 414.314 326.323 434.5C331.691 451.64 346.549 468.004 364.028 476.028C374.781 480.964 382.018 482.5 394.528 482.5C407.038 482.5 414.275 480.964 425.028 476.028C450.477 464.345 466.528 439.127 466.528 410.827C466.528 395.448 460.541 377.153 452.308 367.376C451.054 365.887 448.752 363.178 447.192 361.355C438.158 350.797 419.427 341.108 405.028 339.545C401.728 339.187 397.678 338.736 396.028 338.543C394.378 338.35 389.203 338.772 384.528 339.482ZM704.028 339.427C686.2 341.845 671.9 349.351 659.515 362.792C655.672 366.963 652.528 370.749 652.528 371.207C652.528 371.665 651.42 373.795 650.065 375.941C643.337 386.6 639.93 405.455 642.056 420.271C642.784 425.347 643.907 431.075 644.551 433C652.638 457.17 669.86 473.123 696.528 481.146C702.441 482.925 722.292 482.903 730.028 481.108C737.676 479.335 749.597 473.759 756.028 468.948C775.858 454.112 786.73 431.069 785.184 407.152C783.994 388.732 777.723 374.066 765.404 360.889C754.881 349.632 738.215 341.15 723.528 339.575C719.953 339.191 716.128 338.727 715.028 338.542C713.928 338.357 708.978 338.756 704.028 339.427ZM220.547 366.169C217.629 371.851 213.505 379.764 211.384 383.753C209.263 387.742 207.53 391.567 207.534 392.253C207.542 394.129 220.499 410 222.023 410C222.751 410 226.039 406.962 229.331 403.25C252.635 376.964 256.528 372.32 256.528 370.81C256.528 367.492 252.078 364.185 244.028 361.519C239.628 360.063 235.296 358.481 234.401 358.004C233.506 357.527 231.217 356.845 229.314 356.488L225.854 355.838L220.547 366.169ZM256.097 378.25C253.981 380.787 241.321 395.23 240.537 396C239.557 396.963 226.986 411.516 225.75 413.118C224.529 414.701 229.903 422.004 250.678 446.995L254.327 451.385L261.178 448.578C264.945 447.034 269.936 444.922 272.267 443.885C274.599 442.848 276.781 442 277.116 442C277.451 442 279.144 441.388 280.877 440.641C282.61 439.893 285.266 438.777 286.778 438.162C288.29 437.546 289.528 436.382 289.528 435.575C289.528 434.768 283.372 422.046 275.848 407.304C268.324 392.562 261.687 379.491 261.098 378.258C259.742 375.417 258.46 375.415 256.097 378.25ZM200.389 404.75C198.398 408.462 193.169 418.475 188.768 427C184.367 435.525 177.937 447.9 174.477 454.5C165.514 471.601 163.677 475.437 164.191 475.975C164.831 476.645 173.497 467.255 191.418 446.473C197.042 439.949 208.208 427.299 211.694 423.5C213.713 421.3 216.326 418.272 217.502 416.772L219.639 414.044L212.924 406.022C209.231 401.61 205.714 398 205.108 398C204.503 398 202.379 401.038 200.389 404.75ZM216.028 423.867C209.947 430.939 190.3 453.305 189.558 454C189.265 454.275 187.492 456.3 185.62 458.5C183.747 460.7 178.974 466.1 175.014 470.5C163.559 483.226 161.528 485.693 161.528 486.882C161.528 487.497 161.835 488 162.21 488C162.808 488 179.602 481.395 185.028 479.025C186.128 478.545 191.753 476.295 197.528 474.025C203.303 471.756 209.04 469.472 210.278 468.949C212.935 467.828 213.833 467.467 227.528 462C233.303 459.695 238.928 457.448 240.028 457.006C246.131 454.558 249.528 452.82 249.528 452.146C249.528 451.728 248.445 450.061 247.121 448.443C245.797 446.824 239.828 439.46 233.857 432.079C227.886 424.697 222.557 418.521 222.014 418.355C221.472 418.189 218.778 420.669 216.028 423.867ZM67.028 422.612C51.053 424.866 36.365 432.114 25.153 443.278C17.672 450.726 14.875 454.539 11.053 462.5C5.62202 473.814 4.02802 481.189 4.02802 495C4.02802 512.403 9.28002 527.248 20.06 540.318C35.583 559.137 61.305 569.41 84.403 566.016C102.832 563.307 113.557 557.96 126.557 545C139.625 531.971 144.376 522.322 146.992 503.5C150.605 477.504 139.718 451.919 118.399 436.309C111.97 431.601 98.655 425 95.589 425C94.383 425 92.638 424.594 91.711 424.098C89.79 423.07 71.561 421.973 67.028 422.612ZM381.362 506.954C375.008 508.12 364.974 511.728 359.528 514.806C355.171 517.268 343.07 526.712 341.019 529.251C333.717 538.29 326.539 550.435 326.531 553.764C326.529 554.459 326.126 555.809 325.636 556.764C324.058 559.834 322.528 570.403 322.528 578.234C322.528 603.087 334.653 625.276 355.397 638.384C368.813 646.862 379.384 650 394.528 650C417.347 650 438.228 639.655 452.326 621.365C470.832 597.358 471.175 560.745 453.127 536C447.599 528.42 447.807 528.641 440.528 522.676C426.818 511.44 415.055 507.004 397.528 506.457C391.203 506.26 383.928 506.484 381.362 506.954Z"
        fill="url(#paint0_linear_210_5)" />
    <defs>
        <linearGradient id="paint0_linear_210_5" x1="26.5273" y1="607" x2="696.027" y2="155"
            gradientUnits="userSpaceOnUse">
            <stop stop-color="#97FF58" />
            <stop offset="1" stop-color="#7EFFF0" />
        </linearGradient>
    </defs>
</svg>